<svg width="133" height="210" viewBox="0 0 133 210" fill="none" xmlns="http://www.w3.org/2000/svg">
<path d="M128.391 225.159L131.763 222.983V136.576L128.391 135.053V225.159Z" fill="#505B75"/>
<path d="M39.0268 135.326V225.16H128.391V135.054L39.0268 135.326Z" fill="#F2F2F2"/>
<path d="M112.618 160.883L104.513 153.542L84.6607 175.565L62.5781 149.572L53.9299 156.206L79.3848 181.384L54.3107 209.171L56.2144 210.639L84.1168 186.006L108.158 209.824L111.258 206.887L89.5015 181.275L112.618 160.883Z" fill="#FF1B28"/>
<path d="M127.466 137.826C127.466 138.479 126.977 138.968 126.324 138.968C125.671 138.968 125.182 138.424 125.182 137.826C125.182 137.174 125.671 136.684 126.324 136.684C126.977 136.684 127.466 137.228 127.466 137.826Z" fill="#C6C6C6"/>
<path d="M43.2148 137.826C43.2148 138.479 42.7253 138.968 42.0726 138.968C41.4199 138.968 40.9304 138.425 40.9304 137.826C40.9304 137.174 41.4743 136.684 42.0726 136.684C42.6709 136.684 43.2148 137.228 43.2148 137.826Z" fill="#C6C6C6"/>
<path d="M70.1384 116.999C70.084 116.945 63.9378 112.975 54.0931 123.253L60.348 127.875C60.4024 127.821 63.2851 120.643 70.1384 116.999Z" fill="#11B1C8"/>
<path d="M58.0091 126.135L60.3479 127.875C60.3479 127.875 63.1763 120.86 69.8663 117.163C65.2431 119.011 61.3814 122.274 58.0091 126.135Z" fill="#149DB1"/>
<path d="M99.6182 121.132C89.6103 118.902 70.1384 116.945 70.1384 116.945C63.2852 120.588 60.4025 127.821 60.4025 127.821V135.27H102.555V130.376L102.882 130.92C101.304 128.419 99.6182 121.132 99.6182 121.132Z" fill="#F9CA29"/>
<path d="M60.4025 134.238V135.271H102.555V134.129C88.4681 134.129 74.4353 134.183 60.4025 134.238Z" fill="#F6B92B"/>
<path d="M113.216 129.724C113.216 129.724 110.931 124.776 103.317 122.166C102.338 121.839 101.087 121.513 99.6181 121.187C99.6181 121.187 101.304 128.473 102.882 130.975L104.948 134.292C104.948 134.238 110.442 132.878 113.216 129.724Z" fill="#11B1C8"/>
<path d="M100.053 122.818C100.652 125.102 101.794 129.18 102.882 130.92L104.948 134.237C104.948 134.237 105.873 134.02 107.124 133.531C105.003 129.778 103.099 125.809 100.053 122.818Z" fill="#149DB1"/>
<g style="mix-blend-mode:multiply">
<path d="M101.739 128.473C104.187 127.549 106.471 126.298 108.538 124.83C107.178 123.851 105.438 122.927 103.317 122.165C102.338 121.839 101.087 121.513 99.6181 121.187C89.6102 118.957 70.1383 116.999 70.1383 116.999C70.0839 116.945 66.7117 114.824 61.0006 117.815C61.9797 119.229 63.0675 120.534 64.2641 121.785C73.6193 131.029 89.3382 133.313 101.739 128.473Z" fill="#D4D4D4"/>
</g>
<g style="mix-blend-mode:multiply">
<path d="M83.3551 143.482C81.6146 143.21 78.3511 142.884 78.3511 142.884C78.3511 142.884 83.2463 141.307 83.6814 140.436C84.1166 139.512 83.0831 139.621 81.5602 140.11C80.0916 140.6 77.4265 141.361 77.4265 141.361C77.4265 141.361 78.8951 139.73 78.7319 138.588C78.5687 137.446 75.0877 141.035 74.8701 141.198C74.5982 141.361 73.2384 140.708 72.2594 140.872C72.2594 140.872 61.5988 137.554 57.2475 135.271C54.4736 135.271 51.1014 135.325 48.3275 135.379C50.9926 138.805 71.8243 144.243 71.8243 144.243C71.8243 144.243 72.3138 146.201 74.707 146.853C74.707 146.853 76.6106 148.593 77.1546 149.844C77.7529 151.095 79.439 150.986 79.1126 149.844C78.7863 148.702 77.3177 146.962 77.3177 146.962C77.3177 146.962 79.8741 147.886 81.3426 148.92C82.8112 150.007 83.9534 149.518 83.2463 147.832C82.4848 146.201 78.2424 145.113 78.2424 145.113C78.2424 145.113 82.3761 145.222 83.5727 145.276C84.9324 145.385 85.0956 143.754 83.3551 143.482Z" fill="#C6C6C6"/>
</g>
<g style="mix-blend-mode:multiply">
<path d="M108.321 135.107L109.137 137.011L95.1581 141.143L93.0913 140.165C93.0913 140.165 92.2754 138.044 91.1332 138.044C89.991 138.044 91.0244 139.349 91.5683 140.491C92.0579 141.633 92.3842 142.72 92.3842 142.72C92.3842 142.72 88.1961 139.947 86.8907 139.566C85.5853 139.24 85.9661 140.491 86.8907 140.98C87.8154 141.47 90.6981 143.373 90.6981 143.373C90.6981 143.373 86.0749 142.72 85.5854 143.373C85.0958 144.026 89.3927 144.297 90.0998 144.352C90.8612 144.461 84.9326 146.581 85.9117 147.234C86.8907 147.886 92.1122 145.113 91.5139 146.255C90.9156 147.397 88.1961 150.714 89.719 150.388C91.1876 150.062 93.2001 146.744 93.2001 146.744C93.2001 146.744 95.4301 146.418 95.9196 145.004C95.9196 145.004 113.216 141.633 113.76 138.261C113.923 137.174 113.76 136.141 113.488 135.162C111.693 135.107 110.007 135.053 108.321 135.107Z" fill="#C6C6C6"/>
</g>
<path d="M78.2969 123.253C78.2969 123.253 76.2301 130.485 82.3763 130.377C88.5224 130.268 88.6856 124.232 88.6856 124.232L78.2969 123.253Z" fill="#EFCAA6"/>
<path d="M131.763 71.4847C134.374 70.0164 125.019 69.3639 125.019 69.3639C125.019 69.3639 125.834 66.9168 125.019 64.0892C124.203 61.3158 122.245 67.7325 122.245 67.7325C115.337 47.9931 81.2341 45.4916 67.9083 60.5002C54.5826 75.5087 61.0007 95.085 61.0007 95.085C61.0007 95.085 65.9502 82.3604 76.8284 73.551C76.8284 73.551 72.4228 79.5327 74.1089 79.859C75.7406 80.1309 80.0375 77.847 98.5847 74.7474C98.5847 74.7474 94.8318 79.3152 97.2793 79.859C99.6725 80.3484 108.919 77.5207 108.919 77.5207C108.919 77.5207 106.635 89.2665 110.442 87.4176C114.304 85.5687 115.5 82.6323 115.5 82.6323C115.5 82.6323 120.831 94.3237 117.676 109.06C143.675 85.3512 126.378 72.9529 126.378 72.9529C126.378 72.9529 129.098 72.9529 131.763 71.4847Z" fill="#EC7B23"/>
<path d="M115.391 82.5776C115.391 82.5776 114.14 85.4597 110.333 87.363C106.471 89.2118 108.81 77.466 108.81 77.466C108.81 77.466 99.5637 80.2937 97.1705 79.8043C94.7773 79.3149 98.4759 74.6927 98.4759 74.6927C79.9286 77.7923 75.6317 80.0762 74 79.8043C72.3683 79.5324 76.7196 73.4964 76.7196 73.4964C65.8414 82.2514 60.8918 95.0304 60.8918 95.0304C60.8918 95.0304 55.9423 103.133 60.7287 112.432C66.8204 124.177 79.8198 127.168 92.1665 127.168C108.157 127.168 117.513 109.006 117.513 109.006C120.776 94.2691 115.391 82.5776 115.391 82.5776Z" fill="#F4D9BF"/>
<path d="M63.7745 89.2662C63.7745 89.2662 64.4271 84.6441 60.2391 85.1335C56.051 85.6229 55.6702 94.6497 60.6198 95.6285C60.6198 95.6285 62.3059 91.7133 63.7745 89.2662Z" fill="#EFCAA6"/>
<path d="M117.676 108.625C117.676 108.625 119.634 103.948 123.768 105.689C127.901 107.429 124.203 114.009 119.416 115.15C114.63 116.292 114.793 113.465 114.793 113.465L117.676 108.625Z" fill="#EFCAA6"/>
<path d="M83.736 117.434C83.736 117.434 83.5728 115.857 82.213 116.619C80.7989 117.38 79.6023 121.676 81.0708 122.057C82.485 122.383 83.6816 118.74 83.736 117.434Z" fill="white"/>
<path d="M77.2635 85.2968C77.2635 85.2968 77.481 84.9705 77.8618 84.6442C78.2969 84.3179 78.9496 84.046 79.6566 83.9917C79.983 83.9917 80.3637 83.9917 80.6901 84.1004C81.0164 84.2092 81.2884 84.3723 81.5059 84.5355C81.6147 84.6442 81.7235 84.6986 81.7779 84.8073C81.8323 84.8617 81.8867 84.9705 81.941 85.0792C81.9954 85.2424 82.0498 85.2968 82.0498 85.2968C82.0498 85.2968 81.9411 85.2968 81.7779 85.2968C81.6147 85.2968 81.4515 85.2968 81.234 85.2424C81.0164 85.2424 80.7445 85.2424 80.5269 85.2424C80.2549 85.2424 79.983 85.2968 79.711 85.2968C79.1671 85.3511 78.5688 85.3511 78.0793 85.3511C77.6442 85.3511 77.2635 85.2968 77.2635 85.2968Z" fill="#A95A16"/>
<path d="M100.162 89.5925C100.162 89.5925 100.597 89.2663 101.304 89.0487C102.011 88.7768 102.99 88.6681 104.024 88.7768C104.296 88.8312 104.513 88.8856 104.785 88.94C105.057 88.9944 105.275 89.1031 105.492 89.2119C105.71 89.3206 105.927 89.4838 106.091 89.5925C106.254 89.7557 106.417 89.9188 106.526 90.0819C106.634 90.2451 106.743 90.4082 106.798 90.5713C106.906 90.6801 106.906 90.8432 106.906 90.952C106.961 91.1695 106.961 91.2783 106.961 91.2783C106.961 91.2783 106.852 91.2239 106.689 91.0608C106.58 91.0064 106.526 90.8976 106.417 90.8432C106.308 90.7889 106.145 90.6801 106.036 90.6257C105.873 90.5713 105.71 90.517 105.547 90.4626C105.383 90.4082 105.22 90.3538 105.003 90.2995C104.785 90.2451 104.622 90.1907 104.404 90.1907C104.187 90.1363 103.969 90.0819 103.752 90.0819C103.317 90.0276 102.882 89.9732 102.446 89.9188C102.011 89.8644 101.631 89.81 101.25 89.7557C100.706 89.7013 100.162 89.5925 100.162 89.5925Z" fill="#A95A16"/>
<path d="M83.736 105.253C83.736 105.253 81.1252 108.244 82.8657 109.005C84.6062 109.767 86.7275 109.005 86.7275 109.005C86.7275 109.005 83.5728 109.549 83.3008 107.863C83.0289 106.178 83.736 105.253 83.736 105.253Z" fill="#C39368"/>
<path d="M58.4443 90.3536C58.4443 90.3536 58.6618 90.1905 59.097 90.0817C59.3145 90.0273 59.5865 89.973 59.8584 90.0273C60.1304 90.0273 60.4567 90.1361 60.7287 90.2449C60.8918 90.2992 61.0006 90.408 61.1094 90.5168C61.2182 90.6255 61.327 90.7343 61.4357 90.843C61.5445 90.9518 61.5989 91.1149 61.6533 91.2237C61.7077 91.3324 61.7077 91.4412 61.7621 91.55C61.8165 91.7675 61.8165 91.9306 61.8165 92.0937C61.8165 92.2025 61.8165 92.3113 61.8165 92.3113C61.8165 92.3113 61.7621 92.2569 61.7077 92.1481C61.6533 92.0937 61.6533 92.0394 61.5989 91.985C61.5445 91.9306 61.4901 91.8218 61.4357 91.7675C61.3814 91.7131 61.327 91.6043 61.2726 91.4956C61.2182 91.4412 61.1638 91.3324 61.055 91.2781C60.8918 91.1149 60.7287 91.0062 60.5111 90.8974C60.4023 90.843 60.2935 90.7887 60.1848 90.7343C60.076 90.7343 59.9672 90.6255 59.8584 90.6255C59.6409 90.5711 59.4233 90.5168 59.2057 90.4624C58.7162 90.408 58.4443 90.3536 58.4443 90.3536Z" fill="#C39368"/>
<path d="M121.755 110.746C121.755 110.746 121.701 110.691 121.538 110.637C121.429 110.583 121.211 110.528 121.048 110.42C120.939 110.42 120.831 110.365 120.722 110.365C120.613 110.311 120.45 110.311 120.341 110.311C120.232 110.311 120.069 110.256 119.906 110.256C119.743 110.256 119.634 110.256 119.471 110.311C119.308 110.311 119.199 110.311 119.036 110.365C118.872 110.42 118.764 110.42 118.601 110.42C118.492 110.474 118.329 110.42 118.22 110.474C118.111 110.528 118.002 110.528 117.839 110.583C117.404 110.691 117.023 110.746 117.023 110.746C117.023 110.746 117.241 110.528 117.676 110.256C117.785 110.202 117.893 110.093 118.002 110.039C118.111 109.984 118.274 109.93 118.437 109.876C118.601 109.821 118.764 109.767 118.872 109.713C119.036 109.658 119.199 109.658 119.362 109.658C119.525 109.658 119.688 109.658 119.852 109.658C120.015 109.658 120.178 109.713 120.341 109.767C120.504 109.821 120.667 109.821 120.776 109.93C120.885 109.984 121.048 110.093 121.157 110.148C121.374 110.311 121.483 110.474 121.592 110.583C121.755 110.637 121.755 110.746 121.755 110.746Z" fill="#C39368"/>
<path d="M100.869 100.142C100.216 101.828 99.1285 102.97 98.4214 102.698C97.7143 102.426 97.6056 100.849 98.2582 99.1632C98.9109 97.4774 99.9987 96.3355 100.706 96.6073C101.413 96.8792 101.467 98.4562 100.869 100.142Z" fill="#3D1A0B"/>
<path d="M99.7811 98.2929C99.5636 98.7823 99.1829 99.1086 98.9653 98.9999C98.7477 98.8911 98.7477 98.4017 99.0197 97.9123C99.2372 97.4229 99.618 97.0966 99.8355 97.2054C100.053 97.3141 100.053 97.8035 99.7811 98.2929Z" fill="white"/>
<path d="M79.7112 94.2689C79.0585 95.9546 77.9707 97.0966 77.2636 96.8247C76.5565 96.5528 76.4478 94.9758 77.1004 93.2901C77.7531 91.6043 78.841 90.4624 79.548 90.7343C80.2551 91.0062 80.3639 92.5831 79.7112 94.2689Z" fill="#3D1A0B"/>
<path d="M78.6779 92.4203C78.4603 92.9097 78.0796 93.236 77.862 93.1272C77.6445 93.0185 77.6445 92.5291 77.9164 92.0396C78.134 91.5502 78.5147 91.224 78.7323 91.3327C78.9498 91.4415 78.9498 91.9309 78.6779 92.4203Z" fill="white"/>
<path d="M106.961 109.984C106.743 111.126 104.35 111.616 101.631 111.072C98.9111 110.528 96.8443 109.169 97.0618 108.027C97.2794 106.885 99.6726 106.395 102.392 106.939C105.166 107.483 107.179 108.842 106.961 109.984Z" fill="#F9CBC0"/>
<path d="M75.9037 100.577C75.6861 101.719 73.2929 102.208 70.5734 101.665C67.8538 101.121 65.787 99.7614 66.0046 98.6194C66.2221 97.4775 68.6153 96.9881 71.3349 97.5319C74.1088 98.13 76.1756 99.4895 75.9037 100.577Z" fill="#F9CBC0"/>
<path d="M54.4738 123.525C54.4738 123.525 46.0976 131.899 48.1101 135.325C50.1769 138.751 71.3894 144.515 71.3894 144.515C71.3894 144.515 71.8789 146.473 74.2721 147.125C74.2721 147.125 76.1757 148.865 76.7197 150.116C77.3179 151.367 79.0041 151.258 78.6777 150.116C78.3514 148.974 76.8828 147.234 76.8828 147.234C76.8828 147.234 79.4392 148.158 80.9077 149.192C82.3763 150.279 83.5185 149.79 82.8114 148.104C82.05 146.473 77.8075 145.385 77.8075 145.385C77.8075 145.385 81.9412 145.494 83.1378 145.548C84.3344 145.657 84.4975 143.971 82.757 143.754C81.0165 143.482 77.7531 143.155 77.7531 143.155C77.7531 143.155 82.6483 141.578 83.0834 140.708C83.5185 139.784 82.4851 139.893 80.9621 140.382C79.4936 140.872 76.8284 141.633 76.8284 141.633C76.8284 141.633 78.297 140.002 78.1338 138.86C77.9706 137.718 74.4896 141.307 74.2721 141.47C74.0001 141.633 72.6403 140.98 71.6613 141.143C71.6613 141.143 55.6704 136.141 54.8002 134.237C53.8755 132.334 58.6619 126.733 58.6619 126.733L54.4738 123.525Z" fill="#F4D9BF"/>
<path d="M107.07 133.53L108.647 137.228L94.6685 141.361L92.6017 140.382C92.6017 140.382 91.7858 138.261 90.6436 138.261C89.5014 138.261 90.5348 139.566 91.0787 140.708C91.5682 141.85 91.8946 142.938 91.8946 142.938C91.8946 142.938 87.7065 140.165 86.4011 139.784C85.0958 139.458 85.4765 140.708 86.4011 141.198C87.3258 141.687 90.2085 143.59 90.2085 143.59C90.2085 143.59 85.5853 142.938 85.0957 143.59C84.6062 144.243 88.9031 144.515 89.6102 144.569C90.3717 144.678 84.4431 146.799 85.4221 147.451C86.4011 148.104 91.6226 145.331 91.0244 146.472C90.4261 147.614 87.7065 150.932 89.2294 150.605C90.698 150.279 92.7105 146.962 92.7105 146.962C92.7105 146.962 94.9405 146.636 95.43 145.222C95.43 145.222 112.726 141.85 113.27 138.479C113.814 135.107 111.203 131.464 111.203 131.464C111.203 131.464 108.701 132.987 107.07 133.53Z" fill="#F4D9BF"/>
<g opacity="0.4">
<path opacity="0.4" d="M63.7745 89.2659C66.2764 84.8069 70.5733 78.4989 76.7739 73.4961L80.3093 70.3965C67.6362 76.0519 63.7745 89.2659 63.7745 89.2659Z" fill="#D7711F"/>
<path opacity="0.4" d="M73.9999 79.8043C75.6316 80.0762 79.9285 77.7923 98.4757 74.6928C98.4757 74.6928 98.4214 74.7471 98.367 74.8559C100.815 72.7351 103.643 71.1581 103.643 71.1581C90.7523 72.3001 73.9999 79.8043 73.9999 79.8043Z" fill="#D7711F"/>
<path opacity="0.4" d="M96.5177 79.4237C96.6265 79.6412 96.8441 79.75 97.1704 79.8044C99.5636 80.2938 108.81 77.4661 108.81 77.4661C108.81 77.4661 108.81 77.5748 108.756 77.738C110.061 75.5084 111.638 73.0614 111.638 73.0614C103.48 78.8255 96.6265 79.3693 96.5177 79.4237Z" fill="#D7711F"/>
<path opacity="0.4" d="M114.303 77.3573C115.065 84.2634 109.517 87.5261 109.462 87.5261C109.734 87.5805 110.006 87.5261 110.333 87.363C114.194 85.5141 115.391 82.5777 115.391 82.5777C115.391 82.5777 120.667 94.0516 117.621 108.625C125.127 93.9972 114.303 77.3573 114.303 77.3573Z" fill="#D7711F"/>
</g>
<path d="M0.730347 9.05721C1.34454 6.9464 3.49419 5.83343 5.29838 4.87397C15.3174 -0.307106 27.2173 -0.383863 38.196 0.306948C50.0575 1.07451 61.8423 3.2237 72.8209 7.79073C76.0071 9.13397 79.1932 10.554 82.0722 12.3961C84.6057 14.0464 85.4502 16.6178 85.1431 19.5345C84.7976 22.6815 76.5445 41.6404 71.0935 42.9837C67.9842 43.7512 64.7597 43.9431 61.8423 43.2139C55.8923 41.7556 50.403 39.2994 44.9137 36.728C44.7985 37.1502 44.7217 37.5723 44.7601 38.0329C44.7985 39.7599 45.5662 41.4869 46.3724 42.9837C47.8694 45.7853 50.4798 47.9345 53.0517 49.6999C54.7023 50.8129 56.4297 51.7723 58.1955 52.6166C59.4239 53.3842 60.8058 54.0366 62.0726 54.6123C62.3029 54.7275 62.5716 54.8426 62.8019 54.9961C62.61 54.9577 62.4565 54.9193 62.2645 54.881C59.9229 54.5356 57.6965 54.075 55.4317 53.3458C51.9385 52.1945 48.522 50.7745 45.1056 49.3929C44.453 49.0858 43.8004 48.7788 43.1862 48.4334C39.5779 46.5912 36.3534 44.2885 33.5895 41.3718C32.0924 39.7983 30.9792 38.3399 30.2499 36.6512C24.4151 37.0734 18.6186 37.6491 12.7838 37.534C10.9796 37.4956 9.13706 37.534 7.52481 36.6129C5.72063 35.615 4.60741 33.1972 3.64774 31.4702C1.03744 26.9031 -0.0373993 21.6069 0.000991821 16.3875C0.0777664 13.9696 0.0393829 11.3983 0.730347 9.05721ZM67.6387 40.5275C70.5177 40.2972 72.2835 39.2226 73.819 36.728C75.6999 33.6577 77.4657 30.5491 79.0396 27.2869C80.3448 24.5621 82.3025 21.3383 82.4944 18.3064C82.648 15.9269 81.8035 14.3918 80.0761 12.8183C79.9609 12.7032 79.8457 12.8567 79.9225 12.9718C82.5328 16.1188 81.3812 19.1891 79.8457 22.528C78.8477 24.6388 77.888 26.788 76.7748 28.8604C75.508 31.2399 74.1645 33.581 72.7825 35.9221C72.2451 36.8048 71.3622 38.2631 70.5177 38.8004C69.5581 39.4529 68.5216 39.6448 67.4084 39.9518C67.1013 40.0669 67.37 40.5658 67.6387 40.5275ZM60.4604 39.6448C61.612 39.8367 62.7636 39.9134 63.9536 39.9902C57.8116 38.4167 52.092 35.9221 46.142 33.8113C50.6717 36.4594 55.4317 38.455 60.4604 39.6448ZM54.7023 52.041C54.8559 52.0793 54.8943 51.8875 54.7791 51.8107C51.3243 50.1988 47.6007 48.1648 45.7198 44.6339C44.0691 41.4869 42.6872 37.6491 43.8388 34.1183C43.8772 34.0415 43.7237 33.9264 43.6853 34.0031C39.693 41.8707 47.9462 49.7766 54.7023 52.041Z" fill="#E66D74"/>
<path d="M24.1077 26.5578V13.3557H27.6009L30.3264 18.1913C31.0941 19.5729 31.9002 21.2232 32.476 22.72H32.5528C32.3609 20.9929 32.2841 19.1892 32.2841 17.2319V13.394H35.0096V26.5962H31.8619L29.0596 21.4919C28.2919 20.0719 27.409 18.3832 26.7564 16.8481L26.6796 16.8865C26.7564 18.6135 26.7948 20.494 26.7948 22.6432V26.6346H24.1077V26.5578Z" fill="white"/>
<path d="M49.6735 19.8415C49.6735 24.1783 47.0632 26.788 43.1862 26.788C39.2707 26.788 36.9675 23.8329 36.9675 20.0718C36.9675 16.1188 39.501 13.1637 43.3781 13.1637C47.4855 13.1637 49.6735 16.1956 49.6735 19.8415ZM40.1536 19.995C40.1536 22.5664 41.382 24.4086 43.3781 24.4086C45.4126 24.4086 46.5642 22.4896 46.5642 19.9183C46.5642 17.5388 45.4126 15.5048 43.3781 15.5048C41.3436 15.5048 40.1536 17.4237 40.1536 19.995Z" fill="white"/>
<path d="M51.2089 24.9843C51.2089 23.9481 51.9383 23.2189 52.9747 23.2189C54.0112 23.2189 54.7022 23.9481 54.7022 24.9843C54.7022 26.0205 54.0112 26.7497 52.9747 26.7497C51.8999 26.7881 51.2089 26.0205 51.2089 24.9843ZM51.8615 22.2211L51.4009 13.3557H54.5102L54.0879 22.2211H51.8615Z" fill="white"/>
</svg>
