<svg width="142" height="210" viewBox="0 0 142 210" fill="none" xmlns="http://www.w3.org/2000/svg">
<path d="M40 137.119V137.555H70.3536L70.2346 137C60.1564 137 50.0782 137.079 40 137.119Z" fill="white"/>
<path d="M16.1001 137.957V216.397H94.1303V137.72L16.1001 137.957Z" fill="#F2F2F2"/>
<path d="M94.1302 216.397L97.0747 214.498V139.049L94.1302 137.72V216.397Z" fill="#505B75"/>
<path d="M92.6105 139.809C92.6105 140.378 92.1831 140.806 91.6132 140.806C91.0433 140.806 90.6158 140.331 90.6158 139.809C90.6158 139.239 91.0433 138.811 91.6132 138.811C92.1356 138.764 92.6105 139.239 92.6105 139.809Z" fill="#C6C6C6"/>
<path d="M19.0446 139.809C19.0446 140.379 18.6172 140.806 18.0473 140.806C17.4774 140.806 17.0499 140.331 17.0499 139.809C17.0499 139.239 17.4774 138.812 18.0473 138.812C18.5697 138.764 19.0446 139.239 19.0446 139.809Z" fill="#C6C6C6"/>
<path d="M36.0944 172.951L28.638 177.32C28.638 177.32 36.4743 193.748 38.0891 201.963C38.0891 201.963 45.5929 184.347 81.5922 149.78L80.1675 148.308C80.1675 148.308 51.3395 169.295 41.366 186.484L36.0944 172.951Z" fill="#26B545"/>
<path d="M66.2995 126.087C66.252 126.087 66.2045 126.087 66.157 126.087C63.8773 125.992 44.5954 126.039 43.5505 126.087C43.5505 126.087 41.5084 126.182 38.6113 126.609C40.8435 132.544 36.7591 134.301 34.8119 134.729V137.91H71.1437L70.3838 133.969C66.9644 132.734 66.2995 128.936 66.2995 126.087Z" fill="#006AB0"/>
<path d="M66.2995 126.893C66.2995 126.608 66.252 126.371 66.252 126.086C66.2046 126.086 66.1571 126.086 66.1096 126.086C63.8299 125.991 44.548 126.039 43.5031 126.086C43.5031 126.086 41.4609 126.181 38.5639 126.608C38.6114 126.656 38.6114 126.751 38.6114 126.798C47.8724 126.798 57.086 126.846 66.2995 126.893Z" fill="white"/>
<path d="M39.2288 129.695C39.2288 129.979 39.2288 130.217 39.1813 130.454C48.4424 130.502 57.7509 130.549 67.012 130.549C66.8695 130.217 66.7745 129.884 66.6795 129.552C57.5135 129.552 48.3474 129.647 39.2288 129.695Z" fill="white"/>
<path d="M69.2916 133.446C58.6533 133.446 48.015 133.446 37.4241 133.541C37.0442 133.826 36.6167 134.063 36.1893 134.253C47.5875 134.3 59.0332 134.3 70.4314 134.3L70.384 134.015C69.9565 133.826 69.5766 133.636 69.2916 133.446Z" fill="white"/>
<g style="mix-blend-mode:multiply">
<path d="M47.16 144.272C49.6296 143.702 51.3868 141.66 48.4898 141.803C45.5927 141.898 44.168 143.797 43.788 143.702C43.5506 143.655 38.3739 140.473 34.147 137.909C31.6299 137.909 29.1603 137.909 26.6432 137.957C31.8199 141.186 41.1759 146.693 41.1759 146.693C41.1759 146.693 40.701 147.833 41.5559 149.305C41.5559 149.305 41.3659 156.095 42.6007 155.81C43.8355 155.525 42.9807 149.115 43.5506 150.255C44.1205 151.394 46.5426 156.285 47.3025 155.05C48.0624 153.816 44.1205 147.88 45.9727 149.305C47.7774 150.729 50.6744 153.531 51.2444 152.201C51.8143 150.872 45.4978 147.406 48.1573 147.88C50.8644 148.355 54.8538 148.735 53.0491 146.931C51.2918 145.079 44.6429 144.889 47.16 144.272Z" fill="#C6C6C6"/>
</g>
<path d="M85.8665 87.6259C85.8665 87.6259 101.397 89.905 104.864 110.512L101.872 114.548L99.4019 108.993L101.112 115.973L96.8848 118.584L94.8901 112.174L95.8399 118.584L89.5234 119.914C89.5234 119.914 89.8084 106.476 86.2465 101.396L85.8665 87.6259Z" fill="#E08804"/>
<path opacity="0.3" d="M88.2888 106.524C90.5684 100.921 90.6634 94.5583 89.2386 88.623C87.2439 87.8158 85.9141 87.6259 85.9141 87.6259L86.2941 101.443C87.1489 102.725 87.8138 104.529 88.2888 106.524Z" fill="#E08804"/>
<path d="M48.9648 124.425C48.9648 124.425 47.2551 133.161 51.5769 133.731C55.8987 134.301 57.5135 126.656 57.3235 124.425H48.9648Z" fill="#EFCAA6"/>
<path d="M38.5642 126.609C35.3347 127.084 31.0128 127.986 27.2609 129.648C20.0895 132.829 20.9444 134.538 22.6067 135.868C24.2214 137.197 40.3214 146.694 40.3214 146.694C40.3214 146.694 39.8465 147.833 40.7013 149.305C40.7013 149.305 40.5113 156.095 41.7462 155.81C42.981 155.525 42.1261 149.115 42.696 150.255C43.2659 151.394 45.688 156.285 46.4479 155.051C47.2078 153.816 43.2659 147.881 45.1181 149.305C46.9228 150.73 49.8199 153.531 50.3898 152.202C50.9597 150.872 44.6432 147.406 47.3028 147.881C50.0099 148.356 53.9992 148.735 52.1945 146.931C50.3898 145.127 43.7408 144.937 46.2579 144.32C48.7276 143.75 50.4848 141.708 47.5877 141.851C44.6907 141.945 43.2659 143.845 42.886 143.75C42.506 143.655 27.8308 134.633 27.8308 134.633C27.8308 134.633 32.4376 132.544 34.7173 131.927V134.728C36.712 134.253 40.7963 132.544 38.5642 126.609Z" fill="#EFCAA6"/>
<path d="M38.1366 130.787C38.1366 130.787 37.9466 130.93 37.6616 131.072C37.3767 131.215 36.9493 131.405 36.5218 131.547C36.0944 131.689 35.667 131.784 35.3345 131.832C35.0021 131.879 34.7646 131.879 34.7646 131.879C34.7646 131.879 34.9546 131.737 35.2395 131.594C35.5245 131.452 35.9519 131.262 36.3793 131.12C36.8068 130.977 37.2342 130.882 37.5667 130.835C37.8991 130.787 38.1366 130.787 38.1366 130.787Z" fill="#C39368"/>
<path d="M110.23 95.4128C110.515 94.5581 114.267 89.6675 113.317 88.9078C112.367 88.148 109.755 93.7034 108.995 93.2286C108.235 92.7538 109.85 84.8718 107.95 85.9639C106.051 87.0085 107.096 93.466 106.146 92.8488C105.196 92.184 104.531 84.5394 103.059 85.8689C101.634 87.1984 105.148 94.0358 103.724 93.7509C102.299 93.466 100.304 92.5639 98.8319 93.466C97.3597 94.3207 102.679 94.7955 103.154 96.1725C103.629 97.502 103.534 98.0718 103.534 98.0718C103.534 98.0718 97.5971 109.183 88.4311 115.878C79.455 122.43 68.8641 126.086 66.2995 126.134C66.2995 129.03 67.0119 132.781 70.3839 134.063L69.624 130.075C69.624 130.075 91.2806 128.508 107.998 97.7394C107.998 97.7394 108.853 98.0243 109.613 97.1696C109.613 97.1696 115.359 96.5998 115.359 95.4603C115.312 94.2732 109.945 96.2675 110.23 95.4128Z" fill="#EFCAA6"/>
<path d="M68.8165 127.037C68.8165 127.037 68.959 127.274 69.1015 127.606C69.244 127.939 69.3865 128.414 69.5289 128.888C69.6239 129.363 69.7189 129.838 69.7664 130.218C69.8139 130.598 69.7664 130.835 69.7664 130.835C69.7664 130.835 69.6239 130.598 69.4814 130.265C69.339 129.933 69.1965 129.458 69.1015 128.983C69.0065 128.508 68.9115 128.034 68.864 127.654C68.8165 127.274 68.8165 127.037 68.8165 127.037Z" fill="#C39368"/>
<g style="mix-blend-mode:multiply">
<path d="M46.9701 133.114C50.4845 133.588 54.0939 133.541 57.6084 132.924C64.5898 131.642 71.1912 128.27 75.893 123C71.3812 124.994 67.6293 126.086 66.252 126.086C66.2045 126.086 66.1571 126.086 66.1096 126.086C65.1597 126.039 61.4078 126.039 57.2284 126.039C57.3234 125.421 57.3234 124.852 57.2759 124.472H48.9173C48.9173 124.472 48.7748 125.089 48.6798 126.039C45.8777 126.039 43.7881 126.086 43.4556 126.086C43.4556 126.086 41.4134 126.181 38.5164 126.608C37.3291 126.798 35.9518 127.036 34.527 127.321C37.519 130.929 42.5058 132.496 46.9701 133.114Z" fill="#D4D4D4"/>
</g>
<path d="M22.6065 88.8127C22.6065 88.8127 17.7147 86.7235 10.3059 92.7537C2.89704 98.7839 0 111.177 0 111.177L2.13717 112.411C2.13717 112.411 6.07904 104.197 9.68848 100.778C9.68848 100.778 4.60678 108.375 3.56194 113.931C3.56194 113.931 8.02624 115.64 9.83096 115.782C9.83096 115.782 11.6832 106.856 13.0605 105.052C13.0605 105.052 11.0658 112.601 11.2557 116.495C11.2557 116.495 15.1501 117.634 18.2371 117.207C18.2371 117.207 17.4298 106.144 22.179 99.2112L22.6065 88.8127Z" fill="#E08804"/>
<path opacity="0.3" d="M18.997 88.5754C18.3321 90.4747 17.9046 92.5639 17.7147 94.1308C17.2872 97.1222 17.1448 100.114 17.5722 103.105C17.8572 105.004 18.2371 106.856 18.807 108.66C19.3294 105.526 20.3268 102.013 22.274 99.2114L22.6539 88.7653C22.6064 88.8128 21.2766 88.243 18.997 88.5754Z" fill="#E08804"/>
<path d="M88.1935 93.941C85.9139 72.9064 63.0224 54.5309 37.7089 69.3928C37.7089 69.3928 22.3213 76.6575 19.7093 94.9856C17.0972 113.314 26.8806 120.341 31.7724 121.575C31.7724 121.575 23.7936 112.554 26.2157 97.1223C26.2157 97.1223 32.0573 97.6446 40.5585 97.9294C41.1284 94.6057 42.5532 88.7654 46.0676 85.1093C46.0676 85.1093 42.7431 90.8546 42.5532 97.9769C45.7352 98.0719 49.2496 98.0719 52.954 98.0244C53.049 95.1755 53.5239 90.3798 55.5661 86.2964C55.5661 86.2964 54.5213 92.0892 54.5213 97.9769C59.8879 97.882 65.5396 97.5496 71.0012 96.9323C71.0487 94.5582 71.0012 90.9496 70.2888 87.6259C70.2888 87.6259 71.9036 91.8518 72.8534 96.6949C75.6555 96.3625 78.3625 95.8877 80.9271 95.3654C80.9271 95.3654 82.2569 106.191 77.5552 117.634C77.6976 117.445 77.7451 117.302 77.7451 117.302C77.7451 117.302 90.2832 113.171 88.1935 93.941Z" fill="#F39F00"/>
<path d="M81.0223 95.4127C78.4102 95.935 75.7031 96.4098 72.9485 96.7422C71.9987 91.899 70.3839 87.6731 70.3839 87.6731C71.0963 90.9968 71.1438 94.653 71.0963 96.9796C65.6347 97.5968 59.9831 97.9292 54.6164 98.0242C54.6164 92.1364 55.6612 86.3436 55.6612 86.3436C53.5716 90.4271 53.1441 95.2227 53.0491 98.0717C49.3922 98.1191 45.8778 98.1191 42.6483 98.0242C42.8382 90.9019 46.1627 85.1566 46.1627 85.1566C42.6483 88.8127 41.176 94.6055 40.6536 97.9767C32.1999 97.7393 26.3108 97.1695 26.3108 97.1695C25.9309 99.4961 25.8359 101.68 25.8834 103.722C25.9784 107.236 26.5483 110.227 27.3557 112.791C29.1129 118.536 31.915 121.67 31.915 121.67C31.915 121.67 40.4161 131.974 56.6586 129.79C71.1913 127.843 76.7479 119.534 77.7453 117.777C78.5052 115.877 79.1226 114.026 79.5975 112.221C80.3099 109.467 80.7373 106.903 80.9748 104.624C81.4497 99.1163 81.0223 95.4127 81.0223 95.4127Z" fill="#F4D9BF"/>
<path d="M31.8198 79.3165C31.2974 79.8863 30.775 80.5035 30.3001 81.1208C29.8252 81.7381 29.3502 82.4028 28.8753 83.0201L28.2104 84.0172L27.593 85.0143C27.2131 85.6791 26.7856 86.3913 26.4532 87.1035C26.2632 87.4359 26.0733 87.8158 25.9308 88.1481L25.4558 89.2402L25.0284 90.3323C24.8859 90.7122 24.7435 91.092 24.6485 91.4719C24.506 91.8517 24.411 92.2316 24.2685 92.6114L23.9836 93.751C23.8886 94.1309 23.7936 94.5107 23.6986 94.8906L23.4612 96.0776L23.4137 95.9352C23.6036 96.0776 23.8411 96.2201 24.0786 96.3625C24.316 96.505 24.5535 96.5999 24.791 96.6949C25.0284 96.7899 25.2659 96.8848 25.5508 96.9323C25.7883 97.0273 26.0732 97.0273 26.3107 97.1222C26.0258 97.0748 25.7883 97.1222 25.5033 97.0273C25.2184 96.9798 24.9809 96.9323 24.7435 96.8373C24.506 96.7424 24.221 96.6474 23.9836 96.5524C23.7461 96.4575 23.5087 96.315 23.2712 96.1726L23.1762 96.1251V96.0301L23.3662 94.8431C23.4137 94.4632 23.4612 94.0359 23.5561 93.656L23.7936 92.469C23.8886 92.0891 24.0311 91.7093 24.1261 91.3294C24.221 90.9496 24.3635 90.5697 24.506 90.1899L24.9334 89.0503L25.4084 87.9582C25.5508 87.5784 25.7408 87.246 25.9308 86.8661C26.1207 86.5338 26.3107 86.1539 26.5007 85.8215C26.6907 85.4892 26.9281 85.1093 27.1181 84.7769L27.783 83.7798L28.4954 82.8302C28.9703 82.2129 29.4927 81.5482 30.0626 80.9784C30.6325 80.4086 31.2024 79.7913 31.8198 79.3165Z" fill="#CC6809"/>
<path d="M78.4103 79.3165C78.6477 79.5539 78.8852 79.8388 79.0752 80.0762C79.2651 80.3611 79.4551 80.646 79.6451 80.9309C80.025 81.5007 80.31 82.1179 80.6424 82.7352L81.0698 83.6374C81.2123 83.9697 81.3548 84.2546 81.4973 84.587C81.6398 84.9194 81.7347 85.2043 81.8772 85.5366C82.0197 85.869 82.1147 86.2014 82.2097 86.5338C82.3047 86.8661 82.4471 87.1985 82.4946 87.5309L82.7796 88.528L83.017 89.5251C83.112 89.8575 83.1595 90.1899 83.207 90.5222L83.3495 91.5194L83.4445 92.564C83.492 93.2287 83.492 93.9409 83.492 94.6057V94.7006L83.397 94.7481C82.6371 94.9381 81.8297 95.1755 81.0698 95.3654C81.8297 95.033 82.5421 94.7481 83.302 94.4632L83.207 94.6057C83.1595 93.9409 83.112 93.2762 83.017 92.6114L82.8746 91.6143L82.6846 90.6172C82.6371 90.2848 82.5421 89.9525 82.4946 89.6201L82.2572 88.623L81.9722 87.6258C81.8772 87.2935 81.7822 86.9611 81.6872 86.6762C81.5923 86.3438 81.4973 86.0115 81.3548 85.7266C81.2598 85.3942 81.1648 85.0618 81.0224 84.7769C80.7849 84.1597 80.5474 83.4949 80.2625 82.8776C79.9775 82.2604 79.6926 81.6431 79.4076 81.0258C79.2651 80.741 79.1227 80.4086 78.9327 80.1237C78.7427 79.8388 78.6477 79.5539 78.4103 79.3165Z" fill="#CC6809"/>
<path d="M59.983 102.345C59.983 102.345 61.2178 100.256 62.6425 100.636C64.0673 101.016 64.5897 102.345 64.7797 102.915C65.0172 103.485 63.07 100.826 59.983 102.345Z" fill="#CC6809"/>
<path d="M38.3738 103.057C38.3738 103.057 39.6086 100.968 41.0334 101.348C42.4582 101.728 42.9806 103.057 43.1705 103.627C43.408 104.197 41.4608 101.538 38.3738 103.057Z" fill="#CC6809"/>
<path d="M43.028 119.106C43.028 119.106 51.9091 125.089 62.8799 118.679C62.8799 118.679 60.8377 126.941 52.9064 127.131C44.9277 127.321 43.028 119.106 43.028 119.106Z" fill="white"/>
<path d="M51.8141 113.124C51.8141 113.124 51.7192 113.124 51.5767 113.124C51.4342 113.124 51.1967 113.124 50.9593 113.171C50.8643 113.219 50.7218 113.266 50.6268 113.314C50.5318 113.409 50.4843 113.503 50.3894 113.598C50.3894 113.646 50.3419 113.741 50.3419 113.788C50.3419 113.883 50.2944 113.978 50.3419 114.026C50.3419 114.121 50.3894 114.263 50.4843 114.406C50.5793 114.548 50.6743 114.643 50.7693 114.786C50.8643 114.88 51.0068 115.023 51.1492 115.118C51.2917 115.213 51.3867 115.308 51.5292 115.403C51.6717 115.498 51.7666 115.545 51.9091 115.64C52.1466 115.783 52.3366 115.878 52.479 115.925C52.6215 115.973 52.7165 115.973 52.7165 115.973C52.7165 115.973 52.6215 116.02 52.479 116.02C52.2891 116.02 52.0516 116.02 51.7666 115.925C51.4817 115.83 51.1492 115.735 50.8643 115.545C50.7218 115.45 50.5318 115.355 50.3894 115.213C50.2469 115.07 50.1044 114.928 50.0094 114.738C49.9144 114.548 49.8194 114.358 49.8194 114.073C49.8194 113.931 49.8669 113.883 49.8669 113.788C49.9144 113.646 49.9619 113.598 50.0094 113.456C50.1044 113.266 50.2944 113.124 50.4368 113.029C50.6268 112.934 50.7693 112.886 50.9593 112.886C51.2917 112.886 51.4817 112.981 51.6717 113.029C51.7666 113.076 51.8141 113.124 51.8141 113.124Z" fill="#C39368"/>
<path d="M22.9862 103.77C19.7092 105.052 21.039 112.506 27.2605 112.696C26.4532 110.18 25.8833 107.141 25.7883 103.627C25.1234 103.39 24.221 103.295 22.9862 103.77Z" fill="#EFCAA6"/>
<path d="M83.9665 103.769C82.6842 103.532 81.6394 103.912 80.8795 104.482C80.642 106.761 80.2146 109.372 79.5022 112.079C80.4046 112.079 81.4494 111.936 82.6367 111.556C86.5311 110.464 87.101 104.434 83.9665 103.769Z" fill="#EFCAA6"/>
<path d="M22.6062 107.188C22.6062 107.188 22.9387 107.093 23.4611 107.141C23.6986 107.141 24.031 107.188 24.316 107.283C24.6009 107.378 24.9334 107.521 25.2183 107.711C25.5033 107.901 25.7882 108.138 25.9782 108.375C26.0732 108.518 26.1682 108.613 26.2632 108.755C26.3582 108.898 26.4056 108.993 26.4531 109.135C26.5481 109.373 26.5956 109.61 26.5956 109.752C26.5956 109.895 26.5956 109.99 26.5956 109.99C26.5956 109.99 26.5481 109.942 26.4531 109.8C26.4056 109.752 26.3581 109.657 26.3107 109.562C26.2632 109.468 26.1682 109.42 26.1207 109.278C26.0732 109.183 25.9782 109.088 25.8832 108.993C25.7882 108.898 25.6933 108.803 25.5983 108.708C25.5033 108.613 25.3608 108.518 25.2658 108.423C25.1708 108.328 25.0284 108.233 24.8859 108.185C24.7434 108.091 24.6484 108.043 24.5059 107.948C24.3635 107.901 24.221 107.806 24.126 107.758C23.8411 107.616 23.6036 107.521 23.3661 107.426C22.8912 107.283 22.6062 107.188 22.6062 107.188Z" fill="#C39368"/>
<path d="M83.8717 107.9C83.8717 107.9 83.5867 107.805 83.1593 107.805C83.0643 107.805 82.9218 107.805 82.8268 107.853C82.7318 107.853 82.5894 107.9 82.4944 107.948C82.2569 108.043 82.0195 108.138 81.782 108.28C81.687 108.328 81.5445 108.423 81.4496 108.518C81.3546 108.613 81.2121 108.708 81.1646 108.803C81.0696 108.897 80.9746 108.992 80.8796 109.087C80.7847 109.182 80.6897 109.277 80.6422 109.325C80.4997 109.467 80.3572 109.61 80.2622 109.705C80.1673 109.8 80.1198 109.847 80.1198 109.847C80.1198 109.847 80.1198 109.752 80.1672 109.657C80.1672 109.61 80.2147 109.515 80.2622 109.42C80.3097 109.325 80.3097 109.23 80.4047 109.135C80.4997 108.945 80.6422 108.66 80.8322 108.47C80.9271 108.375 81.0221 108.233 81.1646 108.138C81.2596 108.043 81.4021 107.9 81.5445 107.853C81.687 107.758 81.8295 107.71 81.972 107.615C82.1145 107.568 82.3044 107.52 82.4469 107.473C82.5894 107.473 82.7793 107.426 82.9218 107.473C83.0643 107.473 83.2068 107.52 83.3018 107.568C83.6817 107.663 83.8717 107.9 83.8717 107.9Z" fill="#C39368"/>
<path d="M44.2154 110.417C44.3104 112.174 43.7405 113.598 42.9331 113.646C42.1732 113.693 41.4608 112.269 41.4134 110.512C41.3184 108.755 41.8883 107.331 42.6957 107.283C43.4555 107.283 44.1679 108.66 44.2154 110.417Z" fill="#673121"/>
<path d="M42.6007 109.182C42.6007 109.705 42.3632 110.132 42.1257 110.132C41.8883 110.132 41.6983 109.705 41.7458 109.135C41.7458 108.613 41.9833 108.185 42.2207 108.185C42.4582 108.185 42.6007 108.66 42.6007 109.182Z" fill="white"/>
<path d="M63.9247 109.087C64.0197 110.844 63.4498 112.269 62.6424 112.316C61.8825 112.364 61.1702 110.939 61.1227 109.182C61.0277 107.425 61.5976 106.001 62.4049 105.953C63.1648 105.953 63.8297 107.33 63.9247 109.087Z" fill="#673121"/>
<path d="M62.2625 107.853C62.2625 108.375 62.0251 108.802 61.7876 108.802C61.5502 108.802 61.4077 108.375 61.4077 107.805C61.4077 107.283 61.6451 106.856 61.8826 106.856C62.1201 106.856 62.2625 107.283 62.2625 107.853Z" fill="white"/>
<path d="M40.8433 115.973C40.8433 116.97 38.8487 117.777 36.4265 117.777C34.0044 117.777 32.0097 116.97 32.0097 115.925C32.0097 114.928 34.0044 114.121 36.4265 114.121C38.8961 114.121 40.8433 114.976 40.8433 115.973Z" fill="#F9CBC0"/>
<path d="M74.1356 114.168C74.1356 115.165 72.1409 115.973 69.7187 115.973C67.2966 115.973 65.3019 115.165 65.3019 114.121C65.3019 113.124 67.2966 112.269 69.7187 112.316C72.1409 112.316 74.1356 113.124 74.1356 114.168Z" fill="#F9CBC0"/>
<path d="M38.8013 97.8821C39.3712 97.8821 39.9411 97.9295 40.5585 97.9295C41.1284 94.6058 42.5532 88.7655 46.0677 85.1094C41.8883 87.5785 39.6562 94.5108 38.8013 97.8821Z" fill="#CC6809"/>
<path d="M52.9541 98.0246C53.049 95.1757 53.524 90.38 55.5661 86.2966C52.2892 89.6203 51.2918 95.4606 51.0069 98.0246C51.6717 98.0246 52.2892 98.0246 52.9541 98.0246Z" fill="#CC6809"/>
<path d="M67.0118 97.36C68.3416 97.265 69.7189 97.1226 71.0487 96.9801C71.0962 94.6535 71.0487 91.0923 70.3838 87.8161C68.959 83.97 67.2018 81.5959 67.2018 81.5959C69.0065 87.1513 67.7242 94.3686 67.0118 97.36Z" fill="#CC6809"/>
<path d="M34.7644 136.865V137.909H71.0962L70.8588 136.722C58.8432 136.675 46.78 136.722 34.7644 136.865Z" fill="#D4D4D4"/>
<path d="M141.552 17.2644C141.593 22.71 140.463 28.317 137.719 33.0768C136.711 34.892 135.541 37.393 133.644 38.4821C131.95 39.4502 130.013 39.4098 128.117 39.4502C121.984 39.5712 115.892 38.9661 109.759 38.5224C108.992 40.2973 107.782 41.8301 106.249 43.4839C103.344 46.5496 99.9548 48.9699 96.1622 50.9061C95.4763 51.2288 94.8307 51.5918 94.1448 51.9145C90.554 53.3667 86.9631 54.8592 83.2916 56.0693C80.9111 56.8357 78.571 57.3198 76.1099 57.6828C75.9082 57.7231 75.7468 57.7635 75.545 57.8038C75.7871 57.6828 76.0695 57.5618 76.3116 57.4004C77.6834 56.7954 79.1359 56.1096 80.3866 55.3029C82.2426 54.4155 84.0582 53.407 85.7931 52.2372C88.4963 50.3817 91.2399 48.1228 92.8134 45.1781C93.6607 43.605 94.4676 41.8301 94.508 39.9746C94.508 39.4905 94.4676 39.0468 94.3466 38.6031C88.577 41.3057 82.8074 43.8873 76.5537 45.4202C73.4874 46.1866 70.0579 45.9849 66.8302 45.1781C61.1413 43.7663 52.4264 23.8395 52.0633 20.5318C51.7405 17.4661 52.6281 14.7635 55.291 13.029C58.317 11.0524 61.7061 9.55995 65.0146 8.18847C76.594 3.38828 88.9805 1.16971 101.448 0.322618C112.987 -0.40346 125.494 -0.322785 136.025 5.1228C137.961 6.09091 140.18 7.2607 140.826 9.51961C141.552 11.9802 141.552 14.6828 141.552 17.2644ZM70.7438 41.9914C69.5737 41.6687 68.5247 41.4671 67.4757 40.7813C66.5881 40.1763 65.6601 38.6434 65.0952 37.756C63.6428 35.3357 62.2306 32.8751 60.8992 30.3339C59.7291 28.1556 58.7205 25.8967 57.6715 23.6781C56.0173 20.1688 54.8068 16.9417 57.5908 13.6341C57.6715 13.513 57.5504 13.3517 57.4294 13.4727C55.6138 15.1669 54.7262 16.7401 54.8875 19.241C55.1296 22.468 57.1873 25.8564 58.5187 28.68C60.1326 32.1087 61.9886 35.3761 64.0059 38.6031C65.6198 41.225 67.4757 42.3545 70.5017 42.5965C70.8245 42.6368 71.0666 42.1125 70.7438 41.9914ZM93.0958 35.5374C86.8421 37.7963 80.8708 40.3779 74.375 42.0318C75.6257 41.9511 76.8361 41.8704 78.0465 41.6687C83.3319 40.4183 88.3349 38.3207 93.0958 35.5374ZM95.678 35.7794C95.6377 35.6988 95.4763 35.7794 95.5166 35.9005C96.727 39.6115 95.2746 43.6453 93.5396 46.953C91.5627 50.6641 87.649 52.8019 84.0178 54.4961C83.8968 54.5768 83.9371 54.7785 84.0985 54.7382C91.1995 52.3179 99.8741 44.0083 95.678 35.7794Z" fill="#47AD5D"/>
<path d="M83.332 27.5106V21.8229L78.9746 13.6344H82.5654L83.9776 16.9824C84.4214 17.9909 84.7038 18.7169 85.0669 19.6447H85.1073C85.43 18.7976 85.7528 17.9909 86.1563 16.9824L87.5684 13.6344H91.0786L86.5194 21.7019V27.4702H83.332V27.5106Z" fill="white"/>
<path d="M100.439 21.6612H95.3553V24.9689H101.044V27.5505H92.1679V13.634H100.721V16.2156H95.315V19.0796H100.399V21.6612H100.439Z" fill="white"/>
<path d="M103.263 24.2831C104.11 24.7268 105.402 25.1302 106.733 25.1302C108.185 25.1302 108.952 24.5251 108.952 23.6377C108.952 22.7906 108.307 22.2662 106.612 21.7015C104.312 20.8947 102.819 19.6039 102.819 17.6274C102.819 15.2474 104.796 13.4323 108.064 13.4323C109.638 13.4323 110.768 13.755 111.615 14.118L110.929 16.6593C110.364 16.3769 109.396 16.0139 108.024 16.0139C106.652 16.0139 106.007 16.6189 106.007 17.345C106.007 18.2324 106.773 18.6358 108.589 19.2812C111.05 20.1686 112.18 21.4595 112.18 23.436C112.18 25.7756 110.405 27.7521 106.572 27.7521C104.998 27.7521 103.425 27.3488 102.658 26.905L103.263 24.2831Z" fill="white"/>
<path d="M113.834 25.8564C113.834 24.7672 114.601 24.0008 115.69 24.0008C116.779 24.0008 117.505 24.7672 117.505 25.8564C117.505 26.9455 116.779 27.7119 115.69 27.7119C114.56 27.7522 113.834 26.9455 113.834 25.8564ZM114.479 22.952L113.995 13.634H117.263L116.82 22.952H114.479Z" fill="white"/>
</svg>
