<svg width="30" height="30" viewBox="0 0 30 30" fill="none" xmlns="http://www.w3.org/2000/svg">
<path d="M27.0158 2.98541C22.2683 -1.76208 14.1327 -0.538507 9.11721 4.47694C1.64975 11.9443 7.4783 16.7126 0.865204 24.5645L5.43671 29.136C13.2888 22.5228 18.0567 28.3516 25.5243 20.8841C30.5738 15.8344 31.7345 7.70407 27.0158 2.98541ZM25.5243 4.47694C26.3096 5.2624 26.8863 6.18757 27.2829 7.19297L23.2869 11.189L18.8122 6.71428L22.8082 2.71829C23.8136 3.11492 24.7388 3.69163 25.5243 4.47694ZM21.7953 12.6805L17.3208 17.1552L12.8461 12.6805L17.3208 8.20596L21.7953 12.6805ZM20.4082 2.13533L17.3207 5.22282L15.0784 2.98056C16.8483 2.25739 18.6856 1.96475 20.4082 2.13533ZM10.6087 5.96862C11.385 5.19216 12.2282 4.53812 13.1062 3.99144L15.8291 6.71428L11.3546 11.189L8.63156 8.46598C9.17817 7.58799 9.83236 6.74494 10.6087 5.96862ZM7.62061 10.4382L9.86294 12.6805L6.77538 15.7681C6.60495 14.0453 6.89745 12.208 7.62061 10.4382ZM7.50024 25.2334L4.76789 22.501C5.20756 21.6623 5.55089 20.7954 5.84796 19.9196C6.31055 20.8104 6.89259 21.6427 7.62567 22.3757C8.35861 23.1087 9.19097 23.6908 10.0818 24.1534C9.20587 24.4503 8.33906 24.7937 7.50024 25.2334ZM9.11721 20.8841C8.33189 20.0987 7.75505 19.1734 7.35841 18.1682L11.3546 14.172L15.8291 18.6467L11.8331 22.6428C10.8277 22.2462 9.90253 21.6694 9.11721 20.8841ZM14.2331 23.2258L17.3207 20.1383L19.563 22.3805C17.7932 23.1037 15.9559 23.3962 14.2331 23.2258ZM24.0327 19.3925C23.2563 20.1688 22.4133 20.823 21.5352 21.3697L18.8122 18.6467L23.2869 14.172L26.0098 16.895C25.4632 17.773 24.809 18.6162 24.0327 19.3925ZM24.7785 12.6805L27.8659 9.59301C28.0365 11.3157 27.7439 13.153 27.0207 14.9228L24.7785 12.6805Z" fill="#5D748A"/>
</svg>
