<svg width="181" height="14" viewBox="0 0 181 14" fill="none" xmlns="http://www.w3.org/2000/svg">
<path d="M13.202 11.83C13.202 12.178 13.076 12.478 12.824 12.73C12.572 12.982 12.266 13.108 11.906 13.108C11.558 13.108 11.258 12.982 11.006 12.73C10.754 12.478 10.628 12.178 10.628 11.83V4.594L7.388 12.64C7.328 12.772 7.232 12.886 7.1 12.982C6.98 13.066 6.836 13.108 6.668 13.108C6.512 13.108 6.374 13.066 6.254 12.982C6.134 12.886 6.044 12.772 5.984 12.64L2.744 4.594V11.848C2.744 12.196 2.618 12.496 2.366 12.748C2.114 12.988 1.808 13.108 1.448 13.108C1.1 13.108 0.8 12.988 0.548 12.748C0.308 12.496 0.188 12.196 0.188 11.848V2.434C0.188 2.038 0.326 1.702 0.602 1.426C0.89 1.138 1.232 0.993999 1.628 0.993999C2.216 0.933999 2.744 0.981999 3.212 1.138C3.68 1.294 4.022 1.636 4.238 2.164L6.686 8.248L9.134 2.164C9.278 1.816 9.506 1.534 9.818 1.318C10.13 1.102 10.484 0.993999 10.88 0.993999C11.168 0.946 11.45 0.94 11.726 0.975999C12.002 1.012 12.248 1.09 12.464 1.21C12.692 1.318 12.872 1.474 13.004 1.678C13.136 1.882 13.202 2.134 13.202 2.434V11.83ZM16.6664 0.651999C17.0504 0.651999 17.3744 0.783999 17.6384 1.048C17.9024 1.3 18.0344 1.618 18.0344 2.002C18.0344 2.386 17.9024 2.71 17.6384 2.974C17.3744 3.238 17.0504 3.37 16.6664 3.37C16.2944 3.37 15.9704 3.238 15.6944 2.974C15.4304 2.71 15.2984 2.386 15.2984 2.002C15.2984 1.618 15.4304 1.3 15.6944 1.048C15.9704 0.783999 16.2944 0.651999 16.6664 0.651999ZM17.8184 11.974C17.8184 12.286 17.7044 12.556 17.4764 12.784C17.2604 13 16.9904 13.108 16.6664 13.108C16.3544 13.108 16.0844 13 15.8564 12.784C15.6404 12.556 15.5324 12.286 15.5324 11.974V5.314C15.5324 5.002 15.6404 4.738 15.8564 4.522C16.0844 4.306 16.3664 4.198 16.7024 4.198C17.0144 4.198 17.2784 4.306 17.4944 4.522C17.7104 4.738 17.8184 5.002 17.8184 5.314V11.974ZM25.2512 5.17C25.2512 5.518 25.1432 5.788 24.9272 5.98C24.7232 6.172 24.4652 6.292 24.1532 6.34C23.8052 6.388 23.4692 6.484 23.1452 6.628C22.8332 6.772 22.5752 6.982 22.3712 7.258V11.974C22.3712 12.286 22.2632 12.556 22.0472 12.784C21.8312 13 21.5672 13.108 21.2552 13.108H21.2192C20.9072 13.108 20.6372 13 20.4092 12.784C20.1932 12.556 20.0852 12.286 20.0852 11.974V5.314C20.0852 5.002 20.1932 4.738 20.4092 4.522C20.6372 4.306 20.9192 4.198 21.2552 4.198C21.5672 4.198 21.8312 4.306 22.0472 4.522C22.2632 4.738 22.3712 5.002 22.3712 5.314V5.494C22.4792 5.35 22.5932 5.206 22.7132 5.062C22.8452 4.906 22.9892 4.768 23.1452 4.648C23.3012 4.528 23.4692 4.432 23.6492 4.36C23.8292 4.276 24.0272 4.234 24.2432 4.234C24.5792 4.234 24.8312 4.324 24.9992 4.504C25.1672 4.684 25.2512 4.906 25.2512 5.17ZM33.3935 11.974C33.3935 12.262 33.2975 12.508 33.1055 12.712C32.9135 12.904 32.6855 13 32.4215 13H27.2195C26.9195 13 26.6555 12.892 26.4275 12.676C26.1995 12.448 26.0855 12.166 26.0855 11.83C26.0855 11.698 26.1035 11.572 26.1395 11.452C26.1875 11.332 26.2535 11.218 26.3375 11.11L30.1175 6.304H27.0755C26.7995 6.304 26.5655 6.208 26.3735 6.016C26.1815 5.812 26.0855 5.566 26.0855 5.278C26.0855 5.014 26.1815 4.786 26.3735 4.594C26.5655 4.402 26.7995 4.306 27.0755 4.306H32.2055C32.4815 4.306 32.7335 4.414 32.9615 4.63C33.1895 4.834 33.3035 5.098 33.3035 5.422C33.3035 5.71 33.2255 5.95 33.0695 6.142L29.2355 11.002H32.4215C32.6855 11.002 32.9135 11.098 33.1055 11.29C33.2975 11.482 33.3935 11.71 33.3935 11.974ZM42.6908 11.974C42.6908 12.286 42.5828 12.556 42.3668 12.784C42.1508 13 41.8868 13.108 41.5748 13.108C41.5748 13.108 41.5448 13.108 41.4848 13.108C41.4248 13.108 41.3948 13.108 41.3948 13.108C41.1188 13.108 40.8848 13.012 40.6928 12.82C40.5008 12.616 40.4048 12.376 40.4048 12.1C40.1048 12.448 39.7148 12.724 39.2348 12.928C38.7548 13.12 38.2268 13.216 37.6508 13.216C37.3028 13.216 36.9488 13.156 36.5888 13.036C36.2288 12.916 35.9048 12.742 35.6168 12.514C35.3288 12.274 35.0888 11.974 34.8968 11.614C34.7168 11.254 34.6268 10.828 34.6268 10.336C34.6268 9.832 34.7168 9.4 34.8968 9.04C35.0888 8.68 35.3288 8.392 35.6168 8.176C35.9048 7.948 36.2288 7.786 36.5888 7.69C36.9488 7.582 37.3028 7.528 37.6508 7.528C38.2268 7.528 38.7548 7.618 39.2348 7.798C39.7268 7.978 40.1168 8.242 40.4048 8.59V7.42C40.4048 6.976 40.2308 6.622 39.8828 6.358C39.5348 6.094 39.0728 5.962 38.4968 5.962C38.1488 5.962 37.8128 6.004 37.4888 6.088C37.1648 6.172 36.8528 6.316 36.5528 6.52C36.4088 6.604 36.2708 6.646 36.1388 6.646C35.9348 6.646 35.7368 6.568 35.5448 6.412C35.3648 6.256 35.2748 6.04 35.2748 5.764C35.2748 5.608 35.3168 5.458 35.4008 5.314C35.5328 5.098 35.7428 4.912 36.0308 4.756C36.3188 4.6 36.6308 4.474 36.9668 4.378C37.3148 4.282 37.6568 4.21 37.9928 4.162C38.3408 4.114 38.6408 4.09 38.8928 4.09C39.3848 4.09 39.8588 4.144 40.3148 4.252C40.7708 4.36 41.1728 4.546 41.5208 4.81C41.8808 5.062 42.1628 5.398 42.3668 5.818C42.5828 6.238 42.6908 6.76 42.6908 7.384V11.974ZM40.4048 10.912V9.832C40.2128 9.58 39.9488 9.394 39.6128 9.274C39.2888 9.142 38.9408 9.076 38.5688 9.076C38.1128 9.076 37.7228 9.19 37.3988 9.418C37.0868 9.646 36.9308 9.97 36.9308 10.39C36.9308 10.798 37.0868 11.116 37.3988 11.344C37.7228 11.56 38.1128 11.668 38.5688 11.668C38.9408 11.668 39.2888 11.608 39.6128 11.488C39.9488 11.356 40.2128 11.164 40.4048 10.912ZM52.4102 11.956C52.4102 12.232 52.3022 12.496 52.0862 12.748C51.8822 12.988 51.6122 13.108 51.2762 13.108C51.0962 13.108 50.9162 13.072 50.7362 13C50.5682 12.916 50.4302 12.79 50.3222 12.622L48.2882 9.652L47.2442 10.768V11.974C47.2442 12.286 47.1302 12.556 46.9022 12.784C46.6862 13 46.4162 13.108 46.0922 13.108C45.7802 13.108 45.5102 13 45.2822 12.784C45.0662 12.556 44.9582 12.286 44.9582 11.974V2.002C44.9582 1.69 45.0662 1.426 45.2822 1.21C45.5102 0.993999 45.7922 0.885999 46.1282 0.885999C46.4402 0.885999 46.7042 0.993999 46.9202 1.21C47.1362 1.426 47.2442 1.69 47.2442 2.002V8.176L50.3222 4.54C50.5262 4.3 50.7842 4.18 51.0962 4.18C51.3842 4.18 51.6362 4.288 51.8522 4.504C52.0682 4.72 52.1762 4.972 52.1762 5.26C52.1762 5.512 52.0922 5.74 51.9242 5.944L49.9082 8.248L52.1942 11.308C52.3382 11.512 52.4102 11.728 52.4102 11.956ZM62.763 11.974C62.763 12.286 62.649 12.556 62.421 12.784C62.205 13 61.935 13.108 61.611 13.108C61.299 13.108 61.029 13 60.801 12.784C60.585 12.556 60.477 12.286 60.477 11.974V7.708C60.477 7.408 60.435 7.156 60.351 6.952C60.279 6.748 60.171 6.586 60.027 6.466C59.895 6.346 59.727 6.262 59.523 6.214C59.331 6.154 59.109 6.124 58.857 6.124C58.641 6.124 58.431 6.154 58.227 6.214C58.035 6.274 57.855 6.352 57.687 6.448C57.519 6.544 57.363 6.652 57.219 6.772C57.087 6.892 56.973 7.018 56.877 7.15V11.974C56.877 12.286 56.763 12.556 56.535 12.784C56.319 13 56.049 13.108 55.725 13.108C55.413 13.108 55.143 13 54.915 12.784C54.699 12.556 54.591 12.286 54.591 11.974V2.002C54.591 1.69 54.699 1.426 54.915 1.21C55.143 0.993999 55.425 0.885999 55.761 0.885999C56.073 0.885999 56.337 0.993999 56.553 1.21C56.769 1.426 56.877 1.69 56.877 2.002V5.44C57.021 5.272 57.189 5.11 57.381 4.954C57.585 4.786 57.819 4.642 58.083 4.522C58.347 4.39 58.629 4.288 58.929 4.216C59.241 4.132 59.577 4.09 59.937 4.09C60.897 4.09 61.605 4.336 62.061 4.828C62.529 5.308 62.763 5.974 62.763 6.826V11.974ZM72.5384 11.974C72.5384 12.286 72.4304 12.556 72.2144 12.784C71.9984 13 71.7344 13.108 71.4224 13.108C71.4224 13.108 71.3924 13.108 71.3324 13.108C71.2724 13.108 71.2424 13.108 71.2424 13.108C70.9664 13.108 70.7324 13.012 70.5404 12.82C70.3484 12.616 70.2524 12.376 70.2524 12.1C69.9524 12.448 69.5624 12.724 69.0824 12.928C68.6024 13.12 68.0744 13.216 67.4984 13.216C67.1504 13.216 66.7964 13.156 66.4364 13.036C66.0764 12.916 65.7524 12.742 65.4644 12.514C65.1764 12.274 64.9364 11.974 64.7444 11.614C64.5644 11.254 64.4744 10.828 64.4744 10.336C64.4744 9.832 64.5644 9.4 64.7444 9.04C64.9364 8.68 65.1764 8.392 65.4644 8.176C65.7524 7.948 66.0764 7.786 66.4364 7.69C66.7964 7.582 67.1504 7.528 67.4984 7.528C68.0744 7.528 68.6024 7.618 69.0824 7.798C69.5744 7.978 69.9644 8.242 70.2524 8.59V7.42C70.2524 6.976 70.0784 6.622 69.7304 6.358C69.3824 6.094 68.9204 5.962 68.3444 5.962C67.9964 5.962 67.6604 6.004 67.3364 6.088C67.0124 6.172 66.7004 6.316 66.4004 6.52C66.2564 6.604 66.1184 6.646 65.9864 6.646C65.7824 6.646 65.5844 6.568 65.3924 6.412C65.2124 6.256 65.1224 6.04 65.1224 5.764C65.1224 5.608 65.1644 5.458 65.2484 5.314C65.3804 5.098 65.5904 4.912 65.8784 4.756C66.1664 4.6 66.4784 4.474 66.8144 4.378C67.1624 4.282 67.5044 4.21 67.8404 4.162C68.1884 4.114 68.4884 4.09 68.7404 4.09C69.2324 4.09 69.7064 4.144 70.1624 4.252C70.6184 4.36 71.0204 4.546 71.3684 4.81C71.7284 5.062 72.0104 5.398 72.2144 5.818C72.4304 6.238 72.5384 6.76 72.5384 7.384V11.974ZM70.2524 10.912V9.832C70.0604 9.58 69.7964 9.394 69.4604 9.274C69.1364 9.142 68.7884 9.076 68.4164 9.076C67.9604 9.076 67.5704 9.19 67.2464 9.418C66.9344 9.646 66.7784 9.97 66.7784 10.39C66.7784 10.798 66.9344 11.116 67.2464 11.344C67.5704 11.56 67.9604 11.668 68.4164 11.668C68.7884 11.668 69.1364 11.608 69.4604 11.488C69.7964 11.356 70.0604 11.164 70.2524 10.912ZM77.0919 11.974C77.0919 12.286 76.9779 12.556 76.7499 12.784C76.5339 13 76.2639 13.108 75.9399 13.108C75.6279 13.108 75.3579 13 75.1299 12.784C74.9139 12.556 74.8059 12.286 74.8059 11.974V2.002C74.8059 1.69 74.9139 1.426 75.1299 1.21C75.3579 0.993999 75.6399 0.885999 75.9759 0.885999C76.2879 0.885999 76.5519 0.993999 76.7679 1.21C76.9839 1.426 77.0919 1.69 77.0919 2.002V11.974ZM80.4926 0.651999C80.8766 0.651999 81.2006 0.783999 81.4646 1.048C81.7286 1.3 81.8606 1.618 81.8606 2.002C81.8606 2.386 81.7286 2.71 81.4646 2.974C81.2006 3.238 80.8766 3.37 80.4926 3.37C80.1206 3.37 79.7966 3.238 79.5206 2.974C79.2566 2.71 79.1246 2.386 79.1246 2.002C79.1246 1.618 79.2566 1.3 79.5206 1.048C79.7966 0.783999 80.1206 0.651999 80.4926 0.651999ZM81.6446 11.974C81.6446 12.286 81.5306 12.556 81.3026 12.784C81.0866 13 80.8166 13.108 80.4926 13.108C80.1806 13.108 79.9106 13 79.6826 12.784C79.4666 12.556 79.3586 12.286 79.3586 11.974V5.314C79.3586 5.002 79.4666 4.738 79.6826 4.522C79.9106 4.306 80.1926 4.198 80.5286 4.198C80.8406 4.198 81.1046 4.306 81.3206 4.522C81.5366 4.738 81.6446 5.002 81.6446 5.314V11.974ZM86.1973 11.974C86.1973 12.286 86.0833 12.556 85.8553 12.784C85.6393 13 85.3693 13.108 85.0453 13.108C84.7333 13.108 84.4633 13 84.2353 12.784C84.0193 12.556 83.9113 12.286 83.9113 11.974V2.002C83.9113 1.69 84.0193 1.426 84.2353 1.21C84.4633 0.993999 84.7453 0.885999 85.0813 0.885999C85.3933 0.885999 85.6573 0.993999 85.8733 1.21C86.0893 1.426 86.1973 1.69 86.1973 2.002V11.974ZM97.1041 8.644C97.1041 9.268 96.9961 9.856 96.7801 10.408C96.5761 10.96 96.2761 11.446 95.8801 11.866C95.4841 12.274 94.9981 12.604 94.4221 12.856C93.8581 13.096 93.2161 13.216 92.4961 13.216C91.7761 13.216 91.1341 13.096 90.5701 12.856C90.0061 12.604 89.5261 12.274 89.1301 11.866C88.7341 11.446 88.4281 10.96 88.2121 10.408C88.0081 9.856 87.9061 9.268 87.9061 8.644C87.9061 8.032 88.0081 7.45 88.2121 6.898C88.4281 6.346 88.7341 5.866 89.1301 5.458C89.5261 5.038 90.0061 4.708 90.5701 4.468C91.1341 4.216 91.7761 4.09 92.4961 4.09C93.2161 4.09 93.8581 4.216 94.4221 4.468C94.9981 4.708 95.4841 5.038 95.8801 5.458C96.2761 5.866 96.5761 6.346 96.7801 6.898C96.9961 7.45 97.1041 8.032 97.1041 8.644ZM94.7281 8.644C94.7281 8.308 94.6741 7.99 94.5661 7.69C94.4701 7.378 94.3261 7.108 94.1341 6.88C93.9541 6.652 93.7261 6.472 93.4501 6.34C93.1741 6.196 92.8561 6.124 92.4961 6.124C92.1361 6.124 91.8181 6.196 91.5421 6.34C91.2781 6.472 91.0501 6.652 90.8581 6.88C90.6661 7.108 90.5221 7.378 90.4261 7.69C90.3301 7.99 90.2821 8.308 90.2821 8.644C90.2821 8.992 90.3301 9.322 90.4261 9.634C90.5221 9.934 90.6661 10.198 90.8581 10.426C91.0501 10.654 91.2781 10.84 91.5421 10.984C91.8181 11.116 92.1361 11.182 92.4961 11.182C92.8561 11.182 93.1741 11.116 93.4501 10.984C93.7261 10.84 93.9541 10.654 94.1341 10.426C94.3261 10.198 94.4701 9.934 94.5661 9.634C94.6741 9.322 94.7281 8.992 94.7281 8.644ZM106.504 5.35C106.504 5.506 106.48 5.638 106.432 5.746L103.894 12.028C103.762 12.352 103.552 12.616 103.264 12.82C102.976 13.012 102.658 13.108 102.31 13.108H102.274C101.926 13.108 101.602 13.012 101.302 12.82C101.014 12.616 100.804 12.352 100.672 12.028L98.134 5.746C98.074 5.602 98.044 5.464 98.044 5.332C98.044 5.056 98.152 4.804 98.368 4.576C98.584 4.336 98.866 4.216 99.214 4.216C99.442 4.216 99.646 4.282 99.826 4.414C100.018 4.534 100.156 4.702 100.24 4.918L102.274 10.354L104.308 4.936C104.392 4.708 104.53 4.534 104.722 4.414C104.914 4.282 105.124 4.216 105.352 4.216C105.7 4.216 105.976 4.336 106.18 4.576C106.396 4.804 106.504 5.062 106.504 5.35ZM115.535 11.974C115.535 12.286 115.427 12.556 115.211 12.784C114.995 13 114.731 13.108 114.419 13.108C114.419 13.108 114.389 13.108 114.329 13.108C114.269 13.108 114.239 13.108 114.239 13.108C113.963 13.108 113.729 13.012 113.537 12.82C113.345 12.616 113.249 12.376 113.249 12.1C112.949 12.448 112.559 12.724 112.079 12.928C111.599 13.12 111.071 13.216 110.495 13.216C110.147 13.216 109.793 13.156 109.433 13.036C109.073 12.916 108.749 12.742 108.461 12.514C108.173 12.274 107.933 11.974 107.741 11.614C107.561 11.254 107.471 10.828 107.471 10.336C107.471 9.832 107.561 9.4 107.741 9.04C107.933 8.68 108.173 8.392 108.461 8.176C108.749 7.948 109.073 7.786 109.433 7.69C109.793 7.582 110.147 7.528 110.495 7.528C111.071 7.528 111.599 7.618 112.079 7.798C112.571 7.978 112.961 8.242 113.249 8.59V7.42C113.249 6.976 113.075 6.622 112.727 6.358C112.379 6.094 111.917 5.962 111.341 5.962C110.993 5.962 110.657 6.004 110.333 6.088C110.009 6.172 109.697 6.316 109.397 6.52C109.253 6.604 109.115 6.646 108.983 6.646C108.779 6.646 108.581 6.568 108.389 6.412C108.209 6.256 108.119 6.04 108.119 5.764C108.119 5.608 108.161 5.458 108.245 5.314C108.377 5.098 108.587 4.912 108.875 4.756C109.163 4.6 109.475 4.474 109.811 4.378C110.159 4.282 110.501 4.21 110.837 4.162C111.185 4.114 111.485 4.09 111.737 4.09C112.229 4.09 112.703 4.144 113.159 4.252C113.615 4.36 114.017 4.546 114.365 4.81C114.725 5.062 115.007 5.398 115.211 5.818C115.427 6.238 115.535 6.76 115.535 7.384V11.974ZM113.249 10.912V9.832C113.057 9.58 112.793 9.394 112.457 9.274C112.133 9.142 111.785 9.076 111.413 9.076C110.957 9.076 110.567 9.19 110.243 9.418C109.931 9.646 109.775 9.97 109.775 10.39C109.775 10.798 109.931 11.116 110.243 11.344C110.567 11.56 110.957 11.668 111.413 11.668C111.785 11.668 112.133 11.608 112.457 11.488C112.793 11.356 113.057 11.164 113.249 10.912ZM135.475 11.83C135.475 12.178 135.349 12.478 135.097 12.73C134.845 12.982 134.539 13.108 134.179 13.108C133.831 13.108 133.531 12.982 133.279 12.73C133.027 12.478 132.901 12.178 132.901 11.83V4.594L129.661 12.64C129.601 12.772 129.505 12.886 129.373 12.982C129.253 13.066 129.109 13.108 128.941 13.108C128.785 13.108 128.647 13.066 128.527 12.982C128.407 12.886 128.317 12.772 128.257 12.64L125.017 4.594V11.848C125.017 12.196 124.891 12.496 124.639 12.748C124.387 12.988 124.081 13.108 123.721 13.108C123.373 13.108 123.073 12.988 122.821 12.748C122.581 12.496 122.461 12.196 122.461 11.848V2.434C122.461 2.038 122.599 1.702 122.875 1.426C123.163 1.138 123.505 0.993999 123.901 0.993999C124.489 0.933999 125.017 0.981999 125.485 1.138C125.953 1.294 126.295 1.636 126.511 2.164L128.959 8.248L131.407 2.164C131.551 1.816 131.779 1.534 132.091 1.318C132.403 1.102 132.757 0.993999 133.153 0.993999C133.441 0.946 133.723 0.94 133.999 0.975999C134.275 1.012 134.521 1.09 134.737 1.21C134.965 1.318 135.145 1.474 135.277 1.678C135.409 1.882 135.475 2.134 135.475 2.434V11.83ZM145.312 11.974C145.312 12.286 145.204 12.556 144.988 12.784C144.772 13 144.508 13.108 144.196 13.108C144.196 13.108 144.166 13.108 144.106 13.108C144.046 13.108 144.016 13.108 144.016 13.108C143.74 13.108 143.506 13.012 143.314 12.82C143.122 12.616 143.026 12.376 143.026 12.1C142.726 12.448 142.336 12.724 141.856 12.928C141.376 13.12 140.848 13.216 140.272 13.216C139.924 13.216 139.57 13.156 139.21 13.036C138.85 12.916 138.526 12.742 138.238 12.514C137.95 12.274 137.71 11.974 137.518 11.614C137.338 11.254 137.248 10.828 137.248 10.336C137.248 9.832 137.338 9.4 137.518 9.04C137.71 8.68 137.95 8.392 138.238 8.176C138.526 7.948 138.85 7.786 139.21 7.69C139.57 7.582 139.924 7.528 140.272 7.528C140.848 7.528 141.376 7.618 141.856 7.798C142.348 7.978 142.738 8.242 143.026 8.59V7.42C143.026 6.976 142.852 6.622 142.504 6.358C142.156 6.094 141.694 5.962 141.118 5.962C140.77 5.962 140.434 6.004 140.11 6.088C139.786 6.172 139.474 6.316 139.174 6.52C139.03 6.604 138.892 6.646 138.76 6.646C138.556 6.646 138.358 6.568 138.166 6.412C137.986 6.256 137.896 6.04 137.896 5.764C137.896 5.608 137.938 5.458 138.022 5.314C138.154 5.098 138.364 4.912 138.652 4.756C138.94 4.6 139.252 4.474 139.588 4.378C139.936 4.282 140.278 4.21 140.614 4.162C140.962 4.114 141.262 4.09 141.514 4.09C142.006 4.09 142.48 4.144 142.936 4.252C143.392 4.36 143.794 4.546 144.142 4.81C144.502 5.062 144.784 5.398 144.988 5.818C145.204 6.238 145.312 6.76 145.312 7.384V11.974ZM143.026 10.912V9.832C142.834 9.58 142.57 9.394 142.234 9.274C141.91 9.142 141.562 9.076 141.19 9.076C140.734 9.076 140.344 9.19 140.02 9.418C139.708 9.646 139.552 9.97 139.552 10.39C139.552 10.798 139.708 11.116 140.02 11.344C140.344 11.56 140.734 11.668 141.19 11.668C141.562 11.668 141.91 11.608 142.234 11.488C142.57 11.356 142.834 11.164 143.026 10.912ZM155.859 11.974C155.859 12.286 155.745 12.556 155.517 12.784C155.301 13 155.025 13.108 154.689 13.108C154.377 13.108 154.107 13 153.879 12.784C153.663 12.556 153.555 12.286 153.555 11.974V11.884C153.207 12.316 152.805 12.646 152.349 12.874C151.893 13.102 151.401 13.216 150.873 13.216C150.321 13.216 149.811 13.114 149.343 12.91C148.875 12.706 148.467 12.412 148.119 12.028C147.783 11.644 147.513 11.17 147.309 10.606C147.117 10.03 147.021 9.382 147.021 8.662C147.021 7.954 147.117 7.318 147.309 6.754C147.501 6.19 147.765 5.71 148.101 5.314C148.449 4.918 148.857 4.618 149.325 4.414C149.805 4.198 150.321 4.09 150.873 4.09C151.389 4.09 151.875 4.204 152.331 4.432C152.799 4.648 153.207 4.978 153.555 5.422V2.02C153.555 1.708 153.663 1.444 153.879 1.228C154.107 0.999999 154.389 0.885999 154.725 0.885999C155.037 0.885999 155.301 0.999999 155.517 1.228C155.745 1.444 155.859 1.708 155.859 2.02V11.974ZM153.555 10.192V7.114C153.363 6.826 153.081 6.592 152.709 6.412C152.337 6.22 151.959 6.124 151.575 6.124C151.251 6.124 150.951 6.184 150.675 6.304C150.411 6.424 150.183 6.598 149.991 6.826C149.799 7.054 149.649 7.324 149.541 7.636C149.433 7.948 149.379 8.29 149.379 8.662C149.379 9.034 149.433 9.376 149.541 9.688C149.649 10 149.799 10.27 149.991 10.498C150.183 10.714 150.411 10.882 150.675 11.002C150.951 11.122 151.251 11.182 151.575 11.182C151.959 11.182 152.337 11.092 152.709 10.912C153.081 10.72 153.363 10.48 153.555 10.192ZM159.26 0.651999C159.644 0.651999 159.968 0.783999 160.232 1.048C160.496 1.3 160.628 1.618 160.628 2.002C160.628 2.386 160.496 2.71 160.232 2.974C159.968 3.238 159.644 3.37 159.26 3.37C158.888 3.37 158.564 3.238 158.288 2.974C158.024 2.71 157.892 2.386 157.892 2.002C157.892 1.618 158.024 1.3 158.288 1.048C158.564 0.783999 158.888 0.651999 159.26 0.651999ZM160.412 11.974C160.412 12.286 160.298 12.556 160.07 12.784C159.854 13 159.584 13.108 159.26 13.108C158.948 13.108 158.678 13 158.45 12.784C158.234 12.556 158.126 12.286 158.126 11.974V5.314C158.126 5.002 158.234 4.738 158.45 4.522C158.678 4.306 158.96 4.198 159.296 4.198C159.608 4.198 159.872 4.306 160.088 4.522C160.304 4.738 160.412 5.002 160.412 5.314V11.974ZM170.833 11.974C170.833 12.286 170.719 12.556 170.491 12.784C170.275 13 170.005 13.108 169.681 13.108C169.369 13.108 169.099 13 168.871 12.784C168.655 12.556 168.547 12.286 168.547 11.974V7.744C168.547 7.132 168.403 6.712 168.115 6.484C167.827 6.244 167.437 6.124 166.945 6.124C166.717 6.124 166.501 6.154 166.297 6.214C166.105 6.274 165.925 6.352 165.757 6.448C165.589 6.544 165.439 6.652 165.307 6.772C165.175 6.892 165.061 7.018 164.965 7.15V11.974C164.965 12.286 164.851 12.556 164.623 12.784C164.407 13 164.137 13.108 163.813 13.108C163.501 13.108 163.231 13 163.003 12.784C162.787 12.556 162.679 12.286 162.679 11.974V5.314C162.679 5.002 162.787 4.738 163.003 4.522C163.231 4.306 163.513 4.198 163.849 4.198C164.161 4.198 164.425 4.306 164.641 4.522C164.857 4.738 164.965 5.002 164.965 5.314V5.44C165.109 5.272 165.277 5.11 165.469 4.954C165.673 4.786 165.901 4.642 166.153 4.522C166.417 4.39 166.699 4.288 166.999 4.216C167.311 4.132 167.647 4.09 168.007 4.09C168.967 4.09 169.675 4.342 170.131 4.846C170.599 5.338 170.833 6.01 170.833 6.862V11.974ZM180.609 11.974C180.609 12.286 180.501 12.556 180.285 12.784C180.069 13 179.805 13.108 179.493 13.108C179.493 13.108 179.463 13.108 179.403 13.108C179.343 13.108 179.313 13.108 179.313 13.108C179.037 13.108 178.803 13.012 178.611 12.82C178.419 12.616 178.323 12.376 178.323 12.1C178.023 12.448 177.633 12.724 177.153 12.928C176.673 13.12 176.145 13.216 175.569 13.216C175.221 13.216 174.867 13.156 174.507 13.036C174.147 12.916 173.823 12.742 173.535 12.514C173.247 12.274 173.007 11.974 172.815 11.614C172.635 11.254 172.545 10.828 172.545 10.336C172.545 9.832 172.635 9.4 172.815 9.04C173.007 8.68 173.247 8.392 173.535 8.176C173.823 7.948 174.147 7.786 174.507 7.69C174.867 7.582 175.221 7.528 175.569 7.528C176.145 7.528 176.673 7.618 177.153 7.798C177.645 7.978 178.035 8.242 178.323 8.59V7.42C178.323 6.976 178.149 6.622 177.801 6.358C177.453 6.094 176.991 5.962 176.415 5.962C176.067 5.962 175.731 6.004 175.407 6.088C175.083 6.172 174.771 6.316 174.471 6.52C174.327 6.604 174.189 6.646 174.057 6.646C173.853 6.646 173.655 6.568 173.463 6.412C173.283 6.256 173.193 6.04 173.193 5.764C173.193 5.608 173.235 5.458 173.319 5.314C173.451 5.098 173.661 4.912 173.949 4.756C174.237 4.6 174.549 4.474 174.885 4.378C175.233 4.282 175.575 4.21 175.911 4.162C176.259 4.114 176.559 4.09 176.811 4.09C177.303 4.09 177.777 4.144 178.233 4.252C178.689 4.36 179.091 4.546 179.439 4.81C179.799 5.062 180.081 5.398 180.285 5.818C180.501 6.238 180.609 6.76 180.609 7.384V11.974ZM178.323 10.912V9.832C178.131 9.58 177.867 9.394 177.531 9.274C177.207 9.142 176.859 9.076 176.487 9.076C176.031 9.076 175.641 9.19 175.317 9.418C175.005 9.646 174.849 9.97 174.849 10.39C174.849 10.798 175.005 11.116 175.317 11.344C175.641 11.56 176.031 11.668 176.487 11.668C176.859 11.668 177.207 11.608 177.531 11.488C177.867 11.356 178.131 11.164 178.323 10.912Z" fill="#16233C"/>
</svg>
