<svg width="347" height="248" viewBox="0 0 347 248" fill="none" xmlns="http://www.w3.org/2000/svg">
<g filter="url(#filter0_d)">
<path fill-rule="evenodd" clip-rule="evenodd" d="M13.2978 165.246C14.0332 165.378 14.4744 167.982 14.6656 169.496C15.0194 170.15 15.2864 170.847 15.4598 171.57C15.4915 171.775 15.4915 171.983 15.4598 172.188C20.6377 174.185 25.9323 175.864 31.3143 177.218C36.9382 178.635 42.8151 178.721 48.4779 177.468C50.8163 178.012 50.1104 185.101 49.1691 185.292C46.4482 185.954 37.7856 185.469 29.5495 182.483C23.9848 180.439 18.6588 177.795 13.6655 174.6C13.4459 174.63 13.2232 174.63 13.0036 174.6C11.6097 174.33 10.2489 173.91 8.94441 173.35C5.57642 173.203 4.53219 173.011 4.53219 172.6C4.39983 171.776 6.75301 172.158 8.38553 172.011C8.73851 172.011 8.76792 171.791 8.63556 171.732C7.01774 170.688 3.63504 169.776 4.03214 168.952C4.75281 168.026 9.07678 170.732 9.01795 170.173C9.48858 169.908 4.10568 166.908 4.78222 165.908C5.45876 164.908 10.2828 169.717 10.5622 169.276C10.8417 168.835 7.5325 165.143 8.38553 164.761C9.23856 164.378 10.6946 167.143 12.1212 168.717C12.1947 168.717 12.5183 169.349 13.0184 169.143C12.7683 167.452 12.7242 165.114 13.386 165.217L13.2978 165.246Z" fill="#FBD6A0"/>
<path fill-rule="evenodd" clip-rule="evenodd" d="M13.6655 174.6C18.6868 177.801 24.0426 180.444 29.6377 182.483C34.6599 184.285 39.926 185.316 45.257 185.542C46.0071 185.542 46.7277 185.542 47.3013 185.542C46.1835 180.747 45.6394 178.012 45.6394 178.012L45.4629 179.688C45.4326 181.033 45.6163 182.373 46.0071 183.659C45.3898 183.691 44.7712 183.691 44.1539 183.659C39.9463 183.541 35.7685 182.914 31.7115 181.792C25.9293 180.221 20.3878 177.87 15.2392 174.806C15.0186 174.541 15.2392 173.57 15.2392 173.57C14.4054 173.82 13.534 173.919 12.6654 173.864C11.6144 173.805 10.5986 173.465 9.72393 172.879C8.9038 172.907 8.08271 172.873 7.2678 172.776C6.45889 172.688 5.39996 172.585 4.51752 172.467C4.50295 172.51 4.50295 172.557 4.51752 172.6C4.51752 173.011 5.62057 173.203 8.92974 173.35C10.2342 173.91 11.5951 174.329 12.989 174.6C13.2134 174.631 13.4411 174.631 13.6655 174.6Z" fill="#F5CA8C"/>
<path fill-rule="evenodd" clip-rule="evenodd" d="M41.6095 150.377C43.6097 174.026 57.0522 192.204 46.757 212.677C104.792 208.721 98.8212 134.728 84.2903 122.256C76.2012 115.329 67.7445 115.755 61.5527 117.359C46.9188 121.124 39.5357 126.801 41.6095 150.377Z" fill="#763A20"/>
<path fill-rule="evenodd" clip-rule="evenodd" d="M325.683 93.5474L330.904 115.888L338.11 160.142C338.11 160.142 342.655 172.497 342.655 173.82C341.967 176.973 340.689 179.967 338.89 182.645C337.61 183.924 335.728 185.704 334.963 184.689C334.198 183.674 336.728 181.292 336.772 180.703C336.816 180.115 337.507 177.6 337.596 177.115C337.326 175.532 336.968 173.966 336.522 172.423C335.551 171.217 334.742 170.791 333.845 172.35C333.845 172.35 332.83 178.115 331.654 178.232C330.477 178.35 331.095 171.805 331.507 169.57C331.918 167.334 332.477 166.275 332.477 165.864C332.477 165.452 332.389 163.407 332.33 161.701L320.373 117.064L314.49 96.4741L325.683 93.5474Z" fill="#FBD6A0"/>
<path fill-rule="evenodd" clip-rule="evenodd" d="M331.463 178.071C330.566 177.424 331.125 171.57 331.463 169.467C331.801 167.364 332.434 166.172 332.434 165.761C332.434 165.349 332.345 163.305 332.287 161.598L320.329 116.962L316.991 105.431L325.918 104.622L321.506 109.711L334.86 161.187C334.86 161.187 332.845 167.584 331.919 171.879C331.516 173.917 331.363 175.996 331.463 178.071Z" fill="#E8BD80"/>
<path fill-rule="evenodd" clip-rule="evenodd" d="M200.817 163.055C203.038 189.954 194.36 226.605 194.36 226.605C191.845 231.738 191.639 256.02 189.375 281.17C186.897 281.688 184.375 281.969 181.844 282.008C181.227 271.242 176.388 244.666 179.168 226.12C178.447 221.502 177.403 165.04 177.403 165.04L200.817 163.055Z" fill="#FBD6A0"/>
<path fill-rule="evenodd" clip-rule="evenodd" d="M201.994 26.2317C212.671 50.2489 195.934 96.2536 190.801 94.3857L177.947 89.7235L179.418 39.233L201.994 26.2317Z" fill="#763A20"/>
<path fill-rule="evenodd" clip-rule="evenodd" d="M148.312 42.2921C148.312 56.6024 150.429 73.1776 160.386 89.3558L177.947 89.7382L178.491 21.7018C172.505 25.7904 148.282 35.1443 148.312 42.2921Z" fill="#763A20"/>
<path fill-rule="evenodd" clip-rule="evenodd" d="M164.872 164.143C163.578 165.805 155.886 159.628 155.886 159.628C151.915 171.967 156.224 200.529 156.651 225.237C156.651 225.237 157.165 278.096 158.121 280.669C160.327 280.669 165.578 280.802 165.578 280.802C167.416 262.594 171.549 246.328 171.079 226.178L178.535 162.113L164.872 164.143Z" fill="#FBD6A0"/>
<path fill-rule="evenodd" clip-rule="evenodd" d="M201.597 90.2383C202.567 89.1794 205.773 84.3553 205.773 84.3553L215.789 100.004C215.789 100.004 207.965 115.388 207.73 114.873C207.494 114.358 198.743 103.784 198.743 103.784L201.597 90.2383Z" fill="#AE4283"/>
<path fill-rule="evenodd" clip-rule="evenodd" d="M154.136 150.862C148.826 165.805 151.709 175.644 155.415 224.855L196.037 224.075C202.288 196.676 205.258 171.997 201.096 153.892L154.136 150.862Z" fill="#231916" stroke="#231916" stroke-width="0.22" stroke-miterlimit="22.93"/>
<path fill-rule="evenodd" clip-rule="evenodd" d="M181.477 81.8109C176.461 81.9139 164.872 82.4286 164.872 82.4286L150.165 84.1053C150.827 100.151 149.679 99.5774 156.312 120.653C159.651 137.155 151.518 138.728 150.9 158.892C165.166 160.79 182.286 162.878 203.097 159.554C204.097 141.023 197.39 138.611 200.155 120.344C201.935 108.578 205.714 84.3553 205.714 84.3553L194.081 82.4286L181.477 81.8109Z" fill="#AE4283"/>
<path fill-rule="evenodd" clip-rule="evenodd" d="M173.976 70.7362C174.476 79.9577 169.784 81.0314 164.843 82.5021C165.74 85.4436 174.123 87.1791 179.477 86.7379C184.815 87.1791 193.198 85.3701 194.184 82.5021C189.242 81.1196 183.065 80.2078 183.58 71.0009L178.065 70.9274L173.976 70.7362Z" fill="#FBD6A0"/>
<path d="M178.491 73.5894C191.414 73.5894 201.891 61.974 201.891 47.6456C201.891 33.3172 191.414 21.7018 178.491 21.7018C165.568 21.7018 155.092 33.3172 155.092 47.6456C155.092 61.974 165.568 73.5894 178.491 73.5894Z" fill="#FBD6A0"/>
<path fill-rule="evenodd" clip-rule="evenodd" d="M169.564 48.881C170.092 48.8752 170.607 48.7133 171.043 48.4157C171.479 48.1181 171.818 47.698 172.016 47.2084C172.214 46.7188 172.263 46.1816 172.156 45.6643C172.05 45.147 171.792 44.6728 171.417 44.3014C171.041 43.93 170.564 43.678 170.046 43.577C169.527 43.4761 168.991 43.5308 168.503 43.7342C168.016 43.9377 167.6 44.2807 167.307 44.7203C167.014 45.1598 166.858 45.6761 166.858 46.2043C166.86 46.5577 166.931 46.9073 167.068 47.2332C167.205 47.559 167.405 47.8546 167.656 48.1031C167.908 48.3517 168.205 48.5483 168.533 48.6818C168.86 48.8153 169.21 48.883 169.564 48.881Z" fill="#3E3A39"/>
<path fill-rule="evenodd" clip-rule="evenodd" d="M168.328 46.1161C168.491 46.1161 168.651 46.0678 168.786 45.9773C168.921 45.8868 169.027 45.7582 169.089 45.6077C169.152 45.4572 169.168 45.2916 169.136 45.1318C169.104 44.972 169.026 44.8253 168.911 44.7101C168.796 44.5949 168.649 44.5165 168.489 44.4847C168.329 44.4529 168.164 44.4692 168.013 44.5316C167.863 44.5939 167.734 44.6995 167.644 44.8349C167.553 44.9704 167.505 45.1296 167.505 45.2925C167.505 45.5109 167.592 45.7204 167.746 45.8749C167.9 46.0293 168.11 46.1161 168.328 46.1161Z" fill="#EEEEEF"/>
<path fill-rule="evenodd" clip-rule="evenodd" d="M172.093 42.101C169.803 41.715 167.459 41.785 165.196 42.3069C162.74 43.1011 161.607 41.8951 164.725 40.6596C167.09 39.8409 169.635 39.6933 172.079 40.2331C173.52 40.6449 173.579 42.4539 172.093 42.101Z" fill="#763A20"/>
<path fill-rule="evenodd" clip-rule="evenodd" d="M171.799 60.8235C171.946 63.9709 175.285 66.5005 179.388 66.5005C183.492 66.5005 186.845 63.9709 186.992 60.8235H171.799Z" fill="#4F2211"/>
<path fill-rule="evenodd" clip-rule="evenodd" d="M173.329 60.8235H185.462V62.2942C185.462 62.4464 185.402 62.5922 185.294 62.6998C185.187 62.8074 185.041 62.8678 184.889 62.8678H173.976C173.9 62.8698 173.825 62.8564 173.754 62.8283C173.684 62.8002 173.62 62.758 173.566 62.7043C173.512 62.6507 173.47 62.5866 173.442 62.5161C173.414 62.4456 173.4 62.3701 173.402 62.2942L173.329 60.8235Z" fill="white"/>
<path fill-rule="evenodd" clip-rule="evenodd" d="M176.344 54.9404C176.344 55.9111 177.668 56.6759 179.212 56.6759C180.756 56.6759 182.036 55.9111 182.153 54.9404H176.344Z" fill="#DF9C72"/>
<path fill-rule="evenodd" clip-rule="evenodd" d="M185.301 16.8777C169.887 30.2909 159.548 52.4696 149.268 57.4407C136.987 26.9964 160.96 6.31784 185.301 16.8777Z" fill="#763A20"/>
<path fill-rule="evenodd" clip-rule="evenodd" d="M167.681 27.217C160.166 37.6299 154.312 39.1594 157.386 73.3247C145.62 56.2641 145.091 34.306 169.402 22.7754L167.681 27.217Z" fill="#763A20"/>
<path fill-rule="evenodd" clip-rule="evenodd" d="M173.388 16.8777C151.165 36.5709 195.728 27.2906 204.273 45.4983C207.171 35.9238 203.494 9.56816 173.388 16.8777Z" fill="#763A20"/>
<path fill-rule="evenodd" clip-rule="evenodd" d="M210.068 90.7383C207.95 88.7823 197.817 96.5036 201.405 103.975C204.994 111.446 216.113 133.228 221.172 138.64C231.335 149.793 242.528 159.962 254.602 169.011L255.528 163.422C255.528 163.422 229.32 131.948 228.717 130.801C224.849 123.374 212.48 93.7239 210.068 90.7383Z" fill="#FBD6A0"/>
<path fill-rule="evenodd" clip-rule="evenodd" d="M188.801 49.0577C189.329 49.0519 189.844 48.89 190.28 48.5923C190.716 48.2947 191.055 47.8746 191.253 47.3851C191.451 46.8955 191.5 46.3582 191.393 45.8409C191.287 45.3236 191.029 44.8494 190.654 44.478C190.278 44.1066 189.801 43.8546 189.283 43.7537C188.765 43.6527 188.228 43.7074 187.741 43.9109C187.253 44.1143 186.837 44.4574 186.544 44.8969C186.251 45.3364 186.095 45.8528 186.095 46.3809C186.097 46.7344 186.168 47.084 186.305 47.4098C186.442 47.7356 186.642 48.0312 186.894 48.2798C187.145 48.5283 187.443 48.725 187.77 48.8584C188.097 48.9919 188.448 49.0596 188.801 49.0577Z" fill="#3E3A39"/>
<path fill-rule="evenodd" clip-rule="evenodd" d="M187.551 46.2631C187.713 46.2602 187.871 46.2094 188.004 46.1172C188.138 46.0249 188.241 45.8953 188.301 45.7446C188.361 45.5938 188.375 45.4287 188.342 45.2699C188.309 45.1112 188.229 44.9658 188.113 44.8521C187.997 44.7384 187.851 44.6614 187.691 44.6308C187.532 44.6001 187.367 44.6173 187.218 44.68C187.068 44.7428 186.94 44.8483 186.85 44.9834C186.76 45.1185 186.712 45.2772 186.712 45.4395C186.712 45.5489 186.734 45.6572 186.776 45.7581C186.819 45.859 186.881 45.9504 186.959 46.0271C187.037 46.1038 187.129 46.1641 187.231 46.2046C187.333 46.2452 187.441 46.265 187.551 46.2631Z" fill="#EEEEEF"/>
<path fill-rule="evenodd" clip-rule="evenodd" d="M184.874 41.7038C187.518 41.2086 190.234 41.2536 192.86 41.8362C195.728 42.7334 197.022 41.3215 193.39 39.9243C190.654 39.0266 187.726 38.8893 184.918 39.5272C183.212 40.0566 183.153 42.1451 184.874 41.7038Z" fill="#763A20"/>
<path fill-rule="evenodd" clip-rule="evenodd" d="M200.361 67.5005C206.391 54.4698 209.097 25.2315 188.301 18.1278C190.242 23.7019 200.964 28.4671 200.361 67.5005Z" fill="#763A20"/>
<path fill-rule="evenodd" clip-rule="evenodd" d="M252.616 92.8268L247.41 115.167L239.336 160.025L245.513 162.599L257.941 116.241L263.868 95.68L252.616 92.8268Z" fill="#FBD6A0"/>
<path fill-rule="evenodd" clip-rule="evenodd" d="M247.792 154.098L257.926 116.241L260.75 106.519L254.455 105.166L256.028 108.108C255.014 112.064 245.16 150.936 245.16 150.936L247.792 154.098Z" fill="#E8BD80"/>
<path fill-rule="evenodd" clip-rule="evenodd" d="M265.471 157.113C264.618 160.937 265.206 203.956 265.588 210.324C265.897 215.428 266.647 251.27 266.441 266.33C266.441 266.33 264.706 277.449 264.735 277.449L280.178 280.743C281.546 248.696 286.635 175.365 286.84 177.071C287.046 178.777 293.974 213.501 294.194 215.634C294.415 217.766 300.195 280.758 300.195 280.758C300.195 280.758 316.005 278.581 315.932 277.522C315.932 277.272 312.99 266.609 312.99 266.609C311.887 250.784 311.122 217.163 311.137 215.31C311.137 212.913 310.813 154.23 310.813 154.23L286.62 158.54L265.471 157.113Z" fill="#231916"/>
<path fill-rule="evenodd" clip-rule="evenodd" d="M274.78 68.795L261.75 71.4864C259.838 70.9569 257.264 73.0601 257.264 73.0601L248.116 103.799L261.441 106.74L262.911 101.96C264.336 122.941 264.665 143.981 263.897 164.996C272.633 169.143 302.901 167.452 310.858 164.202C311.99 137.552 313.373 116.388 314.681 100.107L317.52 109.608L329.021 102.946L321.05 73.7808C319.905 72.8249 318.492 72.2492 317.005 72.1335C312.505 70.8834 307.666 69.1921 303.769 68.3684C294.253 66.1329 286.752 66.3094 274.78 68.795Z" fill="#57B44B"/>
<path fill-rule="evenodd" clip-rule="evenodd" d="M282.016 57.5878C282.531 67.074 279.325 68.0888 274.236 69.5302C275.163 72.4716 283.796 74.3395 289.296 73.9424C294.797 74.3983 303.416 72.4716 304.357 69.5302C299.268 68.0594 295.679 67.074 296.209 57.5878L289.296 57.8084L282.016 57.5878Z" fill="#F1BD83"/>
<path fill-rule="evenodd" clip-rule="evenodd" d="M193.64 97.445C196.092 97.445 198.489 98.1721 200.528 99.5344C202.567 100.897 204.156 102.833 205.094 105.099C206.033 107.364 206.278 109.857 205.8 112.262C205.321 114.667 204.141 116.876 202.407 118.61C200.673 120.344 198.464 121.525 196.059 122.003C193.654 122.482 191.161 122.236 188.895 121.298C186.63 120.359 184.693 118.77 183.331 116.731C181.969 114.693 181.241 112.295 181.241 109.843C181.24 108.215 181.559 106.601 182.181 105.096C182.804 103.591 183.717 102.224 184.869 101.072C186.02 99.9203 187.388 99.0072 188.893 98.3848C190.398 97.7624 192.011 97.443 193.64 97.445Z" fill="#AE4283"/>
<path fill-rule="evenodd" clip-rule="evenodd" d="M146.517 89.5029C150.768 84.0318 160.931 91.9591 157.342 99.4157C153.753 106.872 140.355 123.168 137.943 130.11C136.119 135.405 133.295 158.054 130.78 168.349C127.707 169.82 123.53 166.54 123.206 164.672C123.206 164.672 127.456 134.346 129.618 127.904C132.266 119.991 139.87 98.6656 146.517 89.5029Z" fill="#FBD6A0"/>
<path fill-rule="evenodd" clip-rule="evenodd" d="M118.22 179.586C114.705 182.174 110.602 184.336 105.807 187.528C100.483 178.365 94.6738 175.041 94.6738 175.041C91.9676 174.541 86.9083 178.674 87.7907 179.321C90.3645 181.262 99.5566 192.411 104.954 193.925C111.028 193.131 118.809 185.822 121.941 182.571C121.103 181.13 119.176 181.233 118.22 179.586Z" fill="#FBD6A0"/>
<path fill-rule="evenodd" clip-rule="evenodd" d="M119.206 168.761C118.279 169.173 118.5 178.144 117.941 180.218C119.706 180.924 120.191 182.204 121.735 182.821C123.206 181.012 126.148 179.88 126.912 177.424C129.501 176.718 131.736 175.865 131.325 174.982C130.913 174.1 128.28 175.644 126.427 175.938C126.103 175.085 131.839 171.644 130.663 170.688C129.927 170.099 126.471 173.188 125.28 173.732C125.103 173.364 129.883 167.981 128.913 167.54C127.942 167.099 124.824 171.232 123.677 172.585C123.868 170.599 124.971 166.893 124.177 166.923C123.383 166.952 122.118 170.452 121.618 172.291C121.618 172.379 121.132 174.262 120.515 174.188C120.323 172.232 119.941 168.452 119.235 168.746L119.206 168.761Z" fill="url(#paint0_linear)"/>
<path fill-rule="evenodd" clip-rule="evenodd" d="M223.849 236.474C223.216 241.827 220.451 274.992 221.363 275.183C222.275 275.375 230.864 276.566 230.864 276.566C230.864 276.566 236.571 252.24 237.027 254.902C237.482 257.564 241.086 276.022 241.733 276.389C242.38 276.757 251.028 276.566 251.028 275.728C251.028 274.889 249.19 239.886 249.19 239.886L223.849 236.474Z" fill="#2E2E35"/>
<path fill-rule="evenodd" clip-rule="evenodd" d="M222.201 201.014C219.613 199.632 206.744 196.117 206.744 196.117C206.303 194.47 200.184 188.41 196.449 185.174C196.916 183.751 197.139 182.26 197.111 180.762C197.258 178.027 197.699 175.879 197.111 175.541C196.522 175.203 194.993 179.497 194.993 179.497C194.993 179.497 193.404 172.261 192.154 172.144C190.904 172.026 193.375 179.497 193.198 179.174C193.022 178.85 188.933 172.35 188.301 173.026C187.668 173.703 190.772 179.586 190.683 179.909C190.595 180.233 185.404 174.159 184.889 175.365C184.374 176.571 189.389 180.998 189.007 181.248C188.624 181.498 184.227 177.938 183.756 178.777C183.286 179.615 188.316 183.424 188.316 183.424C189.433 185.057 190.742 186.704 192.625 187.042C195.257 190.822 200.876 198.617 203.832 200.75C207.803 203.603 216.716 208.103 217.069 207.353C217.422 206.603 222.201 201.014 222.201 201.014Z" fill="#FBD6A0"/>
<path fill-rule="evenodd" clip-rule="evenodd" d="M249.572 199.573C252.16 198.19 265.029 194.675 265.029 194.675C265.471 193.043 271.589 186.969 275.325 183.733C274.856 182.31 274.632 180.818 274.663 179.321C274.516 176.585 274.074 174.423 274.663 174.1C275.251 173.776 276.781 178.041 276.781 178.041C276.781 178.041 278.369 170.805 279.619 170.688C280.869 170.57 278.398 178.041 278.575 177.732C278.751 177.424 282.84 170.908 283.472 171.57C284.105 172.232 281.002 178.144 281.105 178.453C281.207 178.762 286.37 172.702 286.885 173.908C287.399 175.114 282.384 179.541 282.766 179.791C283.149 180.041 287.546 176.497 288.017 177.335C288.488 178.174 283.458 181.983 283.458 181.983C282.34 183.601 281.031 185.263 279.148 185.586C276.516 189.366 270.898 197.161 267.941 199.293C263.97 202.235 255.058 206.647 254.705 205.897C254.352 205.147 249.572 199.573 249.572 199.573Z" fill="#FBD6A0"/>
<path fill-rule="evenodd" clip-rule="evenodd" d="M259.588 202.014C262.569 200.849 265.318 199.16 267.706 197.028C268.662 196.108 269.557 195.126 270.383 194.087L271.854 192.234C274.663 188.66 277.531 184.63 277.531 184.63C278.411 184.748 279.304 184.544 280.046 184.057C281.137 183.34 282.057 182.391 282.737 181.277L288.032 177.321V177.6C287.649 178.791 283.458 182.012 283.458 182.012C282.34 183.63 281.031 185.292 279.149 185.616C277.516 187.969 274.736 191.851 272.148 194.984C271.662 195.572 271.177 196.146 270.677 196.675C269.839 197.641 268.913 198.527 267.912 199.323C265.014 201.294 261.965 203.035 258.793 204.529L257.543 200.352C257.518 200.173 257.463 199.999 257.382 199.838C257.382 199.838 258.999 202.014 259.588 202.014Z" fill="#F6C987"/>
<path fill-rule="evenodd" clip-rule="evenodd" d="M229.202 201.602L215.157 198.44L212.362 207.691L221.304 213.81L220.937 244.401L251.16 243.298C251.16 243.298 247.013 213.354 248.307 212.986C249.601 212.618 259.779 206.529 259.779 206.529L256.97 196.764L242.821 201.338L229.202 201.602Z" fill="#B9A13E"/>
<path fill-rule="evenodd" clip-rule="evenodd" d="M233.453 196.47C233.453 196.47 233.07 200.882 232.702 200.882C232.335 200.882 228.29 201.382 228.29 201.382C228.29 201.382 229.555 207.147 235.262 207.147C240.968 207.147 243.233 201.485 243.233 201.485L239.13 201.117L238.762 197.249L233.453 196.47Z" fill="#FBD6A0"/>
<path fill-rule="evenodd" clip-rule="evenodd" d="M62.9059 226.34C62.5382 231.061 60.3468 247.622 59.9644 249.446C59.4349 252.093 52.1548 286.111 53.4049 289.023C53.5373 289.347 56.464 288.861 56.464 288.861C56.464 288.861 70.8773 241.989 71.245 240.709C71.6127 239.43 71.7891 229.605 69.9654 228.517C67.6961 227.543 65.3296 226.813 62.9059 226.34Z" fill="#FBD6A0"/>
<path fill-rule="evenodd" clip-rule="evenodd" d="M83.8197 229.826C83.8197 232.194 87.9231 249.269 91.0116 262.55C94.1002 275.831 96.0121 287.92 97.1005 287.92C98.3371 288.086 99.5509 288.392 100.718 288.832L94.8355 230.194L83.8197 229.826Z" fill="#FBD6A0"/>
<path fill-rule="evenodd" clip-rule="evenodd" d="M60.3908 214.089C61.788 227.326 54.1696 241.71 55.0667 242.195C72.3332 251.578 87.423 243.666 103.292 240.224C102.748 239.327 94.1443 221.105 92.8353 210.059L60.3908 214.089Z" fill="#EC7477"/>
<path fill-rule="evenodd" clip-rule="evenodd" d="M60.5673 217.619C60.5673 229.782 54.2431 241.754 55.0667 242.195C62.1155 246.043 70.2367 247.46 78.172 246.225C73.1421 243.651 64.4059 239.606 63.7147 238.989C62.7146 238.062 63.347 229.399 63.347 228.296C63.347 227.193 64.4647 228.105 73.3921 227.002C82.3195 225.899 93.4236 219.648 93.4236 219.648C93.4236 219.648 86.8494 219.045 85.5551 218.854L60.7291 217.207L60.5673 217.619Z" fill="#EB6B70"/>
<path fill-rule="evenodd" clip-rule="evenodd" d="M93.0854 185.513C92.556 195.278 93.2766 205.044 96.2475 218.928C90.0887 220.715 83.768 221.888 77.3779 222.428C67.5534 223.164 58.4495 223.384 58.4495 223.384C58.4495 223.384 59.6997 213.677 57.3759 194.808C56.9788 191.572 56.6111 188.925 56.2875 186.763C52.5355 186.983 48.7737 186.983 45.0217 186.763L43.8451 177.747C54.5668 175.188 64.9796 172.467 68.024 171.32C78.6281 170.011 81.0548 169.261 92.4236 171.673C96.1004 174.497 99.1155 177.35 104.292 184.395L97.88 190.278C97.88 190.278 94.5562 186.954 93.0854 185.513Z" fill="#796BAE"/>
<path fill-rule="evenodd" clip-rule="evenodd" d="M65.5825 164.378C67.2003 172.158 64.9942 171.732 61.1703 173.659C67.9945 181.895 80.6576 177.953 81.9077 170.452C74.554 170.452 76.8925 169.879 74.0834 162.54L65.5825 164.378Z" fill="#F6CB8A"/>
<path fill-rule="evenodd" clip-rule="evenodd" d="M64.6855 122.389C53.0372 123.712 44.7864 135.272 46.2718 148.185C47.7573 161.098 58.3613 167.952 70.0096 166.614C81.6578 165.275 89.9381 156.318 88.4526 143.376C86.9672 130.433 76.3484 121.124 64.6855 122.389Z" fill="#FBD6A0"/>
<path fill-rule="evenodd" clip-rule="evenodd" d="M88.673 136.67C86.4963 135.905 78.1572 136.434 69.3475 137.787L64.5235 133.169C64.5235 133.478 65.9942 136.111 67.1561 138.126C63.0482 138.799 58.9784 139.687 54.9637 140.788L53.1694 137.39L54.1107 141.038C49.3749 142.508 45.9039 144.082 45.2862 145.818C44.4389 140.823 44.4389 135.722 45.2862 130.728C48.1983 115.873 84.8197 107.725 88.673 136.67Z" fill="#763A20"/>
<path fill-rule="evenodd" clip-rule="evenodd" d="M123.971 160.113C122.588 166.378 122.338 165.555 119.823 169.688C117.308 173.82 117.706 179.527 117.882 181.218C118.22 184.263 121.279 186.425 123.927 185.086C126.118 183.983 128.089 180.13 128.898 179.203C128.898 179.203 129.354 182.601 130.648 180.395C131.942 178.188 131.383 165.687 131.383 165.687L123.971 160.113Z" fill="#FBD6A0"/>
<path fill-rule="evenodd" clip-rule="evenodd" d="M144.855 120.006C141.8 117.043 137.998 114.964 133.854 113.991C134.119 111.049 141.737 82.7963 153.459 83.7376C154.577 83.8258 160.43 89.1352 159.592 96.9742C158.519 106.74 144.855 120.006 144.855 120.006Z" fill="#AE4283"/>
<path fill-rule="evenodd" clip-rule="evenodd" d="M209.832 121.124C214.701 116.079 221.451 114.594 221.422 114.388C221.157 111.446 214.348 83.0463 202.626 83.9729C201.508 84.0611 195.655 89.3705 196.493 97.2095C197.508 106.931 209.832 121.124 209.832 121.124Z" fill="#AE4283"/>
<path fill-rule="evenodd" clip-rule="evenodd" d="M164.328 98.7244C166.779 98.7273 169.175 99.4569 171.212 100.821C173.249 102.185 174.836 104.123 175.772 106.388C176.708 108.654 176.951 111.146 176.471 113.55C175.991 115.955 174.809 118.162 173.075 119.895C171.34 121.627 169.131 122.807 166.727 123.284C164.322 123.761 161.83 123.515 159.565 122.576C157.3 121.637 155.365 120.048 154.003 118.009C152.642 115.971 151.915 113.574 151.915 111.123C151.915 109.493 152.236 107.88 152.86 106.375C153.484 104.869 154.399 103.502 155.551 102.351C156.704 101.199 158.073 100.286 159.579 99.6639C161.085 99.0417 162.698 98.7224 164.328 98.7244Z" fill="#AE4283"/>
<path fill-rule="evenodd" clip-rule="evenodd" d="M219.275 185.66C220.161 185.749 221.053 185.567 221.834 185.14C222.615 184.712 223.249 184.058 223.651 183.264C224.054 182.47 224.207 181.572 224.09 180.689C223.973 179.807 223.591 178.98 222.995 178.318C222.4 177.656 221.618 177.19 220.752 176.981C219.886 176.772 218.978 176.829 218.145 177.146C217.313 177.463 216.596 178.025 216.089 178.757C215.582 179.489 215.308 180.357 215.304 181.247C215.248 182.358 215.634 183.447 216.378 184.273C217.122 185.1 218.164 185.599 219.275 185.66Z" fill="#FBD6A0"/>
<path fill-rule="evenodd" clip-rule="evenodd" d="M218.26 178.865C219.128 178.865 219.937 180.056 220.069 181.542C220.201 183.027 219.598 184.218 218.731 184.218C217.863 184.218 217.054 183.012 216.922 181.542C216.789 180.071 217.392 178.865 218.26 178.865Z" fill="#EDA46C"/>
<path fill-rule="evenodd" clip-rule="evenodd" d="M253.793 185.66C254.679 185.749 255.571 185.567 256.353 185.14C257.134 184.712 257.767 184.058 258.17 183.264C258.572 182.47 258.725 181.572 258.608 180.689C258.491 179.807 258.109 178.98 257.514 178.318C256.918 177.656 256.136 177.19 255.27 176.981C254.405 176.772 253.496 176.829 252.664 177.146C251.832 177.463 251.115 178.025 250.607 178.757C250.1 179.489 249.826 180.357 249.822 181.247C249.766 182.358 250.152 183.447 250.896 184.273C251.641 185.1 252.682 185.599 253.793 185.66Z" fill="#FBD6A0"/>
<path fill-rule="evenodd" clip-rule="evenodd" d="M254.867 178.865C253.999 178.865 253.175 180.056 253.043 181.542C252.911 183.027 253.514 184.218 254.381 184.218C255.249 184.218 256.073 183.012 256.205 181.542C256.337 180.071 255.69 178.865 254.867 178.865Z" fill="#EDA46C"/>
<path fill-rule="evenodd" clip-rule="evenodd" d="M218.363 183.527C217.995 183.292 214.127 177.262 217.275 169.084C220.422 160.907 227.349 164.422 227.349 164.422L226.099 168.187C225.525 169.246 218.745 183.762 218.363 183.527Z" fill="#A95C40"/>
<path d="M236.526 199.088C246.631 199.088 254.822 191.12 254.822 181.292C254.822 171.463 246.631 163.496 236.526 163.496C226.422 163.496 218.23 171.463 218.23 181.292C218.23 191.12 226.422 199.088 236.526 199.088Z" fill="#FBD6A0"/>
<path fill-rule="evenodd" clip-rule="evenodd" d="M244.777 178.483C245.19 178.495 245.596 178.592 245.971 178.766C246.346 178.941 246.681 179.19 246.956 179.498C247.231 179.806 247.441 180.167 247.572 180.559C247.703 180.951 247.753 181.365 247.719 181.777C247.541 182.592 247.058 183.309 246.369 183.779C245.68 184.25 244.837 184.439 244.013 184.307C243.607 184.283 243.209 184.178 242.844 183.998C242.48 183.819 242.154 183.568 241.887 183.262C241.62 182.955 241.417 182.598 241.289 182.212C241.162 181.825 241.113 181.418 241.145 181.012C241.315 180.208 241.786 179.499 242.461 179.029C243.135 178.559 243.964 178.364 244.777 178.483Z" fill="white"/>
<path fill-rule="evenodd" clip-rule="evenodd" d="M228.511 178.262C228.915 178.292 229.308 178.401 229.669 178.584C230.03 178.767 230.351 179.019 230.614 179.327C230.876 179.635 231.075 179.992 231.199 180.377C231.323 180.762 231.369 181.168 231.335 181.571C231.161 182.388 230.678 183.107 229.988 183.578C229.298 184.049 228.453 184.236 227.629 184.101C227.223 184.077 226.826 183.972 226.461 183.792C226.096 183.613 225.77 183.362 225.503 183.056C225.236 182.749 225.033 182.392 224.905 182.006C224.778 181.62 224.729 181.212 224.761 180.806C224.935 179.979 225.423 179.252 226.123 178.777C226.822 178.303 227.678 178.118 228.511 178.262Z" fill="white"/>
<path fill-rule="evenodd" clip-rule="evenodd" d="M254.337 184.219C257.808 176.482 258.279 173.203 253.131 167.011C249.513 156.569 234.541 160.084 236.262 153.112C227.643 154.436 220.628 163.525 221.216 168.835C221.599 172.217 228.938 174.085 240.424 172.6C248.322 171.585 250.013 171.129 250.013 171.129C255.367 177.012 253.69 177.115 254.337 184.219Z" fill="#A95C40"/>
<path fill-rule="evenodd" clip-rule="evenodd" d="M244.571 183.027C244.937 182.976 245.281 182.821 245.562 182.581C245.842 182.34 246.047 182.024 246.153 181.669C246.259 181.315 246.26 180.938 246.157 180.583C246.054 180.228 245.852 179.91 245.573 179.667C245.295 179.424 244.952 179.266 244.587 179.213C244.221 179.159 243.847 179.212 243.511 179.364C243.174 179.517 242.889 179.763 242.688 180.074C242.488 180.384 242.381 180.746 242.38 181.115C242.421 181.658 242.674 182.162 243.084 182.52C243.494 182.877 244.028 183.06 244.571 183.027Z" fill="#3E3A39"/>
<path fill-rule="evenodd" clip-rule="evenodd" d="M243.557 181.042C243.643 181.055 243.731 181.05 243.814 181.026C243.898 181.003 243.976 180.961 244.042 180.904C244.108 180.848 244.162 180.778 244.198 180.698C244.235 180.619 244.253 180.533 244.253 180.446C244.253 180.359 244.235 180.273 244.198 180.194C244.162 180.115 244.108 180.044 244.042 179.988C243.976 179.931 243.898 179.889 243.814 179.866C243.731 179.842 243.643 179.837 243.557 179.85C243.47 179.837 243.382 179.842 243.299 179.866C243.215 179.889 243.137 179.931 243.071 179.988C243.005 180.044 242.951 180.115 242.915 180.194C242.878 180.273 242.86 180.359 242.86 180.446C242.86 180.533 242.878 180.619 242.915 180.698C242.951 180.778 243.005 180.848 243.071 180.904C243.137 180.961 243.215 181.003 243.299 181.026C243.382 181.05 243.47 181.055 243.557 181.042Z" fill="#EEEEEF"/>
<path fill-rule="evenodd" clip-rule="evenodd" d="M241.542 178.482C243.263 178.203 245.021 178.228 246.733 178.556C248.587 179.071 249.44 178.262 247.072 177.468C245.283 176.953 243.396 176.877 241.571 177.247C240.453 177.571 240.424 178.762 241.542 178.482Z" fill="#A95C40"/>
<path fill-rule="evenodd" clip-rule="evenodd" d="M228.158 182.718C228.518 182.668 228.856 182.514 229.132 182.277C229.407 182.039 229.609 181.728 229.712 181.379C229.816 181.03 229.817 180.659 229.715 180.31C229.613 179.96 229.413 179.648 229.139 179.409C228.865 179.17 228.528 179.015 228.168 178.962C227.808 178.91 227.44 178.962 227.109 179.112C226.778 179.262 226.497 179.505 226.299 179.811C226.102 180.116 225.997 180.472 225.996 180.836C226.034 181.372 226.282 181.871 226.688 182.224C227.093 182.577 227.622 182.755 228.158 182.718Z" fill="#3E3A39"/>
<path fill-rule="evenodd" clip-rule="evenodd" d="M227.158 180.748C227.239 180.754 227.321 180.743 227.398 180.718C227.475 180.692 227.547 180.652 227.608 180.598C227.67 180.545 227.72 180.48 227.756 180.407C227.793 180.334 227.814 180.255 227.82 180.174C227.808 180.009 227.733 179.855 227.609 179.745C227.485 179.635 227.323 179.578 227.158 179.586C226.991 179.577 226.827 179.634 226.701 179.744C226.575 179.853 226.496 180.007 226.481 180.174C226.496 180.339 226.576 180.492 226.702 180.599C226.829 180.707 226.992 180.76 227.158 180.748Z" fill="#EEEEEF"/>
<path fill-rule="evenodd" clip-rule="evenodd" d="M230.261 178.35C228.701 178.094 227.107 178.118 225.555 178.424C223.864 178.88 223.099 178.144 225.231 177.424C226.859 176.962 228.574 176.896 230.232 177.233C231.232 177.483 231.335 178.571 230.261 178.35Z" fill="#A95C40"/>
<path fill-rule="evenodd" clip-rule="evenodd" d="M230.702 190.249C230.805 192.763 233.32 194.778 236.409 194.778C239.497 194.778 241.998 192.763 242.115 190.249H230.702Z" fill="#4F2211"/>
<path fill-rule="evenodd" clip-rule="evenodd" d="M231.849 190.249H240.953V191.366C240.955 191.424 240.946 191.482 240.925 191.536C240.905 191.591 240.874 191.64 240.835 191.683C240.795 191.725 240.747 191.759 240.695 191.783C240.642 191.807 240.585 191.82 240.527 191.822H232.276C232.218 191.82 232.161 191.807 232.108 191.783C232.055 191.759 232.008 191.725 231.968 191.683C231.929 191.64 231.898 191.591 231.877 191.536C231.857 191.482 231.848 191.424 231.849 191.366V190.249Z" fill="white"/>
<path fill-rule="evenodd" clip-rule="evenodd" d="M233.688 186.616C233.688 187.278 234.997 187.807 236.527 187.807C238.056 187.807 239.306 187.278 239.35 186.616H233.688Z" fill="#DF9C72"/>
<path fill-rule="evenodd" clip-rule="evenodd" d="M247.366 167.79C248.338 168.844 249.224 169.976 250.013 171.173C250.013 171.173 250.646 172.129 245.439 173.923C240.233 175.718 238.203 175.071 238.659 174.982C239.512 174.561 240.329 174.069 241.1 173.512C238.118 174.183 235.081 174.586 232.026 174.718C227.746 174.806 225.952 174.159 226.731 174.115C227.609 173.961 228.461 173.684 229.261 173.291C228.761 173.423 227.423 174.438 224.113 173.012C220.804 171.585 219.363 168.32 220.01 168.599C222.94 168.545 225.863 168.299 228.761 167.864C231.055 167.511 247.366 167.79 247.366 167.79Z" fill="#A95C40"/>
<path fill-rule="evenodd" clip-rule="evenodd" d="M78.3781 142.303C78.8521 142.339 79.314 142.47 79.7367 142.688C80.1594 142.906 80.5344 143.205 80.8398 143.57C81.1453 143.934 81.3749 144.356 81.5154 144.81C81.6558 145.264 81.7043 145.742 81.6579 146.215C81.4719 147.156 80.9281 147.989 80.1409 148.537C79.3536 149.086 78.3843 149.308 77.4368 149.156C76.9623 149.119 76.4998 148.988 76.0764 148.771C75.653 148.553 75.277 148.254 74.9704 147.89C74.6638 147.526 74.4327 147.104 74.2906 146.65C74.1484 146.196 74.098 145.718 74.1424 145.244C74.335 144.303 74.8826 143.473 75.6713 142.925C76.46 142.377 77.4293 142.154 78.3781 142.303Z" fill="white"/>
<path fill-rule="evenodd" clip-rule="evenodd" d="M58.8172 145.715C59.2905 145.75 59.7521 145.879 60.1747 146.095C60.5973 146.311 60.9724 146.609 61.278 146.972C61.5836 147.336 61.8135 147.756 61.9541 148.209C62.0948 148.663 62.1433 149.14 62.0969 149.612C61.9076 150.555 61.3609 151.387 60.5712 151.936C59.7816 152.484 58.8105 152.705 57.8612 152.553C57.3879 152.518 56.9263 152.389 56.5037 152.173C56.0811 151.957 55.7059 151.659 55.4003 151.296C55.0947 150.932 54.8648 150.512 54.7242 150.059C54.5836 149.605 54.535 149.128 54.5814 148.656C54.7708 147.714 55.3175 146.881 56.1071 146.333C56.8967 145.784 57.8679 145.563 58.8172 145.715Z" fill="white"/>
<path fill-rule="evenodd" clip-rule="evenodd" d="M77.4368 142.994C76.9711 143.051 76.5327 143.245 76.1767 143.551C75.8207 143.857 75.5629 144.261 75.4357 144.712C75.3085 145.164 75.3175 145.643 75.4616 146.09C75.6057 146.536 75.8785 146.931 76.2457 147.223C76.613 147.515 77.0583 147.692 77.5259 147.732C77.9935 147.772 78.4624 147.673 78.874 147.448C79.2855 147.222 79.6213 146.88 79.8392 146.465C80.0572 146.049 80.1475 145.578 80.0989 145.111C80.025 144.478 79.7036 143.9 79.2048 143.503C78.706 143.107 78.0704 142.923 77.4368 142.994Z" fill="#3E3A39"/>
<path fill-rule="evenodd" clip-rule="evenodd" d="M76.4072 143.905C76.2639 143.923 76.129 143.983 76.0194 144.077C75.9099 144.171 75.8304 144.296 75.791 144.435C75.7517 144.573 75.7541 144.721 75.798 144.859C75.8419 144.996 75.9253 145.118 76.0379 145.208C76.1505 145.299 76.2872 145.354 76.4311 145.367C76.5749 145.381 76.7194 145.351 76.8467 145.283C76.9739 145.214 77.0782 145.11 77.1465 144.983C77.2148 144.856 77.2441 144.711 77.2308 144.567C77.2217 144.469 77.193 144.374 77.1463 144.287C77.0996 144.2 77.036 144.124 76.9592 144.062C76.8823 144 76.7939 143.954 76.6991 143.928C76.6042 143.901 76.505 143.893 76.4072 143.905Z" fill="#EEEEEF"/>
<path fill-rule="evenodd" clip-rule="evenodd" d="M58.0524 146.626C57.5958 146.692 57.1686 146.891 56.824 147.197C56.4793 147.504 56.2324 147.905 56.114 148.351C55.9955 148.797 56.0108 149.268 56.1577 149.705C56.3047 150.142 56.577 150.527 56.9407 150.811C57.3045 151.094 57.7436 151.265 58.2035 151.301C58.6634 151.337 59.1238 151.238 59.5275 151.014C59.9311 150.791 60.2602 150.454 60.4739 150.045C60.6875 149.636 60.7763 149.174 60.7291 148.715C60.6947 148.4 60.5976 148.096 60.4435 147.819C60.2894 147.543 60.0814 147.3 59.8318 147.105C59.5823 146.91 59.2962 146.768 58.9906 146.685C58.685 146.603 58.3659 146.583 58.0524 146.626Z" fill="#3E3A39"/>
<path fill-rule="evenodd" clip-rule="evenodd" d="M57.0377 147.597C56.9409 147.606 56.847 147.635 56.7612 147.68C56.6754 147.726 56.5996 147.788 56.538 147.863C56.4765 147.939 56.4305 148.025 56.4026 148.118C56.3748 148.212 56.3657 148.309 56.3759 148.406C56.391 148.55 56.4485 148.687 56.5412 148.799C56.6339 148.91 56.7575 148.992 56.8965 149.034C57.0356 149.075 57.1838 149.075 57.3226 149.032C57.4614 148.99 57.5844 148.907 57.6763 148.795C57.7682 148.682 57.8248 148.545 57.839 148.401C57.8532 148.257 57.8244 148.111 57.7561 147.983C57.6878 147.855 57.5831 147.75 57.4553 147.681C57.3275 147.613 57.1822 147.583 57.0377 147.597Z" fill="#EEEEEF"/>
<path fill-rule="evenodd" clip-rule="evenodd" d="M60.8614 145.023C58.7046 144.887 56.5425 145.192 54.5079 145.92C52.3164 146.921 51.1399 145.92 53.8901 144.45C55.9828 143.458 58.3082 143.061 60.6114 143.303C62.0233 143.523 62.1998 145.185 60.8614 145.023Z" fill="#A95C40"/>
<path fill-rule="evenodd" clip-rule="evenodd" d="M64.4354 157.892C64.7721 159.218 65.5895 160.372 66.729 161.129C67.8684 161.886 69.2486 162.192 70.6014 161.989C71.9542 161.785 73.1831 161.086 74.0494 160.028C74.9158 158.969 75.3578 157.626 75.2895 156.26L64.4354 157.892Z" fill="#4F2211"/>
<path fill-rule="evenodd" clip-rule="evenodd" d="M65.5383 157.76L74.2009 156.451L74.3774 157.672C74.4043 157.79 74.3841 157.915 74.321 158.019C74.2579 158.124 74.1569 158.199 74.0391 158.231L66.2001 159.407C66.0801 159.411 65.9629 159.37 65.8727 159.29C65.7824 159.211 65.7259 159.1 65.7148 158.981L65.5383 157.76Z" fill="white"/>
<path fill-rule="evenodd" clip-rule="evenodd" d="M65.7004 151.524C65.8622 152.348 67.2888 152.862 68.9655 152.686C70.6421 152.509 71.907 151.7 71.907 150.862L65.7004 151.524Z" fill="#DF9C72"/>
<path fill-rule="evenodd" clip-rule="evenodd" d="M73.701 141.832C75.7434 141.116 77.9106 140.826 80.0693 140.979C82.4372 141.346 83.3049 140.067 80.2605 139.39C77.9782 139.008 75.6348 139.252 73.4804 140.096C72.1861 140.699 72.392 142.361 73.701 141.832Z" fill="#A95C40"/>
<path fill-rule="evenodd" clip-rule="evenodd" d="M59.5821 120.094C42.801 124.256 43.6981 137.978 44.6982 139.582C44.1099 131.993 55.214 125.301 61.9059 123.845C78.7311 120.183 86.0995 131.198 86.0848 131.198C80.7901 119.741 74.5983 116.388 59.5821 120.094Z" fill="#EF8200"/>
<path fill-rule="evenodd" clip-rule="evenodd" d="M57.3317 194.808C59.6555 213.677 58.4054 223.384 58.4054 223.384C58.4054 223.384 59.479 223.384 61.2733 223.296C64.7148 223.178 70.8772 222.914 77.3338 222.428C82.5742 221.994 87.7692 221.123 92.8648 219.825C94.9532 219.31 96.2033 218.928 96.2033 218.928C93.6982 208.358 92.6149 197.502 92.9824 186.645C92.9824 186.263 92.9824 185.88 92.9824 185.513L93.2913 185.807C94.9238 187.351 97.7035 190.219 97.7035 190.219L98.2771 189.69L101.042 187.307C101.042 187.307 97.4388 184.822 94.4679 182.733C92.5559 181.38 90.9087 180.189 90.6881 179.939C90.4675 179.689 90.4527 180.498 90.4969 181.939C90.5704 183.924 90.7616 187.101 90.791 190.293C90.791 190.837 90.791 191.381 90.791 191.91C90.7028 197.896 93.9237 216.913 93.9237 216.913C93.9237 216.913 93.1148 216.913 91.7029 216.84C89.7468 216.84 86.6582 216.839 83.0843 217.06C81.5117 217.201 79.9496 217.442 78.4074 217.781C71.9803 219.09 63.7 221.546 61.8322 220.34C60.1555 219.266 58.8907 200.823 58.3759 189.66C58.1259 184.748 57.9935 181.248 57.9935 181.248C57.9935 181.248 56.6552 184.983 53.7137 184.616C53.0519 184.527 52.243 184.366 51.3458 184.174L49.8751 183.836C48.7279 183.542 47.566 183.218 46.61 182.954L45.6688 182.674L44.3451 182.277L44.5363 183.748H44.3451C44.3451 184.277 44.3451 184.91 44.3451 185.557H44.7716L44.9187 186.748C44.9187 186.748 49.125 187.013 53.1254 186.939C54.1843 186.939 55.2286 186.939 56.1845 186.792C56.3169 187.66 56.4493 188.601 56.5963 189.631C56.8611 191.131 57.0817 192.866 57.3317 194.808Z" fill="#7567AA"/>
<path fill-rule="evenodd" clip-rule="evenodd" d="M47.1542 138.39C47.1255 143.442 47.7333 148.477 48.9633 153.377C50.9488 160.51 56.567 170.746 56.111 170.335C55.6551 169.923 49.6545 166.364 46.7571 162.172C43.8598 157.98 43.345 143.891 43.345 143.891L47.1542 138.39Z" fill="#763A20"/>
<path fill-rule="evenodd" clip-rule="evenodd" d="M83.9814 130.904C85.9759 135.55 87.384 140.426 88.1731 145.42C89.1437 152.774 87.9672 164.378 88.1731 163.819C88.379 163.26 92.5853 157.642 93.5854 152.656C94.5855 147.67 89.5555 134.493 89.5555 134.493L83.9814 130.904Z" fill="#763A20"/>
<path fill-rule="evenodd" clip-rule="evenodd" d="M131.325 165.717C133.678 154.51 136.207 134.978 137.884 130.11C139.574 126.31 141.665 122.701 144.12 119.344C143.154 118.437 142.1 117.629 140.973 116.932C139.491 120.031 137.831 123.041 136.002 125.948C132.501 131.654 130.472 153.671 129.927 157.554C129.681 159.82 129.558 162.098 129.56 164.378C129.56 165.849 129.56 167.32 129.56 168.79C129.56 169.511 129.56 170.261 129.56 170.879C129.56 171.497 129.56 172.085 129.56 172.629C129.56 173.556 129.56 174.379 129.663 175.026C129.675 175.52 129.729 176.012 129.824 176.497C130.001 177.085 129.824 176.953 129.574 176.615C129.324 176.276 128.766 175.365 128.766 175.365L127.177 177.409L126.471 178.291L125.295 179.762L123.618 181.777C123.399 182.025 123.133 182.227 122.835 182.371C122.537 182.515 122.213 182.598 121.882 182.615C121.618 182.637 121.353 182.637 121.088 182.615C119.967 182.446 118.883 182.088 117.882 181.556C118.087 182.822 118.772 183.959 119.794 184.733C120.367 185.187 121.056 185.469 121.782 185.547C122.508 185.625 123.242 185.496 123.897 185.174C126.089 184.071 128.06 180.218 128.868 179.291C128.868 179.291 129.324 182.689 130.619 180.483C131.913 178.277 131.354 165.775 131.354 165.775L131.325 165.717Z" fill="#F7CD8D"/>
<path fill-rule="evenodd" clip-rule="evenodd" d="M152.43 107.152C151.224 108.917 147.209 114.623 146.017 114.505C144.547 114.388 141.031 116.917 141.031 116.917C142.159 117.614 143.213 118.422 144.179 119.329C144.414 119.535 144.635 119.756 144.855 119.991C147.395 117.457 149.773 114.765 151.974 111.932C152.081 113.604 152.528 115.237 153.286 116.731C154.045 118.225 155.099 119.55 156.386 120.624C158.541 121.804 160.819 122.741 163.181 123.418C164.049 123.683 165.005 123.962 166.034 124.227C172.77 125.977 178.109 122.477 179.035 122.756C179.962 123.036 192.566 124.418 195.522 123.3C197.265 122.673 198.847 121.669 200.155 120.359C202.264 119.034 203.929 117.108 204.935 114.829C207.553 118.52 209.774 121.08 209.774 121.08L210.024 120.83C210.599 120.255 211.208 119.714 211.848 119.212C210.775 117.399 209.611 115.642 208.362 113.946C207.428 112.672 206.625 111.308 205.965 109.873C204.935 107.784 203.803 105.24 202.847 102.842C202.553 102.151 202.288 101.46 202.038 100.798L201.464 99.2096C201.464 99.6067 201.597 100.019 201.655 100.445C201.92 102.136 202.17 104.048 202.376 105.887C202.369 105.965 202.369 106.044 202.376 106.122C202.464 106.975 202.538 107.813 202.611 108.608C202.714 109.784 202.773 110.843 202.773 111.711C202.825 112.384 202.76 113.06 202.582 113.711C202.151 114.526 201.549 115.239 200.817 115.8C198.009 118.066 194.498 119.283 190.89 119.241C188.625 119.241 186.61 118.991 185.007 118.785C183.369 118.624 181.749 118.314 180.168 117.859C179.638 117.638 176.859 118.785 173.461 119.506C170.861 120.157 168.148 120.223 165.519 119.697C159.489 118.226 159.342 116.108 156.857 111.593C156.139 110.039 155.729 108.361 155.651 106.652C155.539 105.321 155.495 103.986 155.518 102.651V102.386C155.577 99.7302 155.778 97.0791 156.121 94.4445L152.739 106.666C152.739 106.666 152.65 106.843 152.43 107.152Z" fill="#A93F80"/>
<path fill-rule="evenodd" clip-rule="evenodd" d="M210.083 120.815C214.157 128.301 218.525 135.758 221.172 138.625C225.805 143.655 230.644 148.538 235.673 153.215L236.262 153.112C236.262 153.303 236.262 153.495 236.159 153.671L239.88 157.039L240.6 153.039C238.203 151.053 234.026 147.818 229.482 143.817C224.378 139.331 216.569 126.595 211.833 119.197C211.219 119.702 210.634 120.242 210.083 120.815Z" fill="#F7CD8D"/>
<path fill-rule="evenodd" clip-rule="evenodd" d="M240.6 153.039L239.88 157.039L239.747 157.76C240.247 157.951 240.777 158.142 241.336 158.319C242.982 158.815 244.602 159.394 246.189 160.054L246.601 158.51C243.218 156.098 243.189 155.201 240.6 153.039Z" fill="#FAD297"/>
<path fill-rule="evenodd" clip-rule="evenodd" d="M246.601 158.51L246.189 160.054C247.732 160.625 249.137 161.513 250.315 162.661C251.493 163.808 252.417 165.19 253.028 166.717L253.131 166.584C253.131 166.584 253.881 167.378 254.705 168.334C254.705 168.026 254.808 167.731 254.852 167.423C253.478 164.491 251.377 161.96 248.748 160.069L246.601 158.51Z" fill="#FAD297"/>
<path fill-rule="evenodd" clip-rule="evenodd" d="M156.327 120.653C159.666 137.155 151.533 138.728 150.915 158.892L151.856 159.025C163.688 160.832 175.661 161.546 187.624 161.157C187.624 161.157 182.433 156.583 172.123 154.377C167.064 153.289 163.593 152.906 161.651 151.347C159.71 149.788 159.283 147.023 160.504 141.052C161.615 135.244 163.366 129.576 165.725 124.153C164.799 123.918 163.96 123.668 163.181 123.433C160.684 123.217 158.312 122.242 156.386 120.638L156.327 120.653Z" fill="#A93F80"/>
<path fill-rule="evenodd" clip-rule="evenodd" d="M179.168 226.135C176.388 244.666 181.227 271.242 181.845 282.023C182.926 282.072 184.009 282.018 185.08 281.861C184.977 280.728 184.83 279.258 184.668 277.552C183.58 266.403 181.727 245.195 182.212 239.709C182.595 235.9 183.683 229.635 184.727 224.34L179.021 224.443C179.065 225.223 179.124 225.811 179.168 226.135Z" fill="#F6CA87"/>
<path fill-rule="evenodd" clip-rule="evenodd" d="M165.931 286.788C165.799 284.861 165.652 282.611 165.549 280.802C167.387 262.594 171.52 246.328 171.049 226.178L171.24 224.561L156.651 224.825V225.237C156.651 225.237 156.651 226.017 156.651 227.399C159.151 227.311 167.328 227.09 167.725 228.267C168.122 229.444 161.739 269.815 162.284 274.61C162.401 275.536 162.519 276.434 162.637 277.287C162.828 278.566 163.004 279.743 163.151 280.758C163.417 281.919 163.417 283.126 163.151 284.287C161.814 285.406 160.329 286.336 158.739 287.052L165.931 286.788Z" fill="#F6CA87"/>
<path fill-rule="evenodd" clip-rule="evenodd" d="M105.425 191.043C103.525 190.327 101.741 189.336 100.13 188.101L98.4095 189.675C100.291 191.515 102.514 192.969 104.954 193.955C109.94 193.308 116.073 188.263 119.838 184.674C119.49 184.413 119.179 184.106 118.912 183.762C116.382 185.424 107.16 191.44 105.425 191.043Z" fill="#FACE91"/>
<path fill-rule="evenodd" clip-rule="evenodd" d="M230.658 240.915C229.626 240.642 228.676 240.123 227.887 239.404C227.098 238.684 226.495 237.785 226.128 236.783C225.218 234.513 224.663 232.117 224.481 229.679C223.922 224.517 222.819 209.868 222.819 209.868C222.819 209.868 221.069 210.971 217.039 207.368C214.098 204.735 213.995 202.706 214.098 201.794L212.848 205.971L212.318 207.691L221.26 213.81L220.893 244.401H223.04L240.527 243.754C240.527 243.754 234.982 241.93 230.658 240.915Z" fill="#B1982F"/>
<path fill-rule="evenodd" clip-rule="evenodd" d="M243.645 213.089C243.645 214.192 245.233 228.841 247.234 234.93C247.744 236.482 248.012 238.104 248.028 239.739C248.039 240.976 247.936 242.212 247.719 243.43H249.381L251.175 243.357C251.175 243.357 247.028 213.413 248.322 213.045C249.616 212.677 259.794 206.588 259.794 206.588C259.794 206.588 259.499 205.618 259.117 204.279C253.984 206.809 243.645 212.31 243.645 213.089Z" fill="#B1982F"/>
<path fill-rule="evenodd" clip-rule="evenodd" d="M212.215 203.485C209.233 202.327 206.484 200.643 204.097 198.514C203.144 197.59 202.25 196.608 201.42 195.572L199.949 193.719C197.14 190.145 194.272 186.116 194.272 186.116C193.392 186.224 192.503 186.021 191.757 185.542C190.667 184.818 189.748 183.865 189.066 182.748L183.771 178.791C183.771 178.791 183.771 178.909 183.771 179.071C184.153 180.262 188.345 183.483 188.345 183.483C189.463 185.116 190.772 186.763 192.654 187.101C194.287 189.44 197.066 193.337 199.655 196.455C200.14 197.058 200.626 197.632 201.126 198.146C201.961 199.12 202.886 200.011 203.891 200.808C206.789 202.78 209.838 204.521 213.009 206.015L214.259 201.838C214.287 201.654 214.342 201.476 214.421 201.308C214.421 201.308 212.774 203.485 212.215 203.485Z" fill="#F6C987"/>
<path fill-rule="evenodd" clip-rule="evenodd" d="M262.882 101.886C264.307 122.867 264.636 143.907 263.867 164.922C264.235 165.099 264.647 165.26 265.088 165.422C275.119 168.923 303.21 167.246 310.828 164.128C311.961 137.478 313.343 116.314 314.652 100.033L317.491 109.534L318.123 109.166L327.992 103.475L328.992 102.901L328.55 101.298L327.58 101.71C324.521 103.004 320.388 104.651 319.491 104.857C318.844 104.99 317.182 100.872 315.505 96.1652C313.358 90.1793 311.21 83.2374 311.093 82.9285C310.902 82.3843 312.843 98.4154 312.755 98.9596C312.667 99.5037 309.343 138.081 307.74 154.848C307.342 158.966 307.048 161.76 306.945 162.304C306.386 165.069 272.854 162.495 271.015 161.76C270.721 161.642 270.412 160.069 270.103 157.495C268.397 143.611 266.471 100.504 266.309 99.6508C266.147 98.7978 265.397 79.84 265.397 79.84L262.22 95.2827L260.838 102.166C260.838 102.166 258.529 101.327 257.337 102.063C256.69 102.46 253.705 101.945 250.572 101.357L248.984 101.033L248.16 103.798L249.998 104.195L260.749 106.519L261.455 106.666L262.882 101.886Z" fill="#4FA84A"/>
<path fill-rule="evenodd" clip-rule="evenodd" d="M267.412 41.1303C270.354 41.1303 272.648 38.1888 272.648 34.5414C272.648 30.8939 270.295 27.9672 267.412 27.9672C264.529 27.9672 262.176 30.9086 262.176 34.5414C262.176 38.1741 264.529 41.1303 267.412 41.1303Z" fill="#FBD6A0"/>
<path fill-rule="evenodd" clip-rule="evenodd" d="M266.059 30.9086C267.206 30.9086 268.28 32.7176 268.456 34.9384C268.633 37.1592 267.839 38.9535 266.691 38.9535C265.544 38.9535 264.471 37.1592 264.309 34.9384C264.147 32.7176 264.927 30.9086 266.059 30.9086Z" fill="#EDA46C"/>
<path fill-rule="evenodd" clip-rule="evenodd" d="M312.858 41.1303C315.799 41.1303 318.094 38.1888 318.094 34.5414C318.094 30.8939 315.741 27.9672 312.858 27.9672C309.975 27.9672 307.622 30.9086 307.622 34.5414C307.622 38.1741 309.975 41.1303 312.858 41.1303Z" fill="#FBD6A0"/>
<path fill-rule="evenodd" clip-rule="evenodd" d="M314.196 30.9086C313.049 30.9086 311.975 32.7176 311.814 34.9384C311.652 37.1592 312.417 38.9535 313.564 38.9535C314.711 38.9535 315.785 37.1592 315.961 34.9384C316.138 32.7176 315.343 30.9086 314.196 30.9086Z" fill="#EDA46C"/>
<path fill-rule="evenodd" clip-rule="evenodd" d="M266.221 37.9241C265.721 37.5564 263.485 22.7167 263.485 21.143C263.485 19.5693 268.309 13.7893 268.309 13.7893L272.413 19.2605C271.648 20.8489 266.721 38.2771 266.221 37.9241Z" fill="#A95C40"/>
<path fill-rule="evenodd" clip-rule="evenodd" d="M290.164 7.87683C276.928 7.87683 266.089 19.8339 266.089 34.5854C266.089 49.337 276.81 61.2793 290.164 61.2793C303.519 61.2793 314.255 49.3222 314.255 34.5707C314.255 19.8192 303.401 7.87683 290.164 7.87683Z" fill="#FBD6A0"/>
<path fill-rule="evenodd" clip-rule="evenodd" d="M266.118 36.8503C267.162 50.5282 278.207 61.2793 290.105 61.2793C302.004 61.2793 310.696 52.8226 313.402 41.3508C313.696 39.1888 313.873 37.6298 313.873 37.6298C312.77 40.9243 309.872 51.9401 303.504 53.705C301.504 54.2492 300.783 46.6013 298.842 45.7336C296.9 44.8659 294.282 46.1454 290.37 46.1895C286.458 46.2337 284.487 45.1747 282.355 45.6895C280.222 46.2042 278.898 53.2344 278.075 53.1902C270.427 52.8079 266.382 37.4092 266.118 36.8503ZM289.87 48.6163L297.459 47.9838C297.493 50.0482 297.216 52.106 296.636 54.0874C294.826 59.0879 283.222 57.7054 282.369 53.2491C282 51.5105 282.025 49.7114 282.443 47.9838L289.87 48.6163Z" fill="#F5B386"/>
<path fill-rule="evenodd" clip-rule="evenodd" d="M279.384 30.4085C279.931 30.4385 280.468 30.5767 280.961 30.8152C281.455 31.0538 281.897 31.3879 282.261 31.7982C282.624 32.2086 282.903 32.687 283.081 33.2058C283.259 33.7246 283.332 34.2735 283.296 34.8207C283.064 35.9369 282.41 36.9202 281.469 37.5645C280.529 38.2088 279.376 38.4641 278.251 38.277C277.698 38.2436 277.156 38.0999 276.659 37.8544C276.162 37.6088 275.718 37.2664 275.355 36.8471C274.992 36.4278 274.717 35.9402 274.545 35.4129C274.373 34.8856 274.308 34.3292 274.354 33.7765C274.605 32.6796 275.265 31.72 276.2 31.0939C277.135 30.4678 278.274 30.2227 279.384 30.4085Z" fill="white"/>
<path fill-rule="evenodd" clip-rule="evenodd" d="M301.415 30.585C301.968 30.6165 302.51 30.7584 303.007 31.0024C303.504 31.2464 303.947 31.5875 304.311 32.0056C304.674 32.4237 304.95 32.9103 305.122 33.4368C305.294 33.9632 305.359 34.5188 305.313 35.0708C305.081 36.184 304.429 37.1649 303.492 37.8088C302.555 38.4527 301.405 38.71 300.283 38.527C299.729 38.4974 299.186 38.3569 298.687 38.1138C298.188 37.8706 297.743 37.5298 297.378 37.1115C297.013 36.6932 296.736 36.2059 296.563 35.6785C296.39 35.1511 296.325 34.5944 296.371 34.0413C296.602 32.9251 297.257 31.9418 298.197 31.2975C299.138 30.6532 300.291 30.3979 301.415 30.585Z" fill="white"/>
<path fill-rule="evenodd" clip-rule="evenodd" d="M313.946 38.4535C314.093 40.0566 316.799 21.4076 316.799 19.8487C316.799 18.2897 311.975 12.495 311.975 12.495C311.625 10.0596 310.926 7.68715 309.902 5.45014C303.004 -7.43353 268.309 7.15619 258.632 2.7881C258.485 2.71456 256.411 24.8492 295.238 19.8487C305.651 18.5103 307.872 17.9661 307.872 17.9661C314.917 25.6875 313.079 29.0996 313.946 38.4535Z" fill="#A95C40"/>
<path fill-rule="evenodd" clip-rule="evenodd" d="M300.71 37.1739C301.27 37.1593 301.814 36.9806 302.275 36.66C302.735 36.3394 303.091 35.8908 303.299 35.3699C303.507 34.849 303.557 34.2785 303.444 33.7291C303.331 33.1798 303.06 32.6756 302.663 32.279C302.266 31.8824 301.762 31.6108 301.213 31.4978C300.663 31.3848 300.093 31.4353 299.572 31.6432C299.051 31.8511 298.603 32.2072 298.282 32.6674C297.961 33.1276 297.783 33.6717 297.768 34.2324C297.768 35.0125 298.078 35.7607 298.63 36.3123C299.181 36.864 299.929 37.1739 300.71 37.1739Z" fill="#3E3A39"/>
<path fill-rule="evenodd" clip-rule="evenodd" d="M299.371 34.1736C299.545 34.1707 299.714 34.1165 299.857 34.0178C300.001 33.9191 300.111 33.7802 300.176 33.6188C300.24 33.4573 300.256 33.2803 300.22 33.1101C300.184 32.9399 300.099 32.7841 299.975 32.6621C299.851 32.5402 299.694 32.4576 299.523 32.4247C299.352 32.3919 299.176 32.4102 299.015 32.4774C298.855 32.5446 298.718 32.6577 298.622 32.8024C298.525 32.9472 298.474 33.1172 298.474 33.2911C298.474 33.4083 298.497 33.5242 298.543 33.6323C298.588 33.7403 298.654 33.8382 298.738 33.9204C298.821 34.0025 298.92 34.0672 299.029 34.1107C299.138 34.1541 299.254 34.1755 299.371 34.1736Z" fill="#EEEEEF"/>
<path fill-rule="evenodd" clip-rule="evenodd" d="M296.724 30.4233C298.983 29.9996 301.303 30.0346 303.548 30.5262C306.004 31.291 307.107 30.085 304.004 28.8937C301.662 28.1283 299.155 28.0164 296.753 28.5701C295.297 28.9819 295.253 30.7762 296.724 30.4233Z" fill="#A95C40"/>
<path fill-rule="evenodd" clip-rule="evenodd" d="M279.104 36.7034C279.662 36.6976 280.205 36.5271 280.665 36.2133C281.126 35.8995 281.483 35.4564 281.692 34.94C281.901 34.4235 281.953 33.8567 281.841 33.3109C281.729 32.765 281.457 32.2646 281.061 31.8727C280.665 31.4807 280.162 31.2146 279.615 31.1081C279.068 31.0015 278.502 31.0591 277.988 31.2736C277.473 31.4882 277.034 31.8501 276.725 32.3138C276.416 32.7776 276.251 33.3223 276.251 33.8796C276.253 34.2523 276.328 34.6211 276.473 34.9647C276.617 35.3084 276.828 35.6202 277.093 35.8824C277.358 36.1446 277.672 36.3521 278.017 36.493C278.362 36.6338 278.732 36.7053 279.104 36.7034Z" fill="#3E3A39"/>
<path fill-rule="evenodd" clip-rule="evenodd" d="M277.781 33.7618C277.955 33.7618 278.126 33.7101 278.271 33.6131C278.416 33.5162 278.529 33.3783 278.596 33.2171C278.663 33.0558 278.68 32.8784 278.646 32.7072C278.612 32.5361 278.528 32.3788 278.405 32.2554C278.281 32.132 278.124 32.048 277.953 32.0139C277.782 31.9799 277.604 31.9973 277.443 32.0641C277.282 32.1309 277.144 32.244 277.047 32.3891C276.95 32.5342 276.898 32.7049 276.898 32.8794C276.898 33.1134 276.991 33.3379 277.157 33.5034C277.322 33.6689 277.547 33.7618 277.781 33.7618Z" fill="#EEEEEF"/>
<path fill-rule="evenodd" clip-rule="evenodd" d="M281.869 30.1439C279.814 29.7685 277.705 29.8035 275.663 30.2469C273.442 30.9528 272.442 29.8498 275.251 28.7761C277.376 28.0855 279.648 27.9838 281.825 28.482C283.149 28.8496 283.193 30.4822 281.869 30.1439Z" fill="#A95C40"/>
<path fill-rule="evenodd" clip-rule="evenodd" d="M282.443 47.9249C282.628 49.788 283.498 51.516 284.886 52.7729C286.274 54.0298 288.079 54.7259 289.951 54.7259C291.823 54.7259 293.629 54.0298 295.016 52.7729C296.404 51.516 297.275 49.788 297.459 47.9249H282.443Z" fill="#4F2211"/>
<path fill-rule="evenodd" clip-rule="evenodd" d="M283.958 47.9249H295.944V49.6016C295.957 49.7647 295.906 49.9264 295.801 50.0525C295.697 50.1787 295.548 50.2596 295.386 50.2781H284.531C284.366 50.2631 284.214 50.1838 284.106 50.0573C283.999 49.9307 283.946 49.767 283.958 49.6016V47.9249Z" fill="white"/>
<path fill-rule="evenodd" clip-rule="evenodd" d="M286.385 42.5569C286.385 43.5423 288.091 44.3365 290.106 44.3365C292.12 44.3365 293.768 43.5423 293.841 42.5569H286.385Z" fill="#DF9C72"/>
<path fill-rule="evenodd" clip-rule="evenodd" d="M258.632 2.78811C258.585 5.49852 259.271 8.17121 260.617 10.5242C261.963 12.8772 263.92 14.8233 266.28 16.1571C267.724 17.0427 269.263 17.763 270.868 18.3044L272.339 18.7603C279.193 20.7605 312.534 22.4372 312.049 12.2155C312.049 12.2155 309.284 12.8186 305.122 13.348L302.43 13.6422C297.764 13.8385 293.103 13.1498 288.694 11.6125C289.962 12.7653 291.37 13.7536 292.885 14.554C293.724 14.8188 292.15 14.7305 287.914 14.1275C285.767 13.8334 281.325 12.6568 277.413 11.6861C273.501 10.7154 270.309 9.73 270.177 9.67117C271.108 11.106 272.14 12.4724 273.266 13.7598C273.633 14.0834 271.515 13.3921 266.441 9.89178C263.479 7.86347 260.853 5.38194 258.661 2.53809L258.632 2.78811Z" fill="#9F553D"/>
<path fill-rule="evenodd" clip-rule="evenodd" d="M171.27 21.5399C171.623 22.2017 174.814 25.658 181.565 29.7319C188.316 33.8059 199.729 36.8209 199.655 36.4385C199.582 36.0561 193.081 30.9085 193.61 31.1732C194.14 31.438 201.655 33.6 201.067 33.6882C200.479 33.7764 194.419 25.8639 194.419 25.8639L200.743 28.1141C199.318 24.7837 197.071 21.8691 194.213 19.6426C189.801 16.5394 176.285 15.4805 176.903 15.6128C177.521 15.7452 184.065 19.2897 184.065 19.2897C178.937 17.6924 173.549 17.0982 168.196 17.5395C168.549 17.5395 175.55 20.4074 175.55 20.4074L169.667 19.3485L171.27 21.5399Z" fill="#7D4025"/>
<path fill-rule="evenodd" clip-rule="evenodd" d="M167.372 28.982C167.005 30.188 165.328 32.9824 160.916 41.145C156.503 49.3076 154.106 51.1019 154.106 51.1019C154.106 51.1019 155.121 58.0585 156.268 64.2503C157.415 70.4421 161.666 79.5754 160.548 78.2811C157.422 72.6015 154.894 66.6129 153.003 60.4117C151.885 55.7053 151.709 53.7786 151.709 54.4258C151.709 55.0729 152.077 64.4562 152.077 63.2502C152.077 62.0442 148.209 51.7784 148.664 44.263C149.12 36.7475 149.87 34.7767 149.87 34.7767C149.87 34.7767 150.076 39.3213 150.047 38.9683C151.465 34.4853 153.531 30.234 156.18 26.3494C159.357 22.3342 161.195 20.9517 160.739 21.4665C160.283 21.9813 157.621 31.3057 157.798 30.7763C157.974 30.2468 163.828 21.643 163.681 22.1577C163.534 22.6725 162.342 26.57 160.416 32.0117C158.489 37.4534 156.636 41.3215 157.474 40.5861C158.312 39.8507 167.372 28.982 167.372 28.982Z" fill="#7D4025"/>
<path fill-rule="evenodd" clip-rule="evenodd" d="M199.699 62.2059C197.258 70.3685 194.301 76.1632 194.949 75.2513C195.596 74.3394 198.64 69.5301 198.405 70.4126C198.169 71.295 196.052 79.237 196.508 78.4281C196.963 77.6192 202.714 61.4411 203.861 54.8963C204.487 49.9738 204.413 44.9876 203.641 40.0859C203.641 40.586 203.273 49.8516 203.317 48.3809C202.978 45.6422 202.392 42.9398 201.567 40.3065C202.279 47.6592 201.646 55.0801 199.699 62.2059Z" fill="#7D4025"/>
<path fill-rule="evenodd" clip-rule="evenodd" d="M233.791 167.673C232.747 166.393 231.144 163.893 232.114 162.216C230.438 162.378 228.585 165.246 228.393 165.805C228.499 164.015 228.902 162.256 229.585 160.598C230.894 157.657 234.673 154.421 235.894 153.421L236.262 153.112L235.673 153.215C225.628 155.201 216.23 169.07 222.805 172.188C222.907 172.188 222.407 172.261 224.113 172.997C225.782 173.502 227.548 173.598 229.261 173.276C228.461 173.669 227.609 173.946 226.731 174.1C225.952 174.1 227.746 174.791 232.026 174.703C235.081 174.572 238.118 174.168 241.101 173.497C240.329 174.054 239.512 174.546 238.659 174.968C238.203 175.056 240.233 175.703 245.439 173.909C246.042 173.688 246.586 173.497 247.042 173.306C248.807 172.1 249.984 171.158 249.984 171.158C249.984 171.158 247.998 169.32 246.366 167.761H245.601L247.336 170.497C245.561 171.189 243.616 171.322 241.762 170.879C238.821 170.085 237.203 167.673 236.85 167.673C236.497 167.673 236.85 170.364 236.85 170.364C236.85 170.364 236.438 170.364 234.732 168.702C234.401 168.376 234.087 168.032 233.791 167.673Z" fill="#A5573B"/>
</g>
<defs>
<filter id="filter0_d" x="0" y="0" width="346.655" height="300.233" filterUnits="userSpaceOnUse" color-interpolation-filters="sRGB">
<feFlood flood-opacity="0" result="BackgroundImageFix"/>
<feColorMatrix in="SourceAlpha" type="matrix" values="0 0 0 0 0 0 0 0 0 0 0 0 0 0 0 0 0 0 127 0"/>
<feOffset dy="4"/>
<feGaussianBlur stdDeviation="2"/>
<feColorMatrix type="matrix" values="0 0 0 0 0 0 0 0 0 0 0 0 0 0 0 0 0 0 0.25 0"/>
<feBlend mode="normal" in2="BackgroundImageFix" result="effect1_dropShadow"/>
<feBlend mode="normal" in="SourceGraphic" in2="effect1_dropShadow" result="shape"/>
</filter>
<linearGradient id="paint0_linear" x1="124.103" y1="174.938" x2="128.001" y2="184.277" gradientUnits="userSpaceOnUse">
<stop stop-color="#FBE5D5"/>
<stop offset="1" stop-color="#F8CAA8"/>
</linearGradient>
</defs>
</svg>
