<svg width="174" height="182" viewBox="0 0 174 182" fill="none" xmlns="http://www.w3.org/2000/svg">
<path d="M9.41784 173.343C9.22181 173.343 9.07478 173.294 8.92775 173.147C8.78073 173 8.73172 172.853 8.73172 172.657C8.73172 172.608 8.73172 172.559 8.73172 172.51C8.73172 172.461 8.73172 172.412 8.78073 172.363C8.78073 172.314 8.82974 172.265 8.82974 172.265C8.87875 172.216 8.87875 172.216 8.92775 172.167C8.97676 172.118 8.97676 172.118 9.02577 172.069C9.07478 172.069 9.07478 172.02 9.12379 172.02C9.1728 172.02 9.2218 171.971 9.27081 171.971C9.36883 171.971 9.46685 171.971 9.51585 171.971C9.56486 171.971 9.61387 171.971 9.66288 172.02C9.71189 172.02 9.7609 172.069 9.7609 172.069C9.80991 172.118 9.80991 172.118 9.85892 172.167C9.90792 172.216 9.90792 172.216 9.95693 172.265C9.95693 172.314 10.0059 172.314 10.0059 172.363C10.0059 172.412 10.055 172.461 10.055 172.51C10.055 172.559 10.055 172.608 10.055 172.657C10.055 172.853 10.0059 173 9.85892 173.147C9.7609 173.245 9.61387 173.343 9.41784 173.343Z" fill="#7048A3"/>
<path d="M154.924 171.922C154.728 171.628 154.826 171.187 155.169 171.04C155.463 170.843 155.904 170.99 156.051 171.285C156.247 171.579 156.1 172.02 155.806 172.167C155.708 172.216 155.61 172.265 155.463 172.265C155.267 172.265 155.071 172.167 154.924 171.922ZM6.72239 170.255C6.52636 169.961 6.57537 169.52 6.91843 169.324C7.21248 169.128 7.65355 169.177 7.84959 169.52C8.04562 169.814 7.99661 170.255 7.65355 170.451C7.55553 170.549 7.40851 170.549 7.26148 170.549C7.06545 170.549 6.82041 170.402 6.72239 170.255ZM157.962 170.157C157.766 169.863 157.864 169.422 158.159 169.226C158.453 169.03 158.894 169.128 159.09 169.422C159.286 169.716 159.188 170.157 158.894 170.353C158.796 170.402 158.649 170.451 158.551 170.451C158.306 170.451 158.109 170.353 157.962 170.157ZM160.903 168.148C160.707 167.854 160.756 167.462 161.05 167.217C161.344 167.021 161.736 167.07 161.981 167.364C162.177 167.658 162.128 168.05 161.834 168.295C161.736 168.393 161.589 168.442 161.442 168.442C161.246 168.442 161.05 168.344 160.903 168.148ZM4.86007 167.119C4.71304 166.776 4.81106 166.384 5.15412 166.237C5.49718 166.041 5.88925 166.188 6.03627 166.531C6.1833 166.874 6.08528 167.266 5.74222 167.413C5.6442 167.462 5.54619 167.511 5.44817 167.511C5.20313 167.511 4.95808 167.364 4.86007 167.119ZM163.745 166.041C163.5 165.747 163.549 165.355 163.843 165.109C164.138 164.864 164.53 164.913 164.775 165.208C165.02 165.502 164.971 165.894 164.677 166.139C164.53 166.237 164.432 166.286 164.285 166.286C164.089 166.286 163.892 166.188 163.745 166.041ZM3.34081 163.835C3.19378 163.492 3.38982 163.1 3.73288 162.953C4.07593 162.806 4.468 163.002 4.56602 163.345C4.71304 163.688 4.51701 164.08 4.17395 164.178C4.07594 164.227 4.02693 164.227 3.92891 164.227C3.68387 164.276 3.43882 164.129 3.34081 163.835ZM166.49 163.786C166.245 163.541 166.294 163.1 166.539 162.855C166.833 162.61 167.225 162.659 167.47 162.904C167.715 163.149 167.666 163.59 167.421 163.835C167.274 163.933 167.127 163.982 166.98 163.982C166.784 163.982 166.588 163.933 166.49 163.786ZM169.087 161.385C168.842 161.14 168.842 160.699 169.087 160.454C169.332 160.209 169.774 160.209 170.019 160.454C170.264 160.699 170.264 161.14 170.019 161.385C169.872 161.532 169.725 161.581 169.528 161.581C169.381 161.581 169.185 161.532 169.087 161.385ZM2.21361 160.454C2.1156 160.111 2.31163 159.719 2.65469 159.621C2.99775 159.523 3.38982 159.719 3.48783 160.062C3.58585 160.405 3.38982 160.797 3.04676 160.895C2.99775 160.895 2.94874 160.944 2.85072 160.944C2.55667 160.944 2.31163 160.748 2.21361 160.454ZM171.538 158.836C171.244 158.591 171.244 158.15 171.489 157.905C171.734 157.66 172.175 157.611 172.42 157.856C172.665 158.101 172.714 158.542 172.469 158.787C172.322 158.934 172.175 158.983 171.979 158.983C171.832 159.032 171.685 158.983 171.538 158.836ZM1.42948 156.925C1.38047 156.582 1.62551 156.239 1.96857 156.19C2.31163 156.141 2.65469 156.386 2.75271 156.729C2.80172 157.072 2.55667 157.415 2.21361 157.513C2.16461 157.513 2.1646 157.513 2.1156 157.513C1.77254 157.464 1.47848 157.219 1.42948 156.925ZM173.89 156.19C173.596 155.945 173.547 155.553 173.792 155.259C174.037 154.965 174.429 154.965 174.723 155.161C175.017 155.406 175.066 155.798 174.821 156.092C174.674 156.239 174.527 156.337 174.331 156.337C174.184 156.337 174.037 156.288 173.89 156.19ZM1.03741 153.347C1.03741 153.004 1.28245 152.661 1.67452 152.661C2.01758 152.661 2.36064 152.906 2.36064 153.298C2.36064 153.641 2.1156 153.985 1.72353 153.985H1.67452C1.33146 153.936 1.08642 153.691 1.03741 153.347ZM176.096 153.445C175.802 153.249 175.753 152.808 175.949 152.514C176.145 152.22 176.586 152.171 176.88 152.367C177.174 152.563 177.223 153.004 177.027 153.298C176.88 153.494 176.684 153.543 176.488 153.543C176.39 153.592 176.243 153.543 176.096 153.445ZM178.203 150.603C177.909 150.407 177.811 149.966 178.007 149.672C178.203 149.378 178.644 149.28 178.938 149.476C179.232 149.672 179.33 150.113 179.134 150.407C178.987 150.603 178.791 150.701 178.595 150.701C178.448 150.701 178.301 150.652 178.203 150.603ZM1.62551 150.407C1.28245 150.407 0.988403 150.064 0.988403 149.721C0.988403 149.378 1.33146 149.084 1.67452 149.084C2.01758 149.084 2.31163 149.427 2.31163 149.77C2.31163 150.113 2.01758 150.407 1.62551 150.407C1.67452 150.407 1.67452 150.407 1.62551 150.407ZM180.114 147.613C179.82 147.417 179.722 147.025 179.869 146.682C180.065 146.388 180.457 146.29 180.8 146.437C181.094 146.633 181.192 147.025 181.045 147.368C180.898 147.564 180.702 147.711 180.457 147.711C180.359 147.711 180.212 147.662 180.114 147.613ZM1.91956 146.878C1.5765 146.829 1.33146 146.486 1.38047 146.143C1.42948 145.8 1.77254 145.555 2.1156 145.604C2.45865 145.653 2.7037 145.996 2.65469 146.339C2.60568 146.682 2.31163 146.878 2.01758 146.878C1.96857 146.878 1.96857 146.878 1.91956 146.878ZM181.928 144.575C181.585 144.379 181.487 143.987 181.683 143.693C181.879 143.35 182.271 143.252 182.565 143.448C182.859 143.644 183.006 144.036 182.81 144.33C182.663 144.526 182.467 144.673 182.222 144.673C182.124 144.624 182.026 144.624 181.928 144.575ZM2.55667 143.399C2.21361 143.301 2.01758 142.958 2.1156 142.566C2.21361 142.223 2.55667 142.026 2.94874 142.076C3.2918 142.174 3.53684 142.517 3.43883 142.909C3.34081 143.203 3.09577 143.399 2.80171 143.399C2.7037 143.448 2.65469 143.399 2.55667 143.399ZM183.545 141.438C183.202 141.291 183.055 140.899 183.251 140.556C183.398 140.213 183.79 140.066 184.133 140.262C184.476 140.409 184.623 140.801 184.427 141.144C184.329 141.389 184.084 141.536 183.839 141.536C183.741 141.487 183.643 141.438 183.545 141.438ZM3.63486 140.017C3.2918 139.87 3.14477 139.478 3.24279 139.135C3.38982 138.792 3.78188 138.645 4.12494 138.743C4.468 138.89 4.61503 139.282 4.51701 139.625C4.41899 139.87 4.17395 140.066 3.8799 140.066C3.78188 140.066 3.68387 140.066 3.63486 140.017ZM185.015 138.204C184.672 138.057 184.525 137.665 184.672 137.322C184.819 136.979 185.211 136.832 185.554 136.979C185.897 137.126 186.044 137.518 185.897 137.861C185.799 138.106 185.554 138.253 185.26 138.253C185.162 138.253 185.064 138.253 185.015 138.204ZM5.0561 136.783C4.76205 136.587 4.61503 136.194 4.81106 135.9C5.00709 135.557 5.39916 135.459 5.69321 135.655C6.03627 135.851 6.13429 136.243 5.93826 136.538C5.84024 136.734 5.59519 136.881 5.35015 136.881C5.25214 136.881 5.15412 136.832 5.0561 136.783ZM186.289 134.92C185.946 134.773 185.75 134.43 185.897 134.087C186.044 133.744 186.387 133.548 186.73 133.695C187.073 133.793 187.27 134.185 187.122 134.528C187.024 134.822 186.779 134.969 186.485 134.969C186.436 134.92 186.387 134.92 186.289 134.92ZM6.82041 133.744C6.52636 133.548 6.42834 133.107 6.62437 132.813C6.82041 132.519 7.26148 132.421 7.55553 132.617C7.84958 132.813 7.9476 133.254 7.75157 133.548C7.60454 133.744 7.40851 133.842 7.21247 133.842C7.06545 133.842 6.91842 133.793 6.82041 133.744ZM187.417 131.539C187.074 131.441 186.877 131.049 186.975 130.706C187.073 130.362 187.466 130.166 187.809 130.264C188.152 130.362 188.348 130.755 188.25 131.098C188.152 131.392 187.907 131.588 187.613 131.588C187.564 131.588 187.515 131.588 187.417 131.539ZM8.87876 130.853C8.58471 130.608 8.5357 130.215 8.78074 129.921C9.02579 129.627 9.41785 129.578 9.71191 129.823C10.006 130.068 10.055 130.46 9.80992 130.755C9.6629 130.951 9.46686 131 9.27083 131C9.1238 131 8.97678 130.951 8.87876 130.853ZM11.0841 128.059C10.7901 127.814 10.7901 127.422 10.9861 127.128C11.2312 126.834 11.6232 126.834 11.9173 127.03C12.2113 127.275 12.2113 127.667 12.0153 127.961C11.8683 128.108 11.7213 128.206 11.5252 128.206C11.3292 128.255 11.1822 128.157 11.0841 128.059ZM188.397 128.157C188.054 128.059 187.809 127.716 187.907 127.373C188.005 127.03 188.348 126.785 188.691 126.883C189.034 126.981 189.279 127.324 189.181 127.667C189.083 127.961 188.838 128.157 188.544 128.157C188.495 128.157 188.446 128.157 188.397 128.157ZM13.3875 125.413C13.1425 125.168 13.0935 124.776 13.3385 124.481C13.5836 124.187 13.9756 124.187 14.2697 124.432C14.5637 124.677 14.5637 125.07 14.3187 125.364C14.1717 125.511 14.0246 125.609 13.8286 125.609C13.6816 125.56 13.5346 125.511 13.3875 125.413ZM189.181 124.677C188.838 124.628 188.593 124.285 188.642 123.893C188.691 123.55 189.034 123.305 189.426 123.354C189.769 123.403 190.014 123.746 189.965 124.138C189.916 124.481 189.622 124.677 189.328 124.677C189.279 124.727 189.23 124.677 189.181 124.677ZM15.7399 122.766C15.4459 122.521 15.4459 122.129 15.6909 121.835C15.936 121.541 16.328 121.541 16.6221 121.786C16.9161 122.031 16.9161 122.423 16.6711 122.717C16.5241 122.864 16.3771 122.962 16.181 122.962C16.034 122.913 15.887 122.864 15.7399 122.766ZM189.769 121.198C189.426 121.149 189.132 120.806 189.181 120.463C189.23 120.12 189.573 119.826 189.916 119.875C190.259 119.924 190.553 120.267 190.504 120.61C190.455 120.953 190.161 121.198 189.867 121.198C189.818 121.198 189.818 121.198 189.769 121.198ZM18.0924 120.12C17.7983 119.875 17.7983 119.483 17.9943 119.189C18.2394 118.895 18.6314 118.895 18.9255 119.091C19.2195 119.336 19.2195 119.728 19.0235 120.022C18.8765 120.169 18.7295 120.267 18.5334 120.267C18.3374 120.267 18.1904 120.218 18.0924 120.12ZM190.161 117.669C189.818 117.62 189.524 117.326 189.573 116.983C189.622 116.64 189.916 116.346 190.259 116.395C190.602 116.444 190.896 116.738 190.896 117.081C190.847 117.424 190.602 117.669 190.259 117.669C190.21 117.669 190.161 117.669 190.161 117.669ZM20.2977 117.375C20.0037 117.179 19.9547 116.738 20.1507 116.444C20.3467 116.15 20.7878 116.101 21.0819 116.297C21.3759 116.493 21.4249 116.934 21.2289 117.228C21.0819 117.424 20.8858 117.473 20.6898 117.473C20.5918 117.473 20.4448 117.424 20.2977 117.375ZM22.3561 114.484C22.062 114.288 21.964 113.896 22.1601 113.553C22.3561 113.259 22.7482 113.161 23.0912 113.357C23.3853 113.553 23.4833 113.945 23.2872 114.288C23.1402 114.484 22.9442 114.582 22.7482 114.582C22.6011 114.582 22.5031 114.533 22.3561 114.484ZM190.357 114.141C190.014 114.141 189.72 113.847 189.72 113.455C189.72 113.112 190.014 112.817 190.406 112.817C190.749 112.817 191.043 113.112 191.043 113.504C191.043 113.847 190.749 114.141 190.357 114.141ZM24.2184 111.445C23.8753 111.298 23.7773 110.857 23.9244 110.563C24.1204 110.22 24.5125 110.122 24.8065 110.269C25.1496 110.465 25.2476 110.857 25.1006 111.151C25.0025 111.396 24.7575 111.494 24.5125 111.494C24.4144 111.543 24.3164 111.494 24.2184 111.445ZM189.72 109.975C189.72 109.632 190.014 109.289 190.357 109.289C190.7 109.289 191.043 109.583 191.043 109.926C191.043 110.269 190.749 110.612 190.406 110.612C190.014 110.612 189.72 110.318 189.72 109.975ZM25.7377 108.26C25.3946 108.113 25.1986 107.77 25.3456 107.427C25.4926 107.083 25.8357 106.887 26.1787 107.034C26.5218 107.181 26.6688 107.525 26.5708 107.868C26.4728 108.113 26.2278 108.309 25.9337 108.309C25.8847 108.309 25.7867 108.26 25.7377 108.26ZM189.524 106.495C189.475 106.152 189.769 105.809 190.112 105.809C190.455 105.76 190.798 106.054 190.847 106.397C190.896 106.74 190.602 107.083 190.259 107.132H190.21C189.818 107.083 189.524 106.838 189.524 106.495ZM26.8159 104.878C26.4728 104.78 26.2278 104.437 26.3258 104.094C26.4238 103.751 26.7668 103.506 27.1099 103.604C27.453 103.702 27.698 104.045 27.6 104.388C27.551 104.682 27.2569 104.927 26.9629 104.927C26.9139 104.927 26.8649 104.878 26.8159 104.878ZM189.132 103.016C189.083 102.673 189.328 102.33 189.72 102.281C190.063 102.232 190.406 102.477 190.455 102.869C190.504 103.212 190.259 103.555 189.867 103.604C189.818 103.604 189.818 103.604 189.769 103.604C189.475 103.555 189.181 103.31 189.132 103.016ZM27.404 101.398C27.0609 101.398 26.7668 101.055 26.7668 100.712C26.7668 100.369 27.1099 100.075 27.453 100.075C27.796 100.075 28.0901 100.418 28.0901 100.761C28.0901 101.104 27.796 101.398 27.404 101.398ZM188.593 99.5362C188.544 99.1931 188.74 98.8501 189.132 98.752C189.475 98.703 189.818 98.8991 189.916 99.2911C189.965 99.6342 189.769 99.9772 189.377 100.075C189.328 100.075 189.279 100.075 189.279 100.075C188.887 100.075 188.642 99.8302 188.593 99.5362ZM26.5708 97.3308C26.5218 96.9877 26.7668 96.6447 27.1099 96.5957C27.453 96.5467 27.796 96.7917 27.845 97.1348C27.894 97.4778 27.649 97.8209 27.3059 97.8699C27.2569 97.8699 27.2569 97.8699 27.2079 97.8699C26.9139 97.8699 26.6198 97.6248 26.5708 97.3308ZM187.858 96.1056C187.76 95.7625 188.005 95.4195 188.348 95.3214C188.691 95.2234 189.083 95.4685 189.132 95.8115C189.23 96.1546 188.985 96.5467 188.642 96.5957C188.593 96.5957 188.544 96.5957 188.495 96.5957C188.201 96.5957 187.907 96.3996 187.858 96.1056ZM25.7867 93.9982C25.6887 93.6551 25.8357 93.2631 26.1787 93.1651C26.5218 93.0671 26.9139 93.2141 27.0119 93.5571C27.1099 93.9002 26.9629 94.2923 26.6198 94.3903C26.5708 94.3903 26.4728 94.4393 26.4238 94.4393C26.1297 94.4393 25.8357 94.2923 25.7867 93.9982ZM186.926 92.724C186.828 92.3809 187.024 91.9889 187.368 91.8908C187.711 91.7928 188.103 91.9889 188.201 92.3319C188.299 92.675 188.103 93.0671 187.76 93.1651C187.711 93.1651 187.613 93.2141 187.564 93.2141C187.27 93.2141 187.024 93.0181 186.926 92.724ZM24.4144 90.8617C24.2674 90.5186 24.3654 90.1265 24.7085 89.9795C25.0515 89.8325 25.4436 89.9305 25.5906 90.2736C25.7377 90.6166 25.6397 91.0087 25.2966 91.1557C25.1986 91.2047 25.1006 91.2537 25.0025 91.2537C24.7575 91.2047 24.5125 91.0577 24.4144 90.8617ZM185.848 89.3914C185.75 89.0484 185.897 88.6563 186.24 88.5583C186.583 88.4603 186.975 88.6073 187.073 88.9503C187.172 89.2934 187.024 89.6855 186.681 89.7835C186.632 89.7835 186.534 89.8325 186.485 89.8325C186.24 89.8325 185.946 89.6365 185.848 89.3914ZM22.6501 87.8232C22.4541 87.5291 22.5521 87.088 22.8462 86.892C23.1402 86.6959 23.5813 86.794 23.7773 87.088C23.9734 87.3821 23.8753 87.8232 23.5813 88.0192C23.4833 88.1172 23.3363 88.1172 23.2382 88.1172C22.9932 88.1662 22.7972 88.0192 22.6501 87.8232ZM184.623 86.1079C184.476 85.7648 184.672 85.3727 184.966 85.2257C185.309 85.0787 185.701 85.2747 185.848 85.5688C185.995 85.9118 185.799 86.3039 185.505 86.4509C185.407 86.4999 185.358 86.4999 185.26 86.4999C185.015 86.4999 184.77 86.3529 184.623 86.1079ZM20.6408 84.9807C20.4448 84.6866 20.4938 84.2945 20.7878 84.0495C21.0819 83.8535 21.4739 83.9025 21.719 84.1965C21.915 84.4906 21.866 84.8826 21.572 85.1277C21.4739 85.2257 21.3269 85.2747 21.1799 85.2747C20.9838 85.2257 20.7878 85.1767 20.6408 84.9807ZM183.251 82.8733C183.104 82.5302 183.251 82.1382 183.594 81.9911C183.937 81.8441 184.329 81.9911 184.476 82.3342C184.623 82.6773 184.476 83.0693 184.133 83.2163C184.035 83.2654 183.937 83.2654 183.839 83.2654C183.594 83.2654 183.349 83.1183 183.251 82.8733ZM18.4844 82.1872C18.2394 81.8931 18.2884 81.5011 18.5824 81.256C18.8765 81.011 19.2686 81.06 19.5136 81.354C19.7586 81.6481 19.7096 82.0401 19.4156 82.2852C19.2686 82.3832 19.1705 82.4322 19.0235 82.4322C18.8275 82.4322 18.6314 82.3342 18.4844 82.1872ZM181.732 79.7368C181.536 79.3937 181.683 79.0016 182.026 78.8546C182.369 78.6586 182.761 78.8056 182.908 79.1487C183.104 79.4917 182.957 79.8838 182.614 80.0308C182.516 80.0798 182.418 80.1288 182.32 80.1288C182.075 80.0798 181.83 79.9328 181.732 79.7368ZM16.279 79.3937C16.034 79.0996 16.083 78.7076 16.3771 78.4625C16.6711 78.2175 17.0632 78.2665 17.3082 78.5605C17.5533 78.8546 17.5042 79.2467 17.2102 79.4917C17.0632 79.5897 16.9652 79.6387 16.8181 79.6387C16.6221 79.6877 16.4261 79.5897 16.279 79.3937ZM180.016 76.6492C179.82 76.3552 179.918 75.9141 180.261 75.7671C180.555 75.571 180.996 75.6691 181.143 76.0121C181.339 76.3062 181.241 76.7472 180.898 76.8943C180.8 76.9433 180.702 76.9923 180.555 76.9923C180.359 76.9923 180.114 76.8943 180.016 76.6492ZM14.1227 76.6002C13.9266 76.3062 13.9756 75.9141 14.2697 75.669C14.5637 75.473 14.9558 75.522 15.2009 75.8161C15.3969 76.1101 15.3479 76.5022 15.0538 76.7472C14.9558 76.8453 14.8088 76.8943 14.6618 76.8943C14.4657 76.8453 14.2697 76.7472 14.1227 76.6002ZM178.154 73.7087C177.958 73.4147 178.056 72.9736 178.35 72.7775C178.644 72.5815 179.085 72.6795 179.281 72.9736C179.477 73.2676 179.379 73.7087 179.085 73.9047C178.987 74.0028 178.84 74.0028 178.742 74.0028C178.497 74.0028 178.301 73.8557 178.154 73.7087ZM12.1133 73.6597C11.9173 73.3656 12.0153 72.9246 12.3094 72.7285C12.6034 72.5325 13.0445 72.6305 13.2405 72.9246C13.4365 73.2186 13.3385 73.6597 13.0445 73.8557C12.9465 73.9048 12.7994 73.9538 12.7014 73.9538C12.4564 73.9538 12.2113 73.8557 12.1133 73.6597ZM176.145 70.8172C175.949 70.5232 175.998 70.1311 176.292 69.8861C176.586 69.69 176.978 69.739 177.223 70.0331C177.419 70.3271 177.37 70.7192 177.076 70.9642C176.978 71.0622 176.831 71.1113 176.684 71.1113C176.488 71.0623 176.292 70.9642 176.145 70.8172ZM10.3 70.5232C10.153 70.1801 10.251 69.788 10.5941 69.641C10.9371 69.494 11.3292 69.592 11.4762 69.9351C11.6232 70.2781 11.5252 70.6702 11.1822 70.8172C11.0841 70.8662 10.9861 70.9152 10.8881 70.9152C10.6431 70.8662 10.398 70.7682 10.3 70.5232ZM173.988 68.0237C173.743 67.7297 173.792 67.3376 174.086 67.0926C174.38 66.8475 174.772 66.8965 175.017 67.1906C175.262 67.4846 175.213 67.8767 174.919 68.1217C174.772 68.2198 174.625 68.2688 174.478 68.2688C174.331 68.2688 174.135 68.2198 173.988 68.0237ZM8.78074 67.2886C8.63372 66.9455 8.78075 66.5535 9.12381 66.4065C9.46686 66.2594 9.85893 66.4065 10.006 66.7495C10.153 67.0926 10.006 67.4846 9.6629 67.6317C9.56488 67.6807 9.51587 67.6807 9.41786 67.6807C9.1238 67.6807 8.87876 67.5336 8.78074 67.2886ZM171.734 65.3773C171.489 65.1322 171.489 64.6912 171.783 64.4461C172.028 64.2011 172.469 64.2011 172.714 64.4951C172.959 64.7402 172.959 65.1812 172.665 65.4263C172.518 65.5243 172.371 65.6223 172.224 65.6223C172.028 65.6223 171.832 65.5243 171.734 65.3773ZM7.55553 63.907C7.45752 63.564 7.65355 63.1719 7.99661 63.0739C8.33967 62.9759 8.73174 63.1719 8.82976 63.515C8.92777 63.858 8.73174 64.2501 8.38868 64.3481C8.33967 64.3481 8.24165 64.3971 8.19264 64.3971C7.89859 64.3481 7.60454 64.2011 7.55553 63.907ZM169.283 62.8778C169.038 62.6328 169.038 62.1917 169.283 61.9467C169.528 61.7016 169.97 61.7016 170.215 61.9467C170.46 62.1917 170.46 62.6328 170.215 62.8778C170.068 63.0249 169.921 63.0739 169.724 63.0739C169.577 63.0249 169.43 62.9759 169.283 62.8778ZM6.57536 60.4274C6.47735 60.0844 6.72239 59.7413 7.06545 59.6433C7.40851 59.5453 7.75157 59.7903 7.84959 60.1334C7.9476 60.4764 7.70256 60.8195 7.3595 60.9175C7.31049 60.9175 7.26148 60.9175 7.21247 60.9175C6.91842 60.9665 6.62437 60.7705 6.57536 60.4274ZM166.735 60.4764C166.441 60.2314 166.441 59.8393 166.686 59.5453C166.931 59.2512 167.323 59.2512 167.617 59.4963C167.911 59.7413 167.911 60.1334 167.666 60.4274C167.519 60.5744 167.372 60.6725 167.176 60.6725C167.029 60.6235 166.882 60.5744 166.735 60.4764ZM164.04 58.173C163.745 57.928 163.745 57.5359 163.941 57.2419C164.187 56.9478 164.579 56.9478 164.873 57.1439C165.167 57.3889 165.167 57.781 164.971 58.075C164.824 58.222 164.677 58.3201 164.481 58.3201C164.334 58.3201 164.187 58.2711 164.04 58.173ZM5.88925 56.8988C5.84024 56.5558 6.08528 56.2127 6.42834 56.1637C6.7714 56.1147 7.11446 56.3597 7.16347 56.7028C7.21248 57.0458 6.96743 57.3889 6.62437 57.4379C6.57537 57.4379 6.57536 57.4379 6.52636 57.4379C6.23231 57.4869 5.93826 57.2419 5.88925 56.8988ZM161.344 55.8696C161.05 55.6246 161.05 55.2325 161.246 54.9385C161.491 54.6444 161.883 54.6444 162.177 54.8895C162.471 55.1345 162.471 55.5266 162.226 55.8206C162.079 55.9677 161.932 56.0657 161.736 56.0657C161.638 56.0657 161.491 56.0167 161.344 55.8696ZM5.49718 53.3212C5.44817 52.9781 5.74222 52.6351 6.13429 52.6351C6.47735 52.5861 6.82041 52.8801 6.82041 53.2722C6.82041 53.6152 6.57537 53.9583 6.1833 53.9583H6.13429C5.84024 53.9583 5.54619 53.6643 5.49718 53.3212ZM158.698 53.5172C158.453 53.2722 158.404 52.8311 158.649 52.5861C158.894 52.341 159.335 52.292 159.58 52.5371C159.825 52.7821 159.874 53.2232 159.629 53.4682C159.482 53.6152 159.335 53.6643 159.139 53.6643C158.992 53.7133 158.796 53.6152 158.698 53.5172ZM156.149 50.9688C155.904 50.6747 155.953 50.2827 156.198 50.0376C156.492 49.7926 156.884 49.8416 157.129 50.0866C157.374 50.3807 157.325 50.7728 157.08 51.0178C156.933 51.1158 156.786 51.1648 156.639 51.1648C156.492 51.1648 156.296 51.1158 156.149 50.9688ZM6.08528 50.4297C5.74222 50.4297 5.44817 50.1357 5.44817 49.7436C5.44817 49.4005 5.74222 49.1065 6.13429 49.1065C6.47735 49.1065 6.7714 49.4005 6.7714 49.7926C6.72239 50.1356 6.42834 50.4297 6.08528 50.4297ZM153.895 48.1263C153.699 47.8323 153.748 47.3912 154.091 47.1951C154.385 46.9991 154.777 47.0481 155.022 47.3912C155.218 47.6852 155.169 48.1263 154.826 48.3223C154.728 48.4203 154.581 48.4203 154.434 48.4203C154.238 48.3713 154.042 48.2733 153.895 48.1263ZM6.23231 46.9011C5.88925 46.8521 5.5952 46.558 5.64421 46.166C5.69321 45.8229 5.98727 45.5289 6.37933 45.5779C6.72239 45.6269 7.01644 45.9209 6.96743 46.313C6.91842 46.6561 6.62437 46.9011 6.33032 46.9011C6.28131 46.9011 6.28131 46.9011 6.23231 46.9011ZM152.13 44.8917C151.983 44.5487 152.13 44.1566 152.474 44.0096C152.817 43.8626 153.209 44.0096 153.356 44.3527C153.503 44.6957 153.356 45.0878 153.013 45.2348C152.915 45.2838 152.817 45.2838 152.768 45.2838C152.474 45.3328 152.228 45.1858 152.13 44.8917ZM6.72239 43.3725C6.37933 43.3235 6.13429 42.9314 6.1833 42.5883C6.23231 42.2453 6.62437 42.0002 6.96743 42.0493C7.31049 42.1473 7.55553 42.4903 7.50653 42.8334C7.45752 43.1274 7.16347 43.3725 6.86942 43.3725C6.7714 43.3725 6.72239 43.3725 6.72239 43.3725ZM60.6317 41.4612C60.6317 41.1181 60.8767 40.775 61.2688 40.775C61.6119 40.775 61.9549 41.0201 61.9549 41.4121C61.9549 41.7552 61.7099 42.0983 61.3178 42.0983C61.3178 42.0983 61.3178 42.0983 61.2688 42.0983C60.9747 42.0983 60.6807 41.8532 60.6317 41.4612ZM151.003 41.4121C150.954 41.0691 151.15 40.726 151.542 40.628C151.885 40.579 152.228 40.775 152.326 41.1671C152.376 41.5102 152.179 41.8532 151.787 41.9512C151.738 41.9512 151.689 41.9512 151.64 41.9512C151.346 41.9512 151.101 41.7062 151.003 41.4121ZM57.6912 41.9022C57.3481 41.8532 57.1031 41.5102 57.1521 41.1671C57.2011 40.824 57.5442 40.579 57.8872 40.628C58.2303 40.677 58.4753 41.0201 58.4263 41.3631C58.3773 41.7062 58.0832 41.9022 57.7892 41.9022C57.7402 41.9022 57.7402 41.9022 57.6912 41.9022ZM64.1603 41.0691C64.0623 40.726 64.3073 40.334 64.6504 40.285C64.9934 40.1869 65.3855 40.383 65.4345 40.775C65.5325 41.1181 65.2875 41.5102 64.9444 41.5592C64.8954 41.5592 64.8464 41.5592 64.7974 41.5592C64.5034 41.6082 64.2583 41.4121 64.1603 41.0691ZM54.1626 41.0691C53.8195 40.9711 53.6235 40.579 53.7215 40.2359C53.8195 39.8929 54.2116 39.6968 54.5546 39.7949C54.8977 39.8929 55.0937 40.285 54.9957 40.628C54.8977 40.9221 54.6527 41.0691 54.3586 41.0691C54.2606 41.0691 54.2116 41.0691 54.1626 41.0691ZM67.5419 39.9909C67.3949 39.6478 67.5419 39.2558 67.8849 39.1087C68.228 38.9617 68.6201 39.1087 68.7671 39.4518C68.9141 39.7949 68.7671 40.1869 68.424 40.334C68.326 40.383 68.228 40.383 68.13 40.383C67.8849 40.383 67.6399 40.2359 67.5419 39.9909ZM7.50653 39.9419C7.16347 39.8439 6.96743 39.4518 7.06545 39.1087C7.16347 38.7657 7.55553 38.5697 7.89859 38.6677C8.24165 38.7657 8.43769 39.1578 8.33967 39.5008C8.24165 39.7949 7.99661 39.9419 7.70256 39.9419C7.65355 39.9909 7.60454 39.9419 7.50653 39.9419ZM50.781 39.6968C50.4379 39.5498 50.2909 39.1578 50.4869 38.8147C50.634 38.4716 51.026 38.3246 51.3691 38.5206C51.7122 38.6677 51.8592 39.0597 51.6631 39.4028C51.5651 39.6478 51.3201 39.7949 51.075 39.7949C50.977 39.7459 50.879 39.7459 50.781 39.6968ZM70.6784 38.3736C70.4824 38.0796 70.5804 37.6385 70.8745 37.4425C71.1685 37.2464 71.6096 37.3444 71.8056 37.6385C72.0016 37.9325 71.9036 38.3736 71.6096 38.5697C71.5116 38.6187 71.3645 38.6677 71.2665 38.6677C71.0215 38.6677 70.7764 38.5697 70.6784 38.3736ZM150.66 37.7855C150.66 37.4425 150.954 37.0994 151.297 37.0994C151.64 37.0994 151.934 37.3934 151.983 37.7365C151.983 38.0796 151.689 38.3736 151.346 38.4226C150.954 38.4226 150.66 38.1286 150.66 37.7855ZM47.5954 38.0306C47.3014 37.8345 47.1544 37.4425 47.3504 37.1484C47.5464 36.8544 47.9385 36.7073 48.2325 36.9034C48.5266 37.0994 48.6736 37.4915 48.4776 37.7855C48.3306 37.9816 48.1345 38.1286 47.8895 38.1286C47.8405 38.1286 47.6935 38.0796 47.5954 38.0306ZM8.78074 36.6093C8.43768 36.4623 8.29066 36.0702 8.48669 35.7272C8.63372 35.3841 9.02579 35.2371 9.36885 35.4331C9.71191 35.5801 9.85893 35.9722 9.6629 36.3153C9.56488 36.5603 9.31984 36.7073 9.0748 36.7073C8.92777 36.6583 8.82975 36.6583 8.78074 36.6093ZM73.5699 36.3643C73.3249 36.0702 73.3739 35.6782 73.6679 35.4331C73.962 35.1881 74.354 35.2371 74.5991 35.5311C74.8441 35.8252 74.7951 36.2172 74.5011 36.4623C74.354 36.5603 74.207 36.6093 74.06 36.6093C73.864 36.6093 73.7169 36.5113 73.5699 36.3643ZM44.5569 36.1682C44.2629 35.9722 44.1648 35.5801 44.3609 35.2371C44.5569 34.943 44.949 34.845 45.292 35.041C45.5861 35.2371 45.6841 35.6291 45.4881 35.9722C45.3411 36.1682 45.145 36.2663 44.949 36.2663C44.802 36.2663 44.6549 36.2172 44.5569 36.1682ZM151.493 34.894C151.15 34.845 150.856 34.502 150.905 34.1589C150.954 33.8158 151.297 33.5218 151.64 33.5708C151.983 33.6198 152.277 33.9629 152.228 34.3059C152.179 34.649 151.885 34.894 151.591 34.894C151.542 34.894 151.493 34.894 151.493 34.894ZM41.5674 34.2079C41.2733 34.0119 41.1753 33.5708 41.3714 33.2767C41.5674 32.9827 42.0085 32.8847 42.3025 33.0807C42.5966 33.2767 42.6946 33.7178 42.4986 34.0119C42.3515 34.2079 42.1555 34.3059 41.9595 34.3059C41.8124 34.3059 41.7144 34.3059 41.5674 34.2079ZM76.2164 34.0119C75.9713 33.7668 75.9713 33.3257 76.2164 33.0807C76.4614 32.8357 76.9025 32.8357 77.1475 33.0807C77.3926 33.3257 77.3926 33.7668 77.1475 34.0119C77.0005 34.1589 76.8535 34.2079 76.6574 34.2079C76.5104 34.2079 76.3634 34.1589 76.2164 34.0119ZM10.447 33.5218C10.153 33.3257 10.055 32.8847 10.251 32.5906C10.447 32.2966 10.8881 32.1986 11.1822 32.3946C11.4762 32.5906 11.5742 33.0317 11.3292 33.3257C11.1822 33.5218 10.9861 33.6198 10.7901 33.6198C10.6921 33.6198 10.545 33.5708 10.447 33.5218ZM38.6269 32.2966C38.3328 32.1005 38.2348 31.7085 38.4309 31.3654C38.6269 31.0714 39.019 30.9733 39.362 31.1694C39.6561 31.3654 39.7541 31.7575 39.5581 32.1005C39.411 32.2966 39.215 32.3946 39.019 32.3946C38.8719 32.3946 38.7739 32.3456 38.6269 32.2966ZM78.6668 31.4634C78.3727 31.2184 78.3727 30.8263 78.6178 30.5323C78.8628 30.2382 79.2549 30.2382 79.549 30.4833C79.843 30.7283 79.843 31.1204 79.598 31.4144C79.4509 31.5614 79.3039 31.6595 79.1079 31.6595C78.9118 31.6105 78.7648 31.5614 78.6668 31.4634ZM151.983 31.4144C151.64 31.3654 151.395 31.0224 151.444 30.6303C151.493 30.2872 151.836 30.0422 152.228 30.0912C152.572 30.1402 152.817 30.4833 152.768 30.8753C152.719 31.1694 152.425 31.4144 152.13 31.4144C152.081 31.4144 152.032 31.4144 151.983 31.4144ZM12.6034 30.6793C12.3584 30.4342 12.3584 29.9932 12.6034 29.7481C12.8484 29.5031 13.2895 29.5031 13.5346 29.7481C13.7796 29.9932 13.7796 30.4342 13.5346 30.6793C13.3875 30.8263 13.2405 30.8753 13.0445 30.8753C12.8975 30.8753 12.7504 30.8263 12.6034 30.6793ZM35.6374 30.4833C35.3433 30.2872 35.1963 29.8952 35.3923 29.6011C35.5884 29.258 35.9804 29.16 36.2745 29.3561C36.5685 29.5521 36.7156 29.9442 36.5195 30.2382C36.4215 30.4343 36.1765 30.5813 35.9314 30.5813C35.8334 30.5813 35.7354 30.5323 35.6374 30.4833ZM32.5498 28.915C32.2068 28.768 32.0598 28.3759 32.2068 28.0328C32.3538 27.6898 32.7459 27.5428 33.0889 27.6898C33.432 27.8368 33.579 28.2289 33.432 28.5719C33.334 28.817 33.0889 28.964 32.8439 28.964C32.6969 28.964 32.6479 28.964 32.5498 28.915ZM80.9212 28.719C80.6271 28.4739 80.5781 28.0818 80.8232 27.7878C81.0682 27.4937 81.4603 27.4447 81.7543 27.6898C82.0484 27.9348 82.0974 28.3269 81.8523 28.6209C81.7053 28.768 81.5093 28.866 81.3132 28.866C81.2152 28.866 81.0682 28.817 80.9212 28.719ZM15.2989 28.4249C15.1028 28.1309 15.2009 27.6898 15.4949 27.4937C15.789 27.2977 16.23 27.3957 16.4261 27.6898C16.6221 27.9838 16.5241 28.4249 16.23 28.6209C16.132 28.6699 15.985 28.719 15.887 28.719C15.6419 28.719 15.3969 28.6209 15.2989 28.4249ZM152.621 27.9348C152.277 27.8858 152.032 27.5428 152.081 27.1507C152.13 26.8076 152.474 26.5626 152.866 26.6116C153.209 26.6606 153.454 27.0037 153.405 27.3957C153.356 27.7388 153.062 27.9348 152.768 27.9348C152.719 27.9348 152.67 27.9348 152.621 27.9348ZM29.3153 27.6408C28.9722 27.5428 28.7762 27.1507 28.8742 26.8076C28.9722 26.4646 29.3643 26.2685 29.7074 26.3665C30.0504 26.4646 30.2464 26.8566 30.1484 27.1997C30.0504 27.4937 29.8054 27.6408 29.5113 27.6408C29.4623 27.6898 29.3643 27.6898 29.3153 27.6408ZM18.4354 26.8076C18.3374 26.4646 18.5334 26.0725 18.8765 25.9745C19.2195 25.8765 19.6116 26.0725 19.7096 26.4156C19.8076 26.7586 19.6116 27.1507 19.2686 27.2487C19.2195 27.2487 19.1215 27.2977 19.0725 27.2977C18.7785 27.2977 18.5334 27.1017 18.4354 26.8076ZM25.9827 26.8566C25.6397 26.8076 25.3946 26.4646 25.4436 26.1215C25.4926 25.7784 25.8357 25.5334 26.1787 25.5824C26.5218 25.6314 26.7668 25.9745 26.7178 26.3175C26.6688 26.6606 26.3748 26.8566 26.0807 26.8566C26.0317 26.8566 25.9827 26.8566 25.9827 26.8566ZM21.866 26.0725C21.866 25.7294 22.111 25.3864 22.5031 25.3864C22.8462 25.3864 23.1892 25.6314 23.1892 26.0235C23.1892 26.3665 22.9442 26.7096 22.5521 26.7096C22.5521 26.7096 22.5521 26.7096 22.5031 26.7096C22.2091 26.6606 21.915 26.4156 21.866 26.0725ZM83.1266 25.9745C82.8325 25.7294 82.7835 25.3374 83.0285 25.0433C83.2736 24.7493 83.6657 24.7003 83.9597 24.9453C84.2538 25.1903 84.3028 25.5824 84.0577 25.8765C83.9107 26.0235 83.7147 26.1215 83.5186 26.1215C83.4206 26.1215 83.2736 26.0725 83.1266 25.9745ZM153.209 24.4062C152.866 24.3572 152.572 24.0632 152.621 23.6711C152.67 23.328 153.013 23.034 153.356 23.083C153.699 23.132 153.993 23.475 153.944 23.8181C153.895 24.1612 153.601 24.4062 153.307 24.4062C153.258 24.4062 153.209 24.4062 153.209 24.4062ZM85.3319 23.181C85.0379 22.936 84.9889 22.5439 85.2339 22.2498C85.479 21.9558 85.871 21.9068 86.1651 22.1518C86.4591 22.3969 86.5081 22.7889 86.2631 23.083C86.1161 23.23 85.92 23.328 85.773 23.328C85.626 23.328 85.479 23.279 85.3319 23.181ZM152.817 20.2405C152.817 19.8974 153.111 19.5544 153.454 19.5544C153.797 19.5544 154.14 19.8484 154.14 20.1915C154.14 20.5345 153.846 20.8776 153.503 20.8776C153.111 20.8776 152.817 20.5836 152.817 20.2405ZM87.6353 20.4855C87.3413 20.2405 87.3413 19.8484 87.5863 19.5544C87.8314 19.3093 88.2234 19.2603 88.5175 19.5054C88.8115 19.7504 88.8115 20.1425 88.5665 20.4365C88.4195 20.5836 88.2725 20.6326 88.0764 20.6326C87.8804 20.6816 87.7334 20.5836 87.6353 20.4855ZM90.0368 17.8881C89.7917 17.643 89.7917 17.202 90.0368 16.9569C90.2818 16.7119 90.7229 16.7119 90.9679 16.9569C91.213 17.202 91.213 17.643 90.9679 17.8881C90.8209 18.0351 90.6739 18.0841 90.5268 18.0841C90.3308 18.0841 90.1838 18.0351 90.0368 17.8881ZM152.474 16.8589C152.375 16.5159 152.621 16.1728 152.964 16.0748C153.307 15.9768 153.65 16.2218 153.748 16.5649C153.846 16.9079 153.601 17.251 153.258 17.349C153.209 17.349 153.16 17.349 153.111 17.349C152.817 17.398 152.523 17.153 152.474 16.8589ZM92.5852 15.4867C92.3401 15.1926 92.3892 14.8006 92.6342 14.5555C92.9283 14.3105 93.3203 14.3595 93.5654 14.6045C93.8104 14.8986 93.7614 15.2906 93.5164 15.5357C93.3693 15.6337 93.2223 15.6827 93.0753 15.6827C92.9283 15.6827 92.7322 15.6337 92.5852 15.4867ZM151.395 13.6244C151.248 13.2813 151.395 12.8892 151.738 12.7422C152.081 12.5952 152.474 12.7422 152.621 13.0853C152.768 13.4283 152.621 13.8204 152.277 13.9674C152.179 14.0164 152.081 14.0164 152.032 14.0164C151.738 14.0164 151.542 13.8694 151.395 13.6244ZM95.3297 13.1833C95.1336 12.8892 95.1826 12.4972 95.4767 12.2521C95.7707 12.0071 96.1628 12.1051 96.4079 12.3501C96.6529 12.6442 96.5549 13.0362 96.3098 13.2813C96.2118 13.3793 96.0648 13.4283 95.9178 13.4283C95.6237 13.4773 95.4277 13.3793 95.3297 13.1833ZM98.1722 11.0759C97.9761 10.7819 98.0251 10.3408 98.3682 10.1448C98.6622 9.94872 99.1033 9.99772 99.2993 10.3408C99.4954 10.6348 99.4464 11.0759 99.1033 11.2719C99.0053 11.37 98.8583 11.37 98.7113 11.37C98.5152 11.37 98.2702 11.2719 98.1722 11.0759ZM149.729 10.6838C149.533 10.3898 149.582 9.99773 149.876 9.75268C150.17 9.55665 150.562 9.60566 150.807 9.89971C151.003 10.1938 150.954 10.5858 150.66 10.8309C150.562 10.9289 150.415 10.9289 150.268 10.9289C150.072 10.9289 149.827 10.8309 149.729 10.6838ZM101.113 9.16458C100.917 8.87053 101.015 8.42946 101.358 8.23342C101.652 8.03739 102.093 8.1354 102.289 8.47846C102.485 8.77251 102.387 9.21359 102.044 9.40963C101.946 9.45863 101.799 9.50764 101.701 9.50764C101.456 9.45863 101.26 9.36062 101.113 9.16458ZM147.524 8.08639C147.279 7.84135 147.279 7.40028 147.524 7.15524C147.769 6.91019 148.21 6.91019 148.455 7.15524C148.7 7.40028 148.7 7.84135 148.455 8.08639C148.308 8.23342 148.161 8.28243 147.965 8.28243C147.818 8.23342 147.622 8.18441 147.524 8.08639ZM104.2 7.40028C104.053 7.05722 104.151 6.66515 104.494 6.51813C104.837 6.32209 105.229 6.46912 105.376 6.81218C105.523 7.15523 105.425 7.5473 105.082 7.69433C104.984 7.74334 104.886 7.79234 104.788 7.79234C104.543 7.74334 104.298 7.64532 104.2 7.40028ZM107.386 5.83201C107.239 5.48895 107.386 5.09688 107.729 4.94985C108.072 4.80283 108.464 4.94986 108.611 5.29291C108.758 5.63597 108.611 6.02804 108.268 6.17507C108.17 6.22407 108.072 6.22407 108.023 6.22407C107.729 6.22407 107.484 6.07705 107.386 5.83201ZM144.877 5.88101C144.583 5.68498 144.534 5.24391 144.73 4.94985C144.926 4.6558 145.367 4.6068 145.661 4.80283C145.955 4.99886 146.004 5.43994 145.808 5.73399C145.661 5.93002 145.465 6.02804 145.269 6.02804C145.122 5.97903 144.975 5.93002 144.877 5.88101ZM110.62 4.45977C110.473 4.11671 110.669 3.72464 111.012 3.62663C111.355 3.4796 111.747 3.67563 111.846 4.01869C111.993 4.36175 111.797 4.75382 111.453 4.85184C111.355 4.90085 111.306 4.90085 111.208 4.90085C110.963 4.85184 110.718 4.70481 110.62 4.45977ZM141.937 4.0677C141.594 3.92068 141.496 3.4796 141.643 3.18555C141.79 2.84249 142.231 2.74447 142.525 2.8915C142.868 3.03852 142.966 3.43059 142.819 3.77365C142.721 4.01869 142.476 4.11671 142.231 4.11671C142.133 4.16572 142.035 4.11671 141.937 4.0677ZM113.953 3.28357C113.855 2.94051 114.051 2.54844 114.394 2.45042C114.737 2.35241 115.129 2.54844 115.227 2.8915C115.325 3.23456 115.129 3.62663 114.786 3.72464C114.737 3.72464 114.639 3.77365 114.59 3.77365C114.296 3.72464 114.051 3.52861 113.953 3.28357ZM138.751 2.79348C138.408 2.69547 138.212 2.3034 138.31 1.96034C138.408 1.61728 138.8 1.42125 139.143 1.51926C139.486 1.61728 139.682 2.00935 139.584 2.35241C139.486 2.64646 139.241 2.79348 138.947 2.79348C138.898 2.79348 138.849 2.79348 138.751 2.79348ZM117.383 2.3034C117.285 1.96034 117.53 1.56827 117.874 1.51926C118.217 1.42125 118.56 1.66629 118.658 2.00935C118.756 2.35241 118.511 2.69547 118.168 2.79348C118.119 2.79348 118.07 2.79348 118.021 2.79348C117.727 2.79348 117.432 2.59745 117.383 2.3034ZM120.814 1.51926C120.765 1.1762 121.01 0.833144 121.353 0.735127C121.696 0.686118 122.039 0.931162 122.137 1.27422C122.186 1.61728 121.941 1.96034 121.598 2.05836C121.549 2.05836 121.5 2.05836 121.5 2.05836C121.157 2.05836 120.863 1.81331 120.814 1.51926ZM135.419 1.91133C135.076 1.86232 134.83 1.51926 134.88 1.1272C134.928 0.784137 135.321 0.539093 135.664 0.588102C136.007 0.63711 136.252 1.02918 136.203 1.37224C136.154 1.66629 135.86 1.91133 135.566 1.91133C135.517 1.91133 135.468 1.91133 135.419 1.91133ZM124.294 0.980169C124.245 0.63711 124.539 0.294051 124.882 0.245042C125.225 0.196034 125.568 0.490085 125.617 0.833144C125.666 1.1762 125.372 1.51926 125.029 1.56827H124.98C124.637 1.56827 124.343 1.32323 124.294 0.980169ZM131.988 1.47025C131.645 1.42125 131.351 1.12719 131.4 0.735127C131.449 0.392068 131.743 0.0980184 132.086 0.147027C132.429 0.196035 132.723 0.490085 132.674 0.833144C132.674 1.1762 132.38 1.47025 131.988 1.47025C132.037 1.47025 131.988 1.47025 131.988 1.47025ZM127.822 0.686119C127.822 0.34306 128.116 0 128.459 0C128.802 0 129.145 0.294052 129.145 0.637111C129.145 0.980171 128.851 1.32323 128.508 1.32323C128.165 1.32323 127.871 1.07819 127.822 0.686119Z" fill="#7048A3"/>
<path d="M152.326 173.98C152.228 173.98 152.13 173.98 152.081 173.931C151.983 173.882 151.934 173.833 151.885 173.784C151.738 173.637 151.689 173.49 151.689 173.294C151.689 173.098 151.738 172.951 151.885 172.804C152.13 172.559 152.571 172.559 152.816 172.804C152.963 172.951 153.013 173.098 153.013 173.294C153.013 173.49 152.963 173.637 152.816 173.784C152.669 173.931 152.473 173.98 152.326 173.98Z" fill="#7048A3"/>
<path d="M159.09 98.1149C151.837 91.1067 153.454 78.8546 148.014 70.3761C147.034 68.8569 145.76 67.4356 144.142 66.6515C142.525 65.8673 140.418 65.8673 138.996 66.9455C137.232 68.2197 136.84 70.7682 137.33 72.8756C137.82 74.9829 139.094 76.8452 140.173 78.7076C144.093 85.4217 146.152 93.3611 144.926 101.006C143.603 109.191 138.751 116.542 138.016 124.776C137.477 130.46 139.045 136.194 141.594 141.291C144.142 146.388 147.72 150.946 151.494 155.259C149.729 150.701 150.268 145.31 151.347 140.507C152.425 135.753 154.581 131.245 157.032 127.03C159.727 122.374 162.863 117.865 164.187 112.67C165.461 107.476 162.913 101.84 159.09 98.1149Z" fill="url(#paint0_linear)"/>
<path opacity="0.2" d="M159.09 98.1149C151.837 91.1067 153.454 78.8546 148.014 70.3761C147.034 68.8569 145.76 67.4356 144.142 66.6515C142.525 65.8673 140.418 65.8673 138.996 66.9455C137.232 68.2197 136.84 70.7682 137.33 72.8756C137.82 74.9829 139.094 76.8452 140.173 78.7076C144.093 85.4217 146.152 93.3611 144.926 101.006C143.603 109.191 138.751 116.542 138.016 124.776C137.477 130.46 139.045 136.194 141.594 141.291C144.142 146.388 147.72 150.946 151.494 155.259C149.729 150.701 150.268 145.31 151.347 140.507C152.425 135.753 154.581 131.245 157.032 127.03C159.727 122.374 162.863 117.865 164.187 112.67C165.461 107.476 162.913 101.84 159.09 98.1149Z" fill="black"/>
<path opacity="0.2" d="M154.14 89.5384C153.797 95.6644 150.807 101.643 147.524 106.985C144.142 112.425 140.271 117.767 138.114 123.746C138.065 124.089 138.016 124.432 137.967 124.775C137.428 130.46 138.996 136.194 141.545 141.291C144.093 146.388 147.671 150.946 151.445 155.259C149.68 150.701 150.219 145.31 151.298 140.507C152.376 135.753 154.532 131.245 156.983 127.03C159.678 122.374 162.815 117.865 164.138 112.67C165.461 107.475 162.913 101.839 159.041 98.1148C156.59 95.7624 155.169 92.7729 154.14 89.5384Z" fill="black"/>
<path d="M157.62 148.839C155.757 137.077 155.267 125.119 156.296 113.259C156.835 106.642 157.963 99.8302 161.785 94.3903C164.628 90.4206 168.793 87.3821 170.999 83.0693C174.92 75.375 171.832 65.4263 176.096 57.977C177.615 55.2815 180.605 52.9781 183.643 53.7133C186.731 54.4974 188.201 58.124 188.25 61.2606C188.348 70.3761 180.605 77.7274 179.036 86.6959C177.468 95.6645 182.32 104.388 183.251 113.455C184.084 121.198 182.026 129.039 178.595 136.047C175.165 143.056 170.411 149.329 165.559 155.406C161.834 154.818 158.257 152.661 157.62 148.839Z" fill="url(#paint1_linear)"/>
<path opacity="0.2" d="M157.62 148.839C155.757 137.077 155.267 125.119 156.296 113.259C156.835 106.642 157.963 99.8302 161.785 94.3903C164.628 90.4206 168.793 87.3821 170.999 83.0693C174.92 75.375 171.832 65.4263 176.096 57.977C177.615 55.2815 180.605 52.9781 183.643 53.7133C186.731 54.4974 188.201 58.124 188.25 61.2606C188.348 70.3761 180.605 77.7274 179.036 86.6959C177.468 95.6645 182.32 104.388 183.251 113.455C184.084 121.198 182.026 129.039 178.595 136.047C175.165 143.056 170.411 149.329 165.559 155.406C161.834 154.818 158.257 152.661 157.62 148.839Z" fill="black"/>
<path opacity="0.2" d="M170.656 83.7555C168.352 87.7742 164.481 90.6657 161.785 94.4393C157.963 99.8303 156.835 106.691 156.296 113.308C155.463 123.011 155.61 132.764 156.737 142.419C158.355 146.584 160.266 150.652 162.422 154.524C163.403 154.965 164.53 155.259 165.608 155.455C167.029 153.691 168.401 151.926 169.774 150.113C174.331 141.929 177.909 133.254 178.889 123.991C180.36 110.171 175.949 96.6447 170.656 83.7555Z" fill="black"/>
<path d="M152.082 154.867C144.387 151.779 140.614 142.664 141.055 134.381C141.545 126.099 145.368 118.453 148.994 111.053C152.621 103.604 156.247 95.8116 156.247 87.5291C156.247 78.2175 151.69 69.494 150.759 60.2314C150.023 53.0762 151.543 45.7249 155.071 39.4518C156.444 36.9524 158.404 34.453 161.197 33.8159C165.265 32.8847 169.186 36.5113 170.215 40.579C171.195 44.5977 170.068 48.8615 169.039 52.8801C167.176 60.0354 165.51 67.3867 166.196 74.7379C166.98 83.2164 170.852 91.0577 173.204 99.2421C178.84 118.993 175.116 141.193 163.354 158.003C159.433 157.023 155.806 156.337 152.082 154.867Z" fill="url(#paint2_linear)"/>
<path opacity="0.1" d="M173.792 109.24C173.351 109.044 172.812 109.24 172.616 109.681C170.754 113.749 168.058 117.473 164.775 120.512C164.971 119.728 165.167 118.943 165.314 118.11C167.127 108.75 165.804 99.3401 164.236 91.3027C164.089 90.6166 163.991 89.9795 163.844 89.2933C165.118 87.284 166.245 85.1766 167.225 83.0203C167.421 82.5792 167.225 82.0401 166.784 81.8441C166.343 81.648 165.804 81.8441 165.608 82.2851C164.922 83.8044 164.138 85.2746 163.305 86.7449C163.109 85.8137 162.913 84.8826 162.716 83.9514C161.393 77.8254 160.07 71.5033 159.531 65.1812C159.237 61.5546 159.237 58.173 159.531 54.9874C162.226 52.586 164.824 50.0376 167.274 47.4401C167.617 47.0971 167.568 46.509 167.225 46.2149C166.882 45.8718 166.294 45.9209 166 46.2639C164.04 48.3713 161.981 50.3806 159.874 52.341C160.56 47.6852 161.932 43.5194 163.991 39.8928C164.236 39.4517 164.089 38.9126 163.648 38.6676C163.207 38.4226 162.667 38.5696 162.422 39.0107C158.796 45.3818 157.179 53.2721 157.571 62.5347C156.198 60.7704 154.63 59.1531 152.964 57.6829C152.621 57.3398 152.033 57.3888 151.739 57.7319C151.396 58.0749 151.445 58.663 151.788 58.9571C154.042 60.9664 156.051 63.2208 157.767 65.7203C158.306 72.0424 159.678 78.2664 160.952 84.3435C161.442 86.7449 161.981 89.1953 162.471 91.6457C163.452 96.7426 164.383 102.428 164.383 108.26C162.569 104.584 160.217 101.153 157.473 98.1149C157.13 97.7718 156.59 97.7228 156.247 98.0658C155.904 98.4089 155.855 98.948 156.198 99.2911C159.629 103.065 162.324 107.377 164.236 112.131C164.236 112.18 164.285 112.18 164.285 112.229C164.138 114.092 163.942 115.905 163.599 117.767C163.256 119.434 162.864 121.051 162.373 122.668C162.324 122.766 162.324 122.864 162.275 122.962C161.393 125.805 160.315 128.647 159.286 131.392C158.698 132.911 158.11 134.479 157.571 136.047C154.532 130.362 152.033 124.334 150.17 118.159C150.023 117.669 149.533 117.424 149.092 117.571C148.602 117.718 148.357 118.208 148.504 118.649C150.562 125.462 153.356 132.078 156.786 138.302C155.071 143.497 153.552 149.868 154.532 156.19C154.581 156.631 154.973 156.925 155.414 156.925C155.463 156.925 155.512 156.925 155.561 156.925C156.051 156.827 156.394 156.386 156.296 155.896C155.267 149.133 157.277 142.222 159.139 136.979C159.727 135.312 160.364 133.646 161.001 131.98C162.03 129.235 163.109 126.393 163.991 123.501C168.401 120.022 171.93 115.464 174.282 110.367C174.43 109.975 174.233 109.436 173.792 109.24Z" fill="black"/>
<path d="M169.088 154.377C165.265 154.573 161.393 154.965 157.522 155.161C153.65 154.965 149.778 154.622 145.956 154.377C145.221 163.884 147.573 173.588 152.572 181.723H154.63H160.413H162.471C167.47 173.637 169.823 163.884 169.088 154.377Z" fill="#FFB227"/>
<path opacity="0.1" d="M169.088 154.377C165.265 154.573 161.393 154.965 157.522 155.161C153.65 154.965 149.778 154.622 145.956 154.377C145.711 157.317 145.809 160.209 146.152 163.149L169.235 156.925C169.186 156.092 169.137 155.259 169.088 154.377Z" fill="black"/>
<path d="M171.097 151.73H143.897V156.435H171.097V151.73Z" fill="#FFB227"/>
<path opacity="0.3" d="M171.097 151.73H143.897V156.435H171.097V151.73Z" fill="black"/>
<path d="M139.486 181.821H44.0178C39.1169 181.821 35.1963 177.852 35.1963 173V44.3036C35.1963 39.4027 39.1659 35.4821 44.0178 35.4821H139.486C144.387 35.4821 148.308 39.4517 148.308 44.3036V173C148.308 177.852 144.387 181.821 139.486 181.821Z" fill="#7048A3"/>
<g opacity="0.1">
<path opacity="0.1" d="M148.308 70.18L38.5288 179.959C40.0481 181.135 41.9104 181.87 43.9687 181.87H58.8183L148.308 92.3808V70.18Z" fill="white"/>
<path opacity="0.1" d="M35.1473 172.461L148.308 59.3002V44.3036C148.308 39.4028 144.338 35.4821 139.486 35.4821H127.822L35.1963 128.108V172.461H35.1473Z" fill="white"/>
</g>
<path d="M139.486 37.6874H116.158V40.2359C116.158 41.8532 114.835 43.2254 113.169 43.2254H70.2863C68.6691 43.2254 67.2968 41.9022 67.2968 40.2359V37.6874H43.9688C40.2932 37.6874 37.3527 40.677 37.3527 44.3036V173C37.3527 176.675 40.3422 179.616 43.9688 179.616H139.437C143.113 179.616 146.053 176.626 146.053 173V44.3036C146.102 40.6279 143.162 37.6874 139.486 37.6874Z" fill="white"/>
<path opacity="0.2" d="M92.8303 39.4518C92.8303 40.0399 92.3402 40.579 91.7031 40.579C91.115 40.579 90.5759 40.0889 90.5759 39.4518C90.5759 38.8637 91.066 38.3246 91.7031 38.3246C92.3402 38.3736 92.8303 38.8637 92.8303 39.4518Z" fill="black"/>
<path opacity="0.2" d="M81.7542 39.4518C81.7542 40.0399 81.2642 40.579 80.627 40.579C80.0389 40.579 79.4998 40.0889 79.4998 39.4518C79.4998 38.8637 79.9899 38.3246 80.627 38.3246C81.2642 38.3736 81.7542 38.8637 81.7542 39.4518Z" fill="black"/>
<path opacity="0.2" d="M103.955 39.4518C103.955 40.0399 103.465 40.579 102.828 40.579C102.24 40.579 101.701 40.0889 101.701 39.4518C101.701 38.8637 102.191 38.3246 102.828 38.3246C103.465 38.3736 103.955 38.8637 103.955 39.4518Z" fill="black"/>
<g opacity="0.1">
<path opacity="0.1" d="M56.417 74.7868H48.7227C45.5861 74.7868 43.0377 72.2384 43.0377 69.1018V61.4075C43.0377 58.271 45.5861 55.7225 48.7227 55.7225H56.417C59.5535 55.7225 62.102 58.271 62.102 61.4075V69.1018C62.102 72.2384 59.5535 74.7868 56.417 74.7868ZM48.7227 59.6922C47.7915 59.6922 47.0074 60.4763 47.0074 61.4075V69.1018C47.0074 70.033 47.7915 70.8171 48.7227 70.8171H56.417C57.3482 70.8171 58.1323 70.033 58.1323 69.1018V61.4075C58.1323 60.4763 57.3482 59.6922 56.417 59.6922H48.7227Z" fill="black"/>
</g>
<path opacity="0.1" d="M135.566 60.1824H68.2282C67.248 60.1824 66.4639 59.3983 66.4639 58.4181C66.4639 57.4379 67.248 56.6538 68.2282 56.6538H135.566C136.546 56.6538 137.33 57.4379 137.33 58.4181C137.33 59.3983 136.546 60.1824 135.566 60.1824Z" fill="black"/>
<path opacity="0.1" d="M135.419 67.1416H68.0811C67.1009 67.1416 66.3168 66.3575 66.3168 65.3773C66.3168 64.3971 67.1009 63.613 68.0811 63.613H135.419C136.399 63.613 137.183 64.3971 137.183 65.3773C137.183 66.3575 136.399 67.1416 135.419 67.1416Z" fill="black"/>
<path opacity="0.1" d="M100.868 74.1008H68.2282C67.248 74.1008 66.4639 73.3166 66.4639 72.3365C66.4639 71.3563 67.248 70.5722 68.2282 70.5722H100.868C101.848 70.5722 102.632 71.3563 102.632 72.3365C102.632 73.3166 101.848 74.1008 100.868 74.1008Z" fill="black"/>
<g opacity="0.1">
<path opacity="0.1" d="M56.417 103.016H48.7227C45.5861 103.016 43.0377 100.467 43.0377 97.3306V89.6363C43.0377 86.4998 45.5861 83.9513 48.7227 83.9513H56.417C59.5535 83.9513 62.102 86.4998 62.102 89.6363V97.3306C62.102 100.467 59.5535 103.016 56.417 103.016ZM48.7227 87.921C47.7915 87.921 47.0074 88.7051 47.0074 89.6363V97.3306C47.0074 98.2618 47.7915 99.0459 48.7227 99.0459H56.417C57.3482 99.0459 58.1323 98.2618 58.1323 97.3306V89.6363C58.1323 88.7051 57.3482 87.921 56.417 87.921H48.7227Z" fill="black"/>
</g>
<path opacity="0.1" d="M135.566 88.3622H68.2282C67.248 88.3622 66.4639 87.5781 66.4639 86.5979C66.4639 85.6178 67.248 84.8336 68.2282 84.8336H135.566C136.546 84.8336 137.33 85.6178 137.33 86.5979C137.33 87.5781 136.546 88.3622 135.566 88.3622Z" fill="black"/>
<path opacity="0.1" d="M135.419 95.3214H68.0811C67.101 95.3214 66.3168 94.5373 66.3168 93.5571C66.3168 92.577 67.101 91.7928 68.0811 91.7928H135.419C136.399 91.7928 137.183 92.577 137.183 93.5571C137.183 94.5373 136.399 95.3214 135.419 95.3214Z" fill="black"/>
<path opacity="0.1" d="M100.868 102.281H68.2282C67.248 102.281 66.4639 101.496 66.4639 100.516C66.4639 99.5361 67.248 98.752 68.2282 98.752H100.868C101.848 98.752 102.632 99.5361 102.632 100.516C102.632 101.496 101.848 102.281 100.868 102.281Z" fill="black"/>
<g opacity="0.1">
<path opacity="0.1" d="M56.417 131.196H48.7227C45.5861 131.196 43.0377 128.647 43.0377 125.511V117.816C43.0377 114.68 45.5861 112.131 48.7227 112.131H56.417C59.5535 112.131 62.102 114.68 62.102 117.816V125.511C62.102 128.647 59.5535 131.196 56.417 131.196ZM48.7227 116.101C47.7915 116.101 47.0074 116.885 47.0074 117.816V125.511C47.0074 126.442 47.7915 127.226 48.7227 127.226H56.417C57.3482 127.226 58.1323 126.442 58.1323 125.511V117.816C58.1323 116.885 57.3482 116.101 56.417 116.101H48.7227Z" fill="black"/>
</g>
<path opacity="0.1" d="M135.566 116.591H68.2282C67.248 116.591 66.4639 115.807 66.4639 114.827C66.4639 113.847 67.248 113.062 68.2282 113.062H135.566C136.546 113.062 137.33 113.847 137.33 114.827C137.33 115.807 136.546 116.591 135.566 116.591Z" fill="black"/>
<path opacity="0.1" d="M135.419 123.55H68.0811C67.101 123.55 66.3168 122.766 66.3168 121.786C66.3168 120.806 67.101 120.022 68.0811 120.022H135.419C136.399 120.022 137.183 120.806 137.183 121.786C137.183 122.766 136.399 123.55 135.419 123.55Z" fill="black"/>
<path opacity="0.1" d="M100.868 130.509H68.2282C67.248 130.509 66.4639 129.725 66.4639 128.745C66.4639 127.765 67.248 126.981 68.2282 126.981H100.868C101.848 126.981 102.632 127.765 102.632 128.745C102.632 129.725 101.848 130.509 100.868 130.509Z" fill="black"/>
<g opacity="0.1">
<path opacity="0.1" d="M56.417 159.424H48.7227C45.5861 159.424 43.0377 156.876 43.0377 153.739V146.045C43.0377 142.908 45.5861 140.36 48.7227 140.36H56.417C59.5535 140.36 62.102 142.908 62.102 146.045V153.739C62.102 156.827 59.5535 159.424 56.417 159.424ZM48.7227 144.281C47.7915 144.281 47.0074 145.065 47.0074 145.996V153.69C47.0074 154.622 47.7915 155.406 48.7227 155.406H56.417C57.3482 155.406 58.1323 154.622 58.1323 153.69V145.996C58.1323 145.065 57.3482 144.281 56.417 144.281H48.7227Z" fill="black"/>
</g>
<path opacity="0.1" d="M135.566 144.771H68.2282C67.248 144.771 66.4639 143.987 66.4639 143.006C66.4639 142.026 67.248 141.242 68.2282 141.242H135.566C136.546 141.242 137.33 142.026 137.33 143.006C137.33 143.987 136.546 144.771 135.566 144.771Z" fill="black"/>
<path opacity="0.1" d="M135.419 151.73H68.0811C67.1009 151.73 66.3168 150.946 66.3168 149.966C66.3168 148.986 67.1009 148.201 68.0811 148.201H135.419C136.399 148.201 137.183 148.986 137.183 149.966C137.183 150.946 136.399 151.73 135.419 151.73Z" fill="black"/>
<path opacity="0.1" d="M100.868 158.689H68.2282C67.248 158.689 66.4639 157.905 66.4639 156.925C66.4639 155.945 67.248 155.161 68.2282 155.161H100.868C101.848 155.161 102.632 155.945 102.632 156.925C102.632 157.905 101.848 158.689 100.868 158.689Z" fill="black"/>
<path d="M44.851 42.7352C45.4465 42.7352 45.9292 42.2525 45.9292 41.657C45.9292 41.0615 45.4465 40.5788 44.851 40.5788C44.2555 40.5788 43.7728 41.0615 43.7728 41.657C43.7728 42.2525 44.2555 42.7352 44.851 42.7352Z" fill="#FF58D5"/>
<path d="M48.7226 42.7352C49.3181 42.7352 49.8008 42.2525 49.8008 41.657C49.8008 41.0615 49.3181 40.5788 48.7226 40.5788C48.1271 40.5788 47.6444 41.0615 47.6444 41.657C47.6444 42.2525 48.1271 42.7352 48.7226 42.7352Z" fill="#FF58D5"/>
<path d="M52.5942 42.7352C53.1896 42.7352 53.6724 42.2525 53.6724 41.657C53.6724 41.0615 53.1896 40.5788 52.5942 40.5788C51.9987 40.5788 51.516 41.0615 51.516 41.657C51.516 42.2525 51.9987 42.7352 52.5942 42.7352Z" fill="#FF58D5"/>
<path d="M56.4169 42.7352C57.0124 42.7352 57.4951 42.2525 57.4951 41.657C57.4951 41.0615 57.0124 40.5788 56.4169 40.5788C55.8215 40.5788 55.3387 41.0615 55.3387 41.657C55.3387 42.2525 55.8215 42.7352 56.4169 42.7352Z" fill="#FF58D5"/>
<path d="M60.2887 42.7352C60.8842 42.7352 61.3669 42.2525 61.3669 41.657C61.3669 41.0615 60.8842 40.5788 60.2887 40.5788C59.6933 40.5788 59.2105 41.0615 59.2105 41.657C59.2105 42.2525 59.6933 42.7352 60.2887 42.7352Z" fill="#FF58D5"/>
<path d="M126.107 39.8436H119.834V43.3232H126.107V39.8436Z" fill="#FF58D5"/>
<path d="M126.108 42.4948H126.99V40.6325H126.108V42.4948Z" fill="#FF58D5"/>
<path d="M130.288 40.9288V41.5721H131.456V46.1054H132.188V40.9288H130.288ZM135.436 46.1646C136.641 46.1646 137.543 45.2032 137.543 43.5171C137.543 41.831 136.641 40.8696 135.436 40.8696C134.223 40.8696 133.321 41.831 133.321 43.5171C133.321 45.2032 134.223 46.1646 135.436 46.1646ZM135.436 45.5064C134.622 45.5064 134.06 44.8408 134.06 43.5171C134.06 42.1933 134.622 41.5278 135.436 41.5278C136.242 41.5278 136.804 42.1933 136.804 43.5171C136.804 44.8408 136.242 45.5064 135.436 45.5064ZM132.699 55.1646C133.904 55.1646 134.806 54.2032 134.806 52.5171C134.806 50.831 133.904 49.8696 132.699 49.8696C131.486 49.8696 130.584 50.831 130.584 52.5171C130.584 54.2032 131.486 55.1646 132.699 55.1646ZM132.699 54.5064C131.885 54.5064 131.323 53.8408 131.323 52.5171C131.323 51.1933 131.885 50.5278 132.699 50.5278C133.505 50.5278 134.067 51.1933 134.067 52.5171C134.067 53.8408 133.505 54.5064 132.699 54.5064ZM131.708 61.7094C132.425 61.7094 132.906 61.1473 132.906 60.2969C132.906 59.4464 132.425 58.8844 131.708 58.8844C130.99 58.8844 130.502 59.4538 130.502 60.2969C130.502 61.1399 130.99 61.7094 131.708 61.7094ZM131.294 64.1054H131.863L135.398 58.9288H134.829L131.294 64.1054ZM131.708 61.2878C131.264 61.2878 130.983 60.9107 130.983 60.2969C130.983 59.6831 131.264 59.3059 131.708 59.3059C132.159 59.3059 132.433 59.6757 132.433 60.2969C132.433 60.9181 132.159 61.2878 131.708 61.2878ZM134.984 64.1498C135.701 64.1498 136.189 63.5803 136.189 62.7373C136.189 61.8942 135.701 61.3248 134.984 61.3248C134.267 61.3248 133.786 61.8942 133.786 62.7373C133.786 63.5803 134.267 64.1498 134.984 64.1498ZM134.984 63.7283C134.533 63.7283 134.259 63.3585 134.259 62.7373C134.259 62.1161 134.533 61.7463 134.984 61.7463C135.428 61.7463 135.709 62.1235 135.709 62.7373C135.709 63.3511 135.428 63.7283 134.984 63.7283Z" fill="#FF58D5"/>
<path d="M66.2185 79.3936C61.8077 83.4123 57.2499 87.9211 53.2312 92.2829C51.908 90.6656 50.8298 88.8523 49.8007 86.99C48.0364 87.431 46.2721 87.8721 44.5078 88.3132C47.1542 91.5967 50.0947 94.7333 53.4273 97.3307C57.74 91.5967 61.9548 85.1766 66.2185 79.3936Z" fill="#002B66"/>
<path d="M66.2185 107.622C61.8077 111.641 57.2499 116.15 53.2312 120.512C51.908 118.894 50.8298 117.081 49.8007 115.219C48.0364 115.66 46.2721 116.101 44.5078 116.542C47.1542 119.826 50.0947 122.962 53.4273 125.559C57.74 119.776 61.9548 113.356 66.2185 107.622Z" fill="#002B66"/>
<path d="M66.2185 135.802C61.8077 139.821 57.2499 144.33 53.2312 148.692C51.908 147.074 50.8298 145.261 49.8007 143.399C48.0364 143.84 46.2721 144.281 44.5078 144.722C47.1542 148.005 50.0947 151.142 53.4273 153.739C57.74 147.956 61.9548 141.585 66.2185 135.802Z" fill="#002B66"/>
<path d="M61.5629 41.6572C58.5734 46.8031 55.5348 52.488 53.0354 57.83C51.2711 56.6538 49.7028 55.2815 48.1836 53.8113C46.6153 54.7424 45.096 55.7226 43.5278 56.6537C47.0564 59.0062 50.781 61.1135 54.7507 62.5348C57.1521 55.8206 59.2595 48.4203 61.5629 41.6572Z" fill="#002B66"/>
<path d="M7.40845 175.156L9.41779 170.353L13.2405 172.608L10.0549 176.725L7.40845 175.156Z" fill="#FF58D5"/>
<path d="M30.4915 178.391L29.5113 172.314H35.7354L34.8042 178.391H30.4915Z" fill="#FF58D5"/>
<path d="M8.24166 119.091C8.82976 120.757 9.41786 122.619 8.78075 124.236C9.27083 125.119 8.63373 126.491 7.84959 127.079C7.06546 127.667 5.84024 127.569 5.10512 126.883C4.56602 126.344 4.36999 125.56 4.27197 124.776C4.07594 122.717 4.66404 120.561 5.88925 118.943C5.88925 118.404 6.13429 117.816 6.67339 117.816C7.21248 117.767 8.09463 118.6 8.24166 119.091Z" fill="#FF58D5"/>
<path d="M25.1005 76.9924C24.3164 75.8652 24.4144 74.3459 25.0025 73.1207C25.5906 71.8955 26.6198 70.9643 27.649 70.1312C28.6781 69.2981 29.8053 68.5139 30.7365 67.5337C32.4028 65.7204 33.1869 63.172 32.9419 60.7216C32.7948 59.4964 32.3538 58.2712 31.4226 57.536C29.9033 56.4088 27.5999 56.9479 26.2277 58.2221C24.8065 59.4964 24.0713 61.3097 23.2872 63.025C22.5031 64.7403 21.5719 66.5536 19.9546 67.5828C18.9745 68.2199 17.7983 68.5139 16.8181 69.151C14.7107 70.4743 13.7796 73.3658 14.6617 75.6692C13.7796 76.5513 13.5835 78.0216 14.0736 79.1488C14.5637 80.276 15.5439 81.1581 16.6711 81.6972C18.7784 82.7754 21.3759 82.8244 23.5322 81.9422C23.0912 80.8641 23.3362 79.1978 24.2184 78.4626C24.6594 78.0706 25.1495 77.5805 25.1005 76.9924Z" fill="#002B66"/>
<path d="M46.8112 62.6328C46.1741 61.6526 46.4682 60.1824 47.3993 59.4963C47.1543 58.3691 47.9874 56.8498 49.1636 56.7028C49.8988 56.6048 50.7319 56.9968 50.9769 57.6829C51.124 58.075 51.0259 58.5651 50.8789 58.9572C50.3888 60.7215 49.4577 62.3387 48.1835 63.613C47.7424 63.3679 47.0563 63.0739 46.8112 62.6328Z" fill="#FF58D5"/>
<path d="M8.78064 120.757C9.85883 112.671 13.7305 104.927 19.6115 99.2422C21.1308 97.7719 22.7971 96.3997 24.1693 94.8314C25.5415 93.2632 26.6687 91.3028 26.8648 89.1955C26.9628 88.1173 26.8158 87.0391 26.2277 86.1569C25.6396 85.2748 24.5614 84.6377 23.5322 84.7847C20.2486 85.2258 17.5532 87.6762 15.3968 90.1756C8.73163 98.066 5.10501 108.407 5.30104 118.748C6.47724 119.777 7.31039 120.365 8.78064 120.757Z" fill="#FFB227"/>
<path opacity="0.2" d="M8.78064 120.757C9.85883 112.671 13.7305 104.927 19.6115 99.2422C21.1308 97.7719 22.7971 96.3997 24.1693 94.8314C25.5415 93.2632 26.6687 91.3028 26.8648 89.1955C26.9628 88.1173 26.8158 87.0391 26.2277 86.1569C25.6396 85.2748 24.5614 84.6377 23.5322 84.7847C20.2486 85.2258 17.5532 87.6762 15.3968 90.1756C8.73163 98.066 5.10501 108.407 5.30104 118.748C6.47724 119.777 7.31039 120.365 8.78064 120.757Z" fill="black"/>
<path d="M29.5113 134.332C28.4331 148.202 22.7482 161.679 13.4856 172.069C12.0643 171.628 10.7411 170.647 9.71191 169.569C11.2802 160.993 17.5043 153.543 18.1904 144.869C18.5334 140.262 17.3572 135.655 16.7691 131.049C16.181 126.442 14.8578 119.532 17.5533 115.758C21.621 117.865 26.5218 122.913 28.8742 126.834C29.6584 128.108 30.3445 129.529 30.5895 131C30.8346 132.47 29.6093 132.813 29.5113 134.332Z" fill="#005898"/>
<path opacity="0.3" d="M29.5113 134.332C28.4331 148.202 22.7482 161.679 13.4856 172.069C12.0643 171.628 10.7411 170.647 9.71191 169.569C11.2802 160.993 17.5043 153.543 18.1904 144.869C18.5334 140.262 17.3572 135.655 16.7691 131.049C16.181 126.442 14.8578 119.532 17.5533 115.758C21.621 117.865 26.5218 122.913 28.8742 126.834C29.6584 128.108 30.3445 129.529 30.5895 131C30.8346 132.47 29.6093 132.813 29.5113 134.332Z" fill="black"/>
<path opacity="0.2" d="M30.5405 130.951C30.2954 129.48 29.6093 128.059 28.8252 126.785C26.5218 122.962 21.768 118.061 17.7983 115.856C17.6023 115.954 17.4062 116.052 17.2592 116.101C15.1028 119.679 16.034 125.609 16.6221 129.97C16.7691 130.215 16.8671 130.412 17.0142 130.657C19.2195 134.479 22.111 137.91 24.0714 141.83C25.2966 144.281 26.2277 147.074 26.3258 149.819C28.0411 144.771 29.1192 139.527 29.5113 134.234C29.6093 132.813 30.8345 132.47 30.5405 130.951Z" fill="black"/>
<path d="M31.8146 115.66C36.4704 134.626 37.8917 154.327 36.0294 173.784H29.6583C27.894 166.678 26.2767 158.836 26.3747 151.485C26.4237 146.927 27.1588 142.32 26.0316 137.959C25.0025 134.038 22.552 130.705 20.5427 127.226C18.5334 123.746 16.8181 119.728 17.5532 115.758C22.258 114.582 27.1098 114.533 31.8146 115.66Z" fill="#005898"/>
<path opacity="0.2" d="M25.6886 114.876C27.7959 115.856 30.1484 116.787 32.3537 117.963C32.1577 117.179 32.0107 116.444 31.8146 115.66C27.1098 114.533 22.258 114.582 17.5532 115.709C16.8181 119.679 18.5334 123.697 20.5427 127.177C22.552 130.656 25.0025 134.038 26.0316 137.91C27.1588 142.271 26.4237 146.927 26.3747 151.436C26.3257 158.738 27.894 166.629 29.6583 173.735H32.5988C34.9512 153.935 32.5498 133.597 25.6886 114.876Z" fill="black"/>
<path opacity="0.2" d="M32.5988 119.09C32.5008 118.698 32.4518 118.355 32.3538 117.963C32.2558 117.62 32.2067 117.326 32.1087 116.983C30.6385 116.542 29.4623 115.856 27.649 115.415C26.5708 115.17 25.4926 114.974 24.4144 114.876C22.9932 114.876 21.6209 115.023 20.1997 115.219C18.9255 115.611 17.7493 116.297 16.7201 117.179C16.6711 117.326 16.6221 117.473 16.524 117.62C16.524 117.62 16.524 117.62 16.524 117.669C16.426 117.914 16.377 118.159 16.279 118.404V118.453C16.23 118.698 16.132 118.992 16.083 119.238V119.287C15.9359 120.12 15.8379 121.002 15.8379 121.884V121.933C15.8379 122.227 15.8379 122.521 15.8379 122.815C15.8379 122.864 15.8379 122.864 15.8379 122.913C15.8379 123.207 15.8379 123.501 15.8869 123.795V123.844C15.9359 124.432 15.9849 125.07 16.034 125.658V125.707C16.083 126.001 16.083 126.295 16.132 126.54C16.132 126.589 16.132 126.589 16.132 126.638C16.181 126.932 16.181 127.177 16.23 127.471C16.23 127.52 16.23 127.569 16.23 127.618C16.279 127.863 16.279 128.157 16.328 128.402C16.328 128.451 16.328 128.5 16.328 128.549C16.328 128.696 16.377 128.843 16.377 129.039C22.8461 127.863 28.7271 124.236 32.5988 119.09Z" fill="black"/>
<path d="M14.8577 123.011C20.2976 124.58 28.188 120.12 33.4809 118.159C33.0398 112.523 31.8146 106.691 31.3736 101.056C30.9325 94.9785 30.2954 88.5093 26.4727 83.7555C24.9044 81.8442 21.3758 82.9224 19.5135 84.5397C17.6512 86.1569 16.622 88.5093 15.8379 90.8617C12.8484 100.173 12.2603 113.7 14.8577 123.011Z" fill="#FFB227"/>
<path opacity="0.2" d="M31.3736 101.104C30.9815 95.7624 30.4424 90.0774 27.6979 85.5687C26.5707 85.8627 25.4435 86.3528 24.4144 86.9409C22.307 88.1661 20.5427 90.0774 18.4353 91.2046C22.111 95.3213 26.5217 98.8009 31.4226 101.349C31.3736 101.3 31.3736 101.202 31.3736 101.104Z" fill="black"/>
<path d="M21.964 76.7473C21.523 79.2468 21.2779 81.7462 21.2289 84.2946C22.4541 84.6377 23.8264 85.0788 25.0516 84.8337C25.4436 82.2853 25.5417 79.5898 25.3946 76.9924C24.2184 76.6003 23.2383 76.6003 21.964 76.7473Z" fill="#FF58D5"/>
<path opacity="0.2" d="M21.4249 80.9619C22.6011 81.795 23.9243 82.4811 25.2966 82.9222C25.4926 81.1089 25.4926 79.2466 25.4436 77.4333C25.2966 77.2372 25.1495 77.0412 24.9535 76.8452C24.9535 76.8452 24.9045 76.8452 24.9045 76.7962C23.9243 76.5511 23.0422 76.5511 21.964 76.6491C21.7189 78.1194 21.5719 79.5406 21.4249 80.9619Z" fill="black"/>
<path d="M22.111 71.8463C24.9045 73.3655 27.1589 75.963 28.2371 78.9525C27.6 80.1287 26.4728 81.0109 25.1986 81.4029C23.3362 81.991 21.1799 81.697 19.6116 80.4718C18.0433 79.2956 17.2592 77.1392 17.7493 75.2769C18.1904 73.4145 20.3467 70.9151 22.111 71.8463Z" fill="#FF58D5"/>
<path d="M49.0167 62.8287C47.4974 68.6608 45.6351 74.3947 42.7926 79.6877C39.9011 84.9806 35.9314 89.7344 30.8345 92.8709C29.2173 93.8511 27.502 94.6842 25.6396 94.9293C23.7773 95.1743 21.768 94.8313 20.3467 93.6551C18.9255 92.4789 17.1612 89.7834 18.2394 88.2641C19.6116 86.3528 22.013 85.5687 24.1694 84.7355C34.3141 80.7168 42.5966 72.1894 46.3212 61.8976L49.0167 62.8287Z" fill="#FFB227"/>
<path d="M25.0025 72.7776C25.0516 73.0226 24.9535 73.3167 24.7575 73.5127C24.5615 73.7088 24.3654 73.8558 24.1204 74.0028C22.8952 74.7379 21.4249 75.179 19.9547 75.228C20.4448 75.9141 20.5428 76.9433 20.3467 77.7274C20.7878 78.1195 21.1799 78.5606 21.621 78.9527C21.2289 78.7076 20.5918 78.5606 20.1507 78.3646C19.9057 78.2665 19.5626 78.1685 19.3176 78.3646C19.1705 78.5116 19.1215 78.7566 19.1705 78.9527C19.2195 79.1487 19.3666 79.2957 19.5626 79.4427C20.0037 79.8838 20.5918 80.1779 21.2289 80.3249C21.4249 80.913 21.3759 81.5501 21.2779 82.1872C19.6116 81.7951 17.5042 80.962 16.6221 79.4917C16.034 78.4626 16.034 77.2374 16.083 76.0612C16.23 74.3949 16.5731 72.6306 17.6023 71.3073C18.6314 69.9841 20.4448 69.151 22.062 69.6901C23.3363 70.2291 24.7575 71.4544 25.0025 72.7776Z" fill="#002B66"/>
<path d="M35.7353 175.205H29.5112C28.9231 175.205 28.433 174.715 28.433 174.127V173.441C28.433 172.853 28.9231 172.363 29.5112 172.363H35.7353C36.3234 172.363 36.8135 172.853 36.8135 173.441V174.176C36.8135 174.715 36.3234 175.205 35.7353 175.205Z" fill="#005898"/>
<path d="M35.7353 175.205H29.5112C28.9231 175.205 28.433 174.715 28.433 174.127V173.441C28.433 172.853 28.9231 172.363 29.5112 172.363H35.7353C36.3234 172.363 36.8135 172.853 36.8135 173.441V174.176C36.8135 174.715 36.3234 175.205 35.7353 175.205Z" fill="#005898"/>
<path d="M13.6325 173.735L8.29059 170.549C7.7515 170.255 7.60448 169.569 7.89853 169.079L8.24158 168.442C8.53564 167.903 9.22175 167.756 9.71184 168.05L15.0538 171.236C15.5929 171.53 15.7399 172.216 15.4458 172.706L15.1028 173.343C14.8087 173.833 14.1716 174.029 13.6325 173.735Z" fill="#005898"/>
<path d="M13.6325 173.735L8.29059 170.549C7.7515 170.255 7.60448 169.569 7.89853 169.079L8.24158 168.442C8.53564 167.903 9.22175 167.756 9.71184 168.05L15.0538 171.236C15.5929 171.53 15.7399 172.216 15.4458 172.706L15.1028 173.343C14.8087 173.833 14.1716 174.029 13.6325 173.735Z" fill="#005898"/>
<path d="M30.4914 178.391L28.433 181.821H41.2732L34.8041 178.391H30.4914Z" fill="#005898"/>
<path d="M11.6233 179.126L10.055 176.725L7.40854 175.156L4.17398 176.676L10.349 180.253L10.9371 180.694L14.7108 181.086L11.6233 179.126Z" fill="#005898"/>
<path opacity="0.2" d="M112.287 176.724H71.1685C70.4333 176.724 69.7962 176.136 69.7962 175.352C69.7962 174.617 70.3843 173.98 71.1685 173.98H112.287C113.022 173.98 113.659 174.568 113.659 175.352C113.659 176.087 113.022 176.724 112.287 176.724Z" fill="black"/>
<defs>
<linearGradient id="paint0_linear" x1="137.085" y1="110.663" x2="164.508" y2="110.663" gradientUnits="userSpaceOnUse">
<stop stop-color="#484BA3"/>
<stop offset="1" stop-color="#6468CC"/>
</linearGradient>
<linearGradient id="paint1_linear" x1="155.793" y1="104.497" x2="188.283" y2="104.497" gradientUnits="userSpaceOnUse">
<stop stop-color="#484BA3"/>
<stop offset="1" stop-color="#6468CC"/>
</linearGradient>
<linearGradient id="paint2_linear" x1="158.395" y1="157.952" x2="158.395" y2="33.6374" gradientUnits="userSpaceOnUse">
<stop stop-color="#484BA3"/>
<stop offset="1" stop-color="#6468CC"/>
</linearGradient>
</defs>
</svg>
